<svg xmlns="http://www.w3.org/2000/svg" version="1.1" viewBox="0 0 3000 2400" width="3000" height="2400">
<defs/><!--ITEM: Illustration component 1--><g transform="translate(1241.6000000000001 256.8) rotate(0.0 634.8000000000001 944.4)  scale(0.7989991113841012 0.7986918503239293)"><svg width="1588.988" height="2364.867" viewBox="0.0 0.0 1588.988 2364.867"><path d="m754.242 695.444-526.4 1666.923h72.6l539.3-1666.923z" fill="#fff"/><path d="m300.448 2364.867h-72.6a2.5 2.5 0 0 1 -2.384-3.253l526.4-1666.923a2.5 2.5 0 0 1 2.383-1.747h85.505a2.5 2.5 0 0 1 2.379 3.269l-539.3 1666.923a2.5 2.5 0 0 1 -2.383 1.731zm-69.192-5h67.374l537.68-1661.923h-80.236z" fill="#000000"/><path d="m753.882 695.444 539.3 1666.923h72.6l-526.395-1666.923z" fill="#fff"/><path d="m1365.784 2364.867h-72.6a2.5 2.5 0 0 1 -2.378-1.731l-539.306-1666.923a2.5 2.5 0 0 1 2.378-3.269h85.505a2.5 2.5 0 0 1 2.384 1.747l526.4 1666.923a2.5 2.5 0 0 1 -2.384 3.253zm-70.785-5h67.374l-524.818-1661.923h-80.236z" fill="#000000"/><rect fill="#6f5490" height="1385.885" rx="62.847" width="1583.988" x="2.5" y="2.5"/><path d="m63.618 1388.384h1461.752c33.755 0 61.118-28.938 61.118-64.635v-38.614h-1583.988v38.614c0 35.697 27.363 64.635 61.118 64.635z" fill="#fff"/><path d="m1525.37 1390.884h-1461.752c-35.079 0-63.618-30.116-63.618-67.135v-38.614a2.5 2.5 0 0 1 2.5-2.5h1583.987a2.5 2.5 0 0 1 2.5 2.5v38.614c0 37.019-28.539 67.135-63.617 67.135zm-1520.37-103.249v36.114c0 34.261 26.3 62.135 58.618 62.135h1461.752c32.322 0 58.617-27.874 58.617-62.135v-36.114z" fill="#000000"/><path d="m1523.641 1390.884h-1458.295a65.421 65.421 0 0 1 -65.346-65.346v-1260.192a65.421 65.421 0 0 1 65.346-65.346h1458.3a65.421 65.421 0 0 1 65.347 65.346v1260.192a65.421 65.421 0 0 1 -65.352 65.346zm-1458.295-1385.884a60.414 60.414 0 0 0 -60.346 60.346v1260.192a60.414 60.414 0 0 0 60.346 60.346h1458.3a60.414 60.414 0 0 0 60.347-60.346v-1260.192a60.414 60.414 0 0 0 -60.352-60.346z" fill="#000000"/><path d="m1586.488 1287.636h-1583.988a2.5 2.5 0 0 1 0-5h1583.988a2.5 2.5 0 0 1 0 5z" fill="#000000"/></svg></g><!--ITEM: Illustration component 2--><g transform="translate(1974.4 1005.6) rotate(0.0 224.79999999999995 137.60000000000008)  scale(0.7994651265345604 0.7991102929006373)"><svg width="562.376" height="344.383" viewBox="0.0 0.0 562.376 344.383"><path d="m2.5 341.883h557.375v-339.383zm472.6-71.328h-201.779l201.773-122.855z" fill="#fbb348"/><path d="m559.876 344.383h-557.376a2.5 2.5 0 0 1 -1.3-4.635l557.375-339.383a2.5 2.5 0 0 1 3.8 2.135v339.383a2.5 2.5 0 0 1 -2.499 2.5zm-548.464-5h545.964v-332.434z" fill="#000000"/><path d="m475.094 273.055h-201.772a2.5 2.5 0 0 1 -1.3-4.635l201.772-122.858a2.5 2.5 0 0 1 3.8 2.135v122.858a2.5 2.5 0 0 1 -2.5 2.5zm-192.86-5h190.36v-115.909z" fill="#000000"/><path d="m127.662 301.852a2.5 2.5 0 0 1 -2.138-1.2l-14.261-23.421a2.5 2.5 0 0 1 4.271-2.6l14.261 23.421a2.5 2.5 0 0 1 -2.133 3.8z" fill="#000000"/><path d="m159.4 269.694a2.5 2.5 0 0 1 -2.138-1.2l-8.561-14.06a2.5 2.5 0 1 1 4.271-2.6l8.561 14.06a2.5 2.5 0 0 1 -2.133 3.8z" fill="#000000"/><path d="m196.846 246.9a2.5 2.5 0 0 1 -2.138-1.2l-8.561-14.061a2.5 2.5 0 0 1 4.27-2.6l8.562 14.06a2.5 2.5 0 0 1 -2.133 3.8z" fill="#000000"/><path d="m239.987 233.458a2.5 2.5 0 0 1 -2.138-1.2l-14.26-23.421a2.5 2.5 0 0 1 4.27-2.6l14.261 23.421a2.5 2.5 0 0 1 -2.133 3.8z" fill="#000000"/><path d="m271.729 201.3a2.5 2.5 0 0 1 -2.137-1.2l-8.561-14.06a2.5 2.5 0 1 1 4.27-2.6l8.561 14.06a2.5 2.5 0 0 1 -2.133 3.8z" fill="#000000"/><path d="m309.171 178.5a2.5 2.5 0 0 1 -2.138-1.2l-8.561-14.06a2.5 2.5 0 1 1 4.27-2.6l8.558 14.06a2.5 2.5 0 0 1 -2.133 3.8z" fill="#000000"/><path d="m352.312 165.064a2.5 2.5 0 0 1 -2.137-1.2l-14.261-23.421a2.5 2.5 0 1 1 4.27-2.6l14.261 23.422a2.5 2.5 0 0 1 -2.133 3.8z" fill="#000000"/><path d="m384.054 132.905a2.5 2.5 0 0 1 -2.137-1.2l-8.561-14.061a2.5 2.5 0 1 1 4.27-2.6l8.561 14.061a2.5 2.5 0 0 1 -2.133 3.8z" fill="#000000"/><path d="m421.5 110.107a2.5 2.5 0 0 1 -2.137-1.2l-8.563-14.06a2.5 2.5 0 1 1 4.271-2.6l8.561 14.061a2.5 2.5 0 0 1 -2.133 3.8z" fill="#000000"/><path d="m464.637 96.67a2.5 2.5 0 0 1 -2.137-1.2l-14.261-23.42a2.5 2.5 0 1 1 4.271-2.6l14.26 23.421a2.5 2.5 0 0 1 -2.133 3.8z" fill="#000000"/></svg></g><!--ITEM: Illustration component 3--><g transform="translate(1339.2 388.8) rotate(0.0 529.6 354.80000000000007)  scale(0.7998894412630279 0.7995601067282038)"><svg width="1324.183" height="887.488" viewBox="0.0 0.0 1324.183 887.488"><g fill="#fff"><circle cx="630.971" cy="137.885" r="21.016"/><path d="m630.973 140.385a2.494 2.494 0 0 1 -1.952-.936l-38.042-47.44h-93.979a2.5 2.5 0 1 1 0-5h95.181a2.5 2.5 0 0 1 1.95.936l38.792 48.376a2.5 2.5 0 0 1 -1.948 4.064z"/><circle cx="887.349" cy="650.64" r="21.016"/><path d="m740.787 799.7h-198.72a2.5 2.5 0 0 1 0-5h197.684l145.83-145.829a2.5 2.5 0 1 1 3.535 3.535l-146.562 146.563a2.5 2.5 0 0 1 -1.767.731z"/><path d="m1143.726 653.14h-512.755a2.5 2.5 0 0 1 -2.5-2.5v-512.755a2.5 2.5 0 0 1 2.5-2.5h512.755a2.5 2.5 0 0 1 2.5 2.5v512.755a2.5 2.5 0 0 1 -2.5 2.5zm-510.255-5h507.755v-507.755h-507.755z"/><path d="m1143.728 653.14a2.5 2.5 0 0 1 -1.386-4.583l176.841-117.5v-511.419a2.5 2.5 0 1 1 5 0v512.754a2.5 2.5 0 0 1 -1.116 2.083l-177.957 118.247a2.488 2.488 0 0 1 -1.382.418z"/><path d="m808.929 37.138a2.5 2.5 0 0 1 -2.5-2.5v-15a2.5 2.5 0 0 1 5 0v15a2.5 2.5 0 0 1 -2.5 2.5z"/><path d="m808.929 491.5a2.5 2.5 0 0 1 -2.5-2.5v-28.4a2.5 2.5 0 0 1 5 0v28.4a2.5 2.5 0 0 1 -2.5 2.5zm0-56.8a2.5 2.5 0 0 1 -2.5-2.5v-28.4a2.5 2.5 0 0 1 5 0v28.4a2.5 2.5 0 0 1 -2.5 2.5zm0-56.794a2.5 2.5 0 0 1 -2.5-2.5v-28.4a2.5 2.5 0 1 1 5 0v28.4a2.5 2.5 0 0 1 -2.5 2.5zm0-56.8a2.5 2.5 0 0 1 -2.5-2.5v-28.4a2.5 2.5 0 0 1 5 0v28.4a2.5 2.5 0 0 1 -2.5 2.505zm0-56.8a2.5 2.5 0 0 1 -2.5-2.5v-28.4a2.5 2.5 0 1 1 5 0v28.4a2.5 2.5 0 0 1 -2.5 2.51zm0-56.794a2.5 2.5 0 0 1 -2.5-2.5v-28.4a2.5 2.5 0 0 1 5 0v28.4a2.5 2.5 0 0 1 -2.5 2.51zm0-56.795a2.5 2.5 0 0 1 -2.5-2.5v-28.4a2.5 2.5 0 0 1 5 0v28.4a2.5 2.5 0 0 1 -2.5 2.51zm0-56.795a2.5 2.5 0 0 1 -2.5-2.5v-28.4a2.5 2.5 0 1 1 5 0v28.4a2.5 2.5 0 0 1 -2.5 2.51z"/><path d="m796.437 543.194a2.5 2.5 0 0 1 -1.386-4.582l11.378-7.56v-13.659a2.5 2.5 0 0 1 5 0v15a2.5 2.5 0 0 1 -1.116 2.082l-12.494 8.3a2.488 2.488 0 0 1 -1.382.419z"/><path d="m665.32 630.317a2.5 2.5 0 0 1 -1.386-4.582l21.853-14.521a2.5 2.5 0 0 1 2.767 4.165l-21.854 14.521a2.5 2.5 0 0 1 -1.38.417zm43.706-29.041a2.5 2.5 0 0 1 -1.386-4.582l21.853-14.521a2.5 2.5 0 0 1 2.767 4.165l-21.852 14.52a2.49 2.49 0 0 1 -1.382.418zm43.706-29.041a2.5 2.5 0 0 1 -1.386-4.582l21.854-14.521a2.5 2.5 0 0 1 2.767 4.165l-21.852 14.52a2.49 2.49 0 0 1 -1.383.418z"/><path d="m630.973 653.14a2.5 2.5 0 0 1 -1.386-4.583l12.494-8.3a2.5 2.5 0 0 1 2.767 4.164l-12.493 8.3a2.488 2.488 0 0 1 -1.382.419z"/><path d="m1143.728 140.385a2.5 2.5 0 0 1 -1.386-4.582l171.058-113.665h-503.717l-177.328 117.829a2.5 2.5 0 1 1 -2.768-4.164l177.957-118.247a2.5 2.5 0 0 1 1.384-.418h512.755a2.5 2.5 0 0 1 1.384 4.582l-177.957 118.247a2.488 2.488 0 0 1 -1.382.418z"/><path d="m823.929 534.893h-15a2.5 2.5 0 0 1 0-5h15a2.5 2.5 0 1 1 0 5z"/><path d="m1278.286 534.893h-28.4a2.5 2.5 0 0 1 0-5h28.4a2.5 2.5 0 0 1 0 5zm-56.8 0h-28.4a2.5 2.5 0 0 1 0-5h28.4a2.5 2.5 0 0 1 0 5zm-56.8 0h-28.4a2.5 2.5 0 0 1 0-5h28.4a2.5 2.5 0 0 1 0 5zm-56.794 0h-28.4a2.5 2.5 0 0 1 0-5h28.4a2.5 2.5 0 0 1 0 5zm-56.8 0h-28.4a2.5 2.5 0 1 1 0-5h28.4a2.5 2.5 0 0 1 0 5zm-56.795 0h-28.4a2.5 2.5 0 0 1 0-5h28.4a2.5 2.5 0 0 1 0 5zm-56.794 0h-28.4a2.5 2.5 0 0 1 0-5h28.4a2.5 2.5 0 0 1 0 5zm-56.8 0h-28.4a2.5 2.5 0 0 1 0-5h28.4a2.5 2.5 0 0 1 0 5z"/><path d="m1321.683 534.893h-15a2.5 2.5 0 0 1 0-5h15a2.5 2.5 0 0 1 0 5z"/><path d="m409.652 5h-406.825a2.5 2.5 0 0 1 0-5h406.825a2.5 2.5 0 0 1 0 5z"/><path d="m409.652 92.673h-406.825a2.5 2.5 0 1 1 0-5h406.825a2.5 2.5 0 0 1 0 5z"/><path d="m250.721 186.921h-247.894a2.5 2.5 0 1 1 0-5h247.894a2.5 2.5 0 0 1 0 5z"/><path d="m409.326 799.815h-406.826a2.5 2.5 0 0 1 0-5h406.826a2.5 2.5 0 0 1 0 5z"/><path d="m409.326 887.488h-406.826a2.5 2.5 0 0 1 0-5h406.826a2.5 2.5 0 0 1 0 5z"/></g></svg></g><!--ITEM: Illustration component 4--><g transform="translate(1568.0 550.4) rotate(0.0 120.0 167.20000000000005)  scale(1.0301136558733646 1.0338633531923316)"><svg width="232.984" height="323.447" viewBox="0.0 0.0 232.984 323.447"><path d="m225.633 3.591-217.957 300.932c-10.41 14.789 7.463 23.133 19.249 6.4l203.056-304.204a2.679 2.679 0 0 0 -4.348-3.128z" fill="#fff"/><path d="m11.745 323.447c-.307 0-.611-.01-.917-.029a11.363 11.363 0 0 1 -9.791-6.186c-1.888-3.918-1.16-8.758 2-13.279l220.577-301.837.031-.041a5.1 5.1 0 0 1 7.143-1.063 5.093 5.093 0 0 1 1.262 7.11l-203.05 304.192c-4.562 7.024-10.96 11.133-17.255 11.133zm215.886-318.354-220.531 301.766c-2.092 3-2.656 5.926-1.559 8.2a6.445 6.445 0 0 0 5.605 3.365c4.753.306 9.874-3.009 13.683-8.865l203.071-304.228a.539.539 0 0 0 .083-.158.5.5 0 0 0 -.277-.173c.01 0-.025.03-.075.093z" fill="#000000"/></svg></g><!--ITEM: Illustration component 5--><g transform="translate(494.40000000000003 333.6) rotate(0.0 602.8 906.0)  scale(0.7997335990267342 0.7993386487294839)"><svg width="1507.502" height="2266.874" viewBox="0.0 0.0 1507.502 2266.874"><path d="m459.881 672.4s134.847 64.549 236.652 35.417c101.96 267.783 116.812 773.027 64.637 1337.364 0 0-277.99 104.583-357.91-22.1 0 0 45.427-356.039 140.438-561.13l-42.221-431.3" fill="#fbb348"/><path d="m552.713 2088.246c-22.1 0-42.268-1.941-60.338-5.821-41.934-9.005-72.627-28.521-91.229-58.005a2.5 2.5 0 0 1 -.366-1.651c.114-.891 11.634-90.412 34.619-203.836 21.183-104.529 56.712-251.3 105.745-357.411l-42.156-430.629a2.5 2.5 0 0 1 4.977-.487l42.222 431.305a2.516 2.516 0 0 1 -.22 1.294c-48.974 105.715-84.489 252.424-105.659 356.883-21.724 107.19-33.191 192.988-34.452 202.62 40.83 63.56 134.439 65.924 205.926 56.661 72.011-9.33 136.591-32 147.04-35.789 54.664-612.208 32.012-1085.2-63.8-1332.548-52.645 14.307-113.554 3.94-155.643-7.385a523.528 523.528 0 0 1 -80.58-28.793 2.5 2.5 0 0 1 2.158-4.51 518.339 518.339 0 0 0 79.812 28.5c42.037 11.3 103.063 21.653 155.074 6.769a2.5 2.5 0 0 1 3.016 1.493c49.616 126.887 79.993 311.461 90.289 548.593 9.8 225.624 1.22 491.387-25.489 789.906a2.5 2.5 0 0 1 -1.61 2.117c-.7.263-70.681 26.366-149.544 36.6a466.758 466.758 0 0 1 -59.792 4.124z" fill="#000000"/><path d="m716.4 698.535c-531.509 19.518-404.655 458.324-305.619 762.838 0 0-188.353 196.317-268.726 317.466 0 0 96.287 362.437 251.894 241.466 0 0 257.074-375.232 271.827-520.667 24.014-236.716-28.805-463.431-28.805-463.431" fill="#fbb348"/><path d="m330.874 2047.5a83.514 83.514 0 0 1 -26.83-4.488c-23.837-8.036-47.329-26.985-69.823-56.32-17.864-23.3-35.173-53.194-51.448-88.861a848.439 848.439 0 0 1 -43.133-118.354 2.5 2.5 0 0 1 .333-2.024c76.5-115.307 252.767-300.8 267.969-316.732-32.69-100.57-68.586-216.868-82.383-326.6-16.119-128.2.268-225.183 50.1-296.5 29.483-42.2 71.359-75.411 124.465-98.711 57.657-25.3 130.393-39.723 216.187-42.874a2.5 2.5 0 0 1 .184 5c-162.974 5.985-276.269 52.9-336.738 139.452-49.088 70.259-65.192 166.106-49.235 293.017 13.808 109.815 49.9 226.421 82.639 327.1a2.5 2.5 0 0 1 -.573 2.5c-1.878 1.956-188.136 196.517-267.819 316.173a847.921 847.921 0 0 0 42.584 116.546c25.242 55.306 66.255 124.914 118.293 142.456 28.188 9.5 57.275 2.871 86.463-19.709 4.2-6.156 66.688-97.966 130.085-205.355 86.311-146.2 135.1-254.724 141.1-313.829 12.379-122.026 3.905-241.3-5.384-319.862-10.068-85.162-23.237-142.184-23.368-142.749a2.5 2.5 0 1 1 4.869-1.135c.132.568 13.353 57.8 23.455 143.22 9.325 78.835 17.83 198.524 5.4 321.031-6.156 60.676-53.858 166.957-141.781 315.889-65.4 110.779-129.829 205-130.472 205.938a2.485 2.485 0 0 1 -.528.56c-21.603 16.793-43.241 25.221-64.611 25.221z" fill="#000000"/><path d="m548.287 61.5c137.894-143.067 252.056 3.552 100.463 127.786 26.28 125.395-171.827 118.73-264.166 115.753-62.617-31.666-140.498-267.968 163.703-243.539z" fill="#ff6996"/><path d="m669.927 433.98c80.05-6.578 119.557 47.333 163.357 95.525 47.383 52.133 105.835 76.923 105.835 76.923 43.118 2.424 366-130.62 346.034 52.589 0 0 21.079 85.825-60.765 114.027-88.277 30.418-312.4 74.908-495.4-100.645" fill="#92acef"/><path d="m1273.588 690.01a2.5 2.5 0 0 1 -1.952-4.06c7.382-9.247 11.059-27.944 11.1-28.132a2.5 2.5 0 0 1 4.91.947c-.157.815-3.943 20.089-12.1 30.305a2.5 2.5 0 0 1 -1.958.94z" fill="#000000"/><path d="m1051.975 804c-12.934 0-26.278-.48-39.96-1.548-109.115-8.515-204.923-51.665-284.754-128.252a2.5 2.5 0 1 1 3.462-3.608c192.077 184.266 425.794 123.195 492.851 100.088 32.98-11.364 52.966-33.416 59.4-65.543a117.378 117.378 0 0 0 -.251-45.526 2.518 2.518 0 0 1 -.058-.865c3.523-32.328-3.781-56.575-21.709-72.069-51.842-44.8-182.227-10.956-260.128 9.266-30.258 7.853-52.118 13.527-61.851 12.981a2.479 2.479 0 0 1 -.746-.158c-.551-.209-55.653-21.452-99.7-69.727-4.079-4.47-8.268-9.156-12.32-13.689-39.695-44.41-84.685-94.745-156.077-88.878a2.5 2.5 0 0 1 -.409-4.983c73.869-6.072 119.741 45.25 160.214 90.529 4.229 4.731 8.224 9.2 12.285 13.651 41.363 45.327 92.627 66.378 97.424 68.281 9.21.322 31.635-5.5 59.928-12.847 38.986-10.12 92.378-23.979 141.6-29.307 58.988-6.384 99.238.517 123.053 21.1 19.166 16.563 27.057 42.118 23.457 75.967a121.028 121.028 0 0 1 .23 47.08c-4.654 23.436-19.311 54.511-62.711 69.466-33.078 11.396-95.831 28.591-173.23 28.591z" fill="#000000"/><path d="m441.96 308.714c-20.986 0-40.51-.63-56.841-1.157l-.616-.019a2.515 2.515 0 0 1 -1.048-.268c-17.429-8.815-35.38-32.212-46.847-61.062-13.036-32.8-15.742-66.763-7.62-95.641 8.861-31.505 29.738-55.549 62.053-71.464 37.7-18.569 90.277-25.363 156.269-20.193 23.575-24.283 47.52-41.374 71.19-50.81 21.4-8.534 41.969-10.361 59.468-5.282 22.753 6.605 38.656 24.32 43.629 48.6 4.093 19.981.521 42.739-10.327 65.815-12.037 25.6-32.141 50.164-59.767 73.024 5.384 27.31.473 50.256-14.606 68.223-36.087 42.998-123.837 50.233-194.937 50.234zm-56.734-6.156h.054c70.809 2.283 202.611 6.534 247.783-47.291 14.315-17.057 18.77-39.085 13.24-65.47a2.5 2.5 0 0 1 .862-2.447c27.645-22.656 47.689-46.962 59.576-72.243 10.386-22.093 13.828-43.768 9.954-62.685-4.589-22.4-19.214-38.734-40.125-44.8-16.42-4.766-35.862-2.994-56.222 5.124-23.278 9.281-46.917 26.267-70.261 50.486a2.5 2.5 0 0 1 -2 .757c-65.633-5.27-117.728 1.325-154.837 19.6-30.987 15.261-50.989 38.251-59.45 68.332-7.826 27.828-5.179 60.657 7.453 92.44 10.928 27.49 27.736 49.717 43.973 58.197z" fill="#000000"/><path d="m534.114 82.6a2.5 2.5 0 0 1 -2.076-3.889c23.4-35.032 52.127-52.795 53.338-53.535a2.5 2.5 0 0 1 2.605 4.268c-.287.176-29.023 17.975-51.786 52.045a2.5 2.5 0 0 1 -2.081 1.111z" fill="#000000"/><path d="m403.26 2023.085s-66.1 110.469.207 241.289l496.516-.26s100.062-108.8-69.406-205.448c-106.756-60.88-213.324 20.893-263.565 26.151-26.819 2.807-138.404-36.579-163.752-61.732z" fill="#fff"/><path d="m384.184 2215.62s4.069 25.734 19.283 48.754l496.516-.26s17.732-19.559 26.084-50.6z" fill="#ff6996"/><path d="m737.7 2264.908a2.5 2.5 0 0 1 -2.5-2.49l-.188-48.164a2.5 2.5 0 0 1 2.491-2.51h.009a2.5 2.5 0 0 1 2.5 2.491l.188 48.163a2.5 2.5 0 0 1 -2.49 2.51z" fill="#000000"/><path d="m803.565 2264.709a2.5 2.5 0 0 1 -2.5-2.491l-.188-48.163a2.5 2.5 0 0 1 2.491-2.51h.009a2.5 2.5 0 0 1 2.5 2.491l.188 48.163a2.5 2.5 0 0 1 -2.49 2.51z" fill="#000000"/><path d="m403.467 2266.874a2.5 2.5 0 0 1 -2.23-1.37c-34.57-68.2-32.782-130.794-25.2-171.292 8.224-43.905 24.389-71.267 25.073-72.41a2.5 2.5 0 0 1 3.907-.491c24.432 24.244 135.384 63.777 161.73 61.02 13.446-1.408 31.44-8.6 52.276-16.928 56.672-22.652 134.289-53.675 212.788-8.908 58.866 33.569 92.1 72.333 98.775 115.214 8.27 53.11-27.251 92.448-28.767 94.1a2.5 2.5 0 0 1 -1.839.808l-496.516.26zm.439-239.8c-4.234 7.951-16.392 32.893-22.989 68.26-7.352 39.419-9.089 100.2 24.09 166.536l493.838-.259c4.954-5.837 34.092-42.518 26.8-89.193-6.453-41.279-38.853-78.821-96.3-111.583-76.406-43.572-152.729-13.067-208.456 9.208-21.182 8.466-39.475 15.778-53.611 17.257a30.937 30.937 0 0 1 -3.211.151c-31.361.006-131.541-35.709-160.161-60.374z" fill="#000000"/><path d="m384.184 2218.12a2.5 2.5 0 0 1 -.01-5l540.852-2.105h.01a2.5 2.5 0 0 1 .01 5l-540.853 2.105z" fill="#000000"/><path d="m824.216 2264.571a2.5 2.5 0 0 1 -2.5-2.49l-.188-48.163a2.5 2.5 0 0 1 2.491-2.51h.009a2.5 2.5 0 0 1 2.5 2.49l.188 48.163a2.5 2.5 0 0 1 -2.49 2.51z" fill="#000000"/><path d="m736.876 2100.746a2.5 2.5 0 0 1 -2.488-2.769c3.711-34.275 60.859-54.358 63.29-55.2a2.5 2.5 0 0 1 1.631 4.727c-.566.195-56.58 19.88-59.951 51.008a2.5 2.5 0 0 1 -2.482 2.234z" fill="#000000"/><path d="m776.457 2120.237a2.5 2.5 0 0 1 -2.489-2.769c3.711-34.275 60.86-54.359 63.29-55.2a2.5 2.5 0 0 1 1.631 4.727c-.566.2-56.579 19.88-59.95 51.008a2.5 2.5 0 0 1 -2.482 2.234z" fill="#000000"/><path d="m813.348 2146a2.5 2.5 0 0 1 -2.489-2.77c3.711-34.275 60.86-54.358 63.291-55.2a2.5 2.5 0 0 1 1.63 4.727c-.565.195-56.579 19.88-59.95 51.007a2.5 2.5 0 0 1 -2.482 2.236z" fill="#000000"/><path d="m521.212 2265.751a2.5 2.5 0 0 1 -2.5-2.49l-.187-48.164a2.5 2.5 0 0 1 2.49-2.51h.01a2.5 2.5 0 0 1 2.5 2.49l.187 48.164a2.5 2.5 0 0 1 -2.49 2.51z" fill="#000000"/><path d="m557.172 2265.744a2.5 2.5 0 0 1 -2.5-2.49l-.187-48.164a2.5 2.5 0 0 1 2.49-2.509h.01a2.5 2.5 0 0 1 2.5 2.49l.187 48.163a2.5 2.5 0 0 1 -2.49 2.51z" fill="#000000"/><path d="m601.679 2265.736a2.5 2.5 0 0 1 -2.5-2.49l-.188-48.163a2.5 2.5 0 0 1 2.49-2.51h.01a2.5 2.5 0 0 1 2.5 2.49l.188 48.163a2.5 2.5 0 0 1 -2.491 2.51z" fill="#000000"/><path d="m622.214 2265.358a2.5 2.5 0 0 1 -2.5-2.491l-.187-48.163a2.5 2.5 0 0 1 2.49-2.51h.01a2.5 2.5 0 0 1 2.5 2.49l.187 48.164a2.5 2.5 0 0 1 -2.49 2.51z" fill="#000000"/><path d="m445.328 2266.273a2.5 2.5 0 0 1 -2.5-2.491l-.187-48.163a2.5 2.5 0 0 1 2.49-2.51h.01a2.5 2.5 0 0 1 2.5 2.49l.187 48.164a2.5 2.5 0 0 1 -2.49 2.51z" fill="#000000"/><path d="m697.965 2265.063a2.5 2.5 0 0 1 -2.5-2.491l-.188-48.163a2.5 2.5 0 0 1 2.491-2.51h.009a2.5 2.5 0 0 1 2.5 2.491l.188 48.163a2.5 2.5 0 0 1 -2.49 2.51z" fill="#000000"/><path d="m874.716 2264.375a2.5 2.5 0 0 1 -2.5-2.491l-.187-48.163a2.5 2.5 0 0 1 2.49-2.51h.01a2.5 2.5 0 0 1 2.5 2.49l.187 48.164a2.5 2.5 0 0 1 -2.49 2.51z" fill="#000000"/><path d="m330.874 2047.5a83.514 83.514 0 0 1 -26.83-4.488c-23.837-8.036-47.329-26.985-69.823-56.32-17.864-23.3-35.173-53.194-51.448-88.861a848.439 848.439 0 0 1 -43.133-118.354 2.5 2.5 0 0 1 .333-2.024c76.5-115.307 252.767-300.8 267.969-316.732-32.69-100.57-68.586-216.868-82.383-326.6-16.119-128.2.268-225.183 50.1-296.5 29.483-42.2 71.359-75.411 124.465-98.711 57.657-25.3 130.393-39.723 216.187-42.874a2.5 2.5 0 0 1 .184 5c-162.974 5.985-276.269 52.9-336.738 139.452-49.088 70.259-65.192 166.106-49.235 293.017 13.808 109.815 49.9 226.421 82.639 327.1a2.5 2.5 0 0 1 -.573 2.5c-1.878 1.956-188.136 196.517-267.819 316.173a847.921 847.921 0 0 0 42.584 116.546c25.242 55.306 66.255 124.914 118.293 142.456 28.188 9.5 57.275 2.871 86.463-19.709 4.2-6.156 66.688-97.966 130.085-205.355 86.311-146.2 135.1-254.724 141.1-313.829 12.379-122.026 3.905-241.3-5.384-319.862-10.068-85.162-23.237-142.184-23.368-142.749a2.5 2.5 0 1 1 4.869-1.135c.132.568 13.353 57.8 23.455 143.22 9.325 78.835 17.83 198.524 5.4 321.031-6.156 60.676-53.858 166.957-141.781 315.889-65.4 110.779-129.829 205-130.472 205.938a2.485 2.485 0 0 1 -.528.56c-21.603 16.793-43.241 25.221-64.611 25.221z" fill="#000000"/><path d="m429.494 1502.139a2.5 2.5 0 0 1 -2.249-1.406l-18.3-37.59a2.5 2.5 0 1 1 4.5-2.188l18.3 37.589a2.5 2.5 0 0 1 -2.246 3.595z" fill="#000000"/><path d="m559.181 365.383s82.119-30.1 110.746 68.6c20.731 69.809 43.123 79.515 64.381 136.686 36.156 97.231-16.378 154.031-50.365 174.873-125.25 76.783-365.988-11.192-218.652-290.7 0 .002-21.084-82.227 93.89-89.459z" fill="#92acef"/><path d="m586.285 774.588c-45.691 0-90.882-15.392-122.595-45.113-28.481-26.692-44.7-63.424-46.892-106.223-2.526-49.235 12.9-106 45.848-168.751-1.17-5.432-5.683-31.932 11.4-55.436 15.537-21.377 44.009-33.54 84.629-36.155 3.851-1.336 35-11.305 65.494 4.128 22.511 11.395 38.714 33.683 48.159 66.246a2.5 2.5 0 1 1 -4.8 1.392c-9.035-31.151-24.365-52.4-45.563-63.15-29.907-15.169-61.606-3.911-61.923-3.8a2.511 2.511 0 0 1 -.7.147c-39.213 2.467-66.535 13.93-81.209 34.073-17.368 23.842-10.488 51.993-10.416 52.274a2.505 2.505 0 0 1 -.211 1.784c-82.944 157.351-35.848 236.589-.393 269.818 30.8 28.863 74.709 43.81 119.12 43.811 33.677 0 67.64-8.592 96.407-26.227 15.4-9.442 90.147-62.1 49.329-171.874a275.951 275.951 0 0 0 -13.457-30.578 2.5 2.5 0 0 1 4.445-2.291 280.9 280.9 0 0 1 13.7 31.126c16.165 43.473 16.523 83.164 1.063 117.972-15.28 34.405-41.78 53.356-52.464 59.908-29.526 18.101-64.392 26.919-98.971 26.919z" fill="#000000"/><path d="m525.587 647.416s-13.817 5.094-20.508 17.632-22.45 38.206-33.733 45.4c0 0-36.991 170.31-199.594 180.289 0 0-44.546-11.561-50.252-40.153s3.879-38.352 3.759-54.076-1.8-72.07 35.292-111.186 48.785-50.726 63.333-70.144c48.261-64.42 53.3-134.476 141.407-160.337" fill="#92acef"/><path d="m271.754 893.24a2.523 2.523 0 0 1 -.629-.08c-1.881-.489-46.132-12.3-52.077-42.084-3.766-18.872-1.066-29.771 1.316-39.386 1.307-5.274 2.436-9.828 2.395-15.16l-.013-1.479c-.176-17.991-.711-72.742 35.991-111.446 5.282-5.57 10.048-10.581 14.381-15.138 25.727-27.051 36.376-38.249 48.765-54.785 13.188-17.6 23.876-37.337 34.211-56.421 28.006-51.715 54.464-100.561 125.946-106.538a2.5 2.5 0 1 1 .417 4.982c-68.79 5.751-94.62 53.444-121.966 103.938-10.422 19.242-21.2 39.139-34.606 57.037-12.565 16.771-23.274 28.031-49.144 55.233-4.332 4.555-9.1 9.565-14.376 15.132-35.311 37.237-34.79 90.466-34.619 107.958l.013 1.489c.045 5.961-1.211 11.032-2.541 16.4-2.257 9.107-4.814 19.429-1.266 37.206 5.33 26.71 48 38.11 48.429 38.222a2.5 2.5 0 0 1 -.627 4.92z" fill="#000000"/><path d="m471.349 712.951a2.5 2.5 0 0 1 -1.349-4.608c10.167-6.485 25.228-30.148 32.872-44.472 7.057-13.225 21.248-18.579 21.849-18.8a2.5 2.5 0 0 1 1.733 4.69c-.13.048-13.029 4.953-19.171 16.464-6.79 12.725-22.759 38.784-34.6 46.333a2.482 2.482 0 0 1 -1.334.393z" fill="#000000"/><path d="m1286.046 611.381-45.367 10.068s-32.638 57.484 19.376 90.921l40.516-10.575s38.856 46.528 129.114 16.155l41.375-136.312z" fill="#ffaac3"/><path d="m1372.228 730.684c-17.707 0-31.626-3.275-41.821-7.08-17.659-6.59-27.533-15.747-30.665-19.009l-39.055 10.194a2.5 2.5 0 0 1 -1.881-.253c-28.01-16.156-32.011-41.053-30.435-59.095a100.508 100.508 0 0 1 10.1-35.173 2.5 2.5 0 0 1 1.662-1.26l45.368-10.067a2.5 2.5 0 1 1 1.083 4.881l-44.209 9.81a97.867 97.867 0 0 0 -9.04 32.39c-2.026 23.719 7.087 41.77 27.086 53.667l39.514-10.313a2.5 2.5 0 0 1 2.55.816c.092.109 9.724 11.364 29.979 18.844 18.738 6.92 50.676 11.938 96.419-3.455a2.5 2.5 0 1 1 1.6 4.739c-22.627 7.613-42.031 10.364-58.255 10.364z" fill="#000000"/><path d="m1419.13 667.924s60.752-2.145 55.144 33.3-122.06 29.673-114.464-9.384c5.512-28.317 62.039-21.936 71.877-13.972" fill="#ffaac3"/><path d="m1421.063 727.3c-21.87 0-44.152-5.416-55.5-15.049-6.892-5.852-9.731-13.074-8.212-20.886 1.707-8.766 8.061-15.383 18.376-19.137 19.459-7.081 49.62-2.7 57.528 3.7a2.5 2.5 0 1 1 -3.146 3.886c-6.19-5.01-34.479-9.508-52.672-2.887-8.7 3.166-13.806 8.345-15.178 15.394-1.17 6.017 1.03 11.441 6.54 16.12 16.372 13.9 59.472 18.281 85.4 8.673 7.278-2.7 16.239-7.71 17.6-16.278 1.068-6.748-.372-12.243-4.4-16.8-12.974-14.666-47.835-13.628-48.187-13.617a2.5 2.5 0 0 1 -.175-5c1.524-.055 37.561-1.131 52.1 15.295 5.013 5.663 6.9 12.694 5.6 20.9-1.374 8.673-8.566 15.652-20.8 20.185-10.084 3.743-22.414 5.501-34.874 5.501z" fill="#000000"/><path d="m1440.067 621.474s60.751-2.144 55.134 33.295-122.067 29.685-114.455-9.377c5.5-28.324 62.037-21.933 71.878-13.974" fill="#ffaac3"/><path d="m1441.984 680.852c-21.869 0-44.147-5.416-55.487-15.049-6.891-5.854-9.727-13.077-8.205-20.889 1.7-8.761 8.049-15.378 18.354-19.133 19.456-7.089 49.631-2.712 57.551 3.693a2.5 2.5 0 0 1 -3.145 3.888c-6.2-5.013-34.5-9.511-52.694-2.883-8.689 3.166-13.789 8.344-15.158 15.39-1.173 6.019 1.026 11.443 6.534 16.123 16.367 13.9 59.463 18.282 85.4 8.673 7.281-2.7 16.245-7.714 17.6-16.286 1.07-6.749-.368-12.243-4.4-16.8-12.99-14.679-47.828-13.624-48.179-13.612a2.5 2.5 0 1 1 -.176-5c1.529-.054 37.564-1.13 52.1 15.295 5.01 5.662 6.892 12.69 5.592 20.891-1.373 8.675-8.566 15.658-20.8 20.192-10.097 3.748-22.426 5.507-34.887 5.507z" fill="#000000"/><path d="m1452.193 569.92s58.123 8.809 52.517 44.254-122.065 29.681-114.465-9.383c5.841-25.621 41.526-19.409 44.041-20.381z" fill="#ffaac3"/><path d="m1451.5 640.256c-21.867 0-44.148-5.416-55.493-15.049-6.894-5.854-9.734-13.078-8.214-20.893 1.707-8.764 8.059-15.381 18.372-19.135 19.455-7.083 49.62-2.707 57.533 3.7a2.5 2.5 0 0 1 -3.145 3.887c-6.192-5.01-34.484-9.507-52.678-2.884-8.7 3.166-13.8 8.345-15.173 15.393-1.172 6.019 1.029 11.445 6.542 16.126 16.376 13.905 59.477 18.282 85.4 8.671 7.279-2.7 16.239-7.712 17.6-16.283 1.178-9.015-1.545-17.19-8.1-24.232-10.722-11.513-29.145-16.891-38.335-16.349a2.5 2.5 0 0 1 -.3-4.991c9.773-.579 29.983 4.72 42.288 17.932 7.517 8.07 10.765 17.875 9.394 28.355-1.382 8.741-8.573 15.723-20.805 20.257-10.094 3.739-22.424 5.495-34.886 5.495z" fill="#000000"/><path d="m510.442 334.809 8.585 75.395s60.9 30.932 89-18.339l-6.492-69.942" fill="#ffaac3"/><path d="m439.656 538.7 73.162 323.962a4.1 4.1 0 0 0 4.765 3.275l224.492-50.814a4.1 4.1 0 0 0 2.892-5.006l-73.161-323.958a4.088 4.088 0 0 0 -4.759-3.273l-224.501 50.814a4.093 4.093 0 0 0 -2.89 5z" fill="#6f5490"/><path d="m516.847 868.508a6.617 6.617 0 0 1 -6.486-5.381l-73.135-323.833a6.608 6.608 0 0 1 4.669-8.007l.1-.025 224.5-50.814c.032-.008.066-.014.1-.021a6.6 6.6 0 0 1 7.67 5.275l73.14 323.868a6.585 6.585 0 0 1 -4.679 7.971l-.1.025-224.492 50.813c-.033.008-.068.015-.1.021a6.562 6.562 0 0 1 -1.187.108zm-73.687-332.383a1.6 1.6 0 0 0 -1.088 1.938c.008.03.015.06.022.091l73.163 323.961a1.63 1.63 0 0 0 1.836 1.373l224.369-50.788a1.6 1.6 0 0 0 1.088-1.94l-73.182-324.05a1.62 1.62 0 0 0 -1.83-1.372z" fill="#000000"/><path d="m407.93 549.817 70.357 315.717a12.151 12.151 0 0 0 14.5 9.222l24.743-5.509a12.15 12.15 0 0 0 9.2-14.506l-70.353-315.722a12.155 12.155 0 0 0 -14.5-9.223l-24.739 5.518a12.15 12.15 0 0 0 -9.208 14.503z" fill="#6f5490"/><path d="m490.118 877.551a14.659 14.659 0 0 1 -14.271-11.474l-70.357-315.716a14.668 14.668 0 0 1 11.11-17.487l24.74-5.518a14.672 14.672 0 0 1 17.482 11.119l70.349 315.725a14.669 14.669 0 0 1 -11.1 17.49l-24.743 5.51a14.794 14.794 0 0 1 -3.21.351zm-45.605-345.545a9.626 9.626 0 0 0 -2.092.231l-24.737 5.517a9.661 9.661 0 0 0 -7.314 11.519l70.357 315.717a9.662 9.662 0 0 0 11.515 7.326l24.742-5.508a9.663 9.663 0 0 0 7.308-11.521l-70.355-315.724a9.675 9.675 0 0 0 -9.424-7.557z" fill="#000000"/><path d="m761.667 676.148s19.136.425 27.25 19.183c7.969 18.42-11.1 28.718-14.116 31.554 0 0 30.251 21.191.484 47.029 0 0 7.874 43.948-73.907 59.179s-119.278 25.607-156.866-6 21.921-122.2 116.075-155.075c69.426-24.247 92.349-12.196 101.08 4.13z" fill="#ffaac3"/><path d="m698.307 710.335q-.921 0-1.83-.02a2.5 2.5 0 1 1 .112-5c.6.014 1.207.021 1.811.021 24.7 0 51.26-11.089 58.991-21.39 1.9-2.533 2.539-4.853 1.9-6.894a2.5 2.5 0 1 1 4.768-1.5c.8 2.521.978 6.544-2.665 11.4-9.524 12.681-38.626 23.383-63.087 23.383z" fill="#000000"/><path d="m722.131 745.712a2.5 2.5 0 0 1 -.322-4.979c37.709-4.953 50.6-15.355 50.727-15.46a2.5 2.5 0 0 1 3.224 3.823c-.548.463-13.849 11.413-53.3 16.6a2.607 2.607 0 0 1 -.329.016z" fill="#000000"/><path d="m724.918 794.2a2.5 2.5 0 0 1 -.332-4.977c22.064-2.984 48.934-17.036 49.2-17.177a2.5 2.5 0 1 1 2.33 4.423c-1.129.6-27.911 14.605-50.863 17.709a2.591 2.591 0 0 1 -.335.022z" fill="#000000"/><path d="m602.931 850.218c-23.188 0-41.545-5.67-60.028-21.214-10.414-8.755-14.334-22.016-11.335-38.349 7.35-40.039 57.311-96.245 128.2-121 56.416-19.7 90.278-18.366 103.429 4.1 4.906.51 20.616 3.469 28.02 20.585 7.444 17.208-6.407 28.146-12.382 32.592 4.059 3.591 11.472 11.563 12.028 22.269.462 8.893-3.892 17.543-12.943 25.726.277 3.577.2 13.263-6.81 24.215-11.341 17.712-34.647 29.962-69.269 36.411q-9.541 1.774-18.296 3.447c-33.607 6.369-59.175 11.217-80.614 11.218zm121.369-189.474c-15.976 0-36.875 4.546-62.893 13.632-69.165 24.154-117.832 78.548-124.926 117.182-2.654 14.462.677 26.087 9.636 33.619 17.37 14.608 34.9 19.975 57.14 19.976 20.98 0 46.149-4.773 79.353-11.068q8.772-1.664 18.307-3.45c41.083-7.65 58.437-22.635 65.766-33.864 7.81-11.963 6.158-22.323 6.14-22.426a2.517 2.517 0 0 1 .824-2.319c8.49-7.37 12.6-14.953 12.219-22.538-.606-12.035-12.384-20.474-12.5-20.557a2.5 2.5 0 0 1 -.275-3.867 27.182 27.182 0 0 1 2.236-1.759c5.646-4.182 17.4-12.885 11.3-26.982-7.393-17.089-24.836-17.672-25.011-17.676a2.5 2.5 0 0 1 -2.149-1.32c-5.918-11.057-17.55-16.583-35.167-16.583z" fill="#000000"/><path d="m559.45 422.288q-3.269 0-6.67-.286a104.2 104.2 0 0 1 -34.885-9.569 2.5 2.5 0 0 1 -1.352-1.946l-8.585-75.4a2.5 2.5 0 0 1 4.968-.566l8.428 74.015a101.63 101.63 0 0 0 31.983 8.49c23.458 1.93 41-6.725 52.124-25.728l-6.418-69.149a2.5 2.5 0 1 1 4.978-.462l6.492 69.942a2.5 2.5 0 0 1 -.317 1.469c-10.94 19.188-28.396 29.19-50.746 29.19z" fill="#000000"/><path d="m585.408 137.938a2.5 2.5 0 0 1 -2.344-3.369 93.877 93.877 0 0 0 5.963-29.758 2.5 2.5 0 0 1 5-.042 97.06 97.06 0 0 1 -6.274 31.536 2.5 2.5 0 0 1 -2.345 1.633z" fill="#000000"/><path d="m497.969 325.776s35.188 41.76 99.867 30.208c60.246-10.76 87.109-58.753 78.087-111.143 0 0 30.657-28.044 21.525-44.187s-32.238 13.663-32.238 13.663-17.327-72.03-78.474-82.623c0 0-47.592 122.323-111.3 119.077 0 0-22.908-22.231-62.894-6.444s-37.99 77.956-2.043 95.526c53.562 26.188 87.47-14.077 87.47-14.077z" fill="#ffaac3"/><path d="m485.566 307.539a2.5 2.5 0 0 1 -2.058-1.078c-.243-.348-19.8-27.681-69.394-36.817a2.5 2.5 0 0 1 .907-4.917c51.836 9.549 71.777 37.7 72.6 38.892a2.5 2.5 0 0 1 -2.056 3.92z" fill="#000000"/><path d="m449.826 310.516a2.5 2.5 0 0 1 -2.5-2.473c-.155-14.242 17.727-21.965 18.489-22.286a2.5 2.5 0 0 1 1.949 4.6c-.191.082-15.556 6.757-15.438 17.628a2.5 2.5 0 0 1 -2.472 2.527z" fill="#000000"/><path d="m666.216 294.823c-8.856 0-23.342-2.977-32.855-20.244a2.5 2.5 0 1 1 4.379-2.413c12.508 22.7 34.011 17.251 34.921 17.008a2.5 2.5 0 0 1 1.311 4.826 33.23 33.23 0 0 1 -7.756.823z" fill="#000000"/><path d="m624.031 210.939a5.965 5.965 0 1 1 7.1 4.575 5.972 5.972 0 0 1 -7.1-4.575z" fill="#000000"/><path d="m540.981 300.552a36.2 36.2 0 1 1 43.019 27.764 36.206 36.206 0 0 1 -43.019-27.764z" fill="#ff6996"/><path d="m575.746 360.482a112.786 112.786 0 0 1 -53.274-13.064 101.491 101.491 0 0 1 -24.511-17.971 76.662 76.662 0 0 1 -22.62 15.47c-14.331 6.416-37.4 11.135-65.943-2.818-18.414-9-29.722-29.868-28.806-53.16.867-22.062 12.468-39.608 31.03-46.937 37.534-14.819 60.445 2.526 64.818 6.308 60.783 1.952 107.5-116.322 107.966-117.522a2.5 2.5 0 0 1 2.757-1.557c25.726 4.457 47.81 20.512 63.865 46.43a149.59 149.59 0 0 1 15.291 33.416c5.188-5.894 15.7-16.326 24.546-15.687 2.54.183 6.122 1.378 8.758 6.032 9.109 16.1-15.562 41.1-21.015 46.325 4.251 26.419-.584 51.816-13.666 71.653-14.25 21.607-37.3 35.8-66.667 41.045a127.986 127.986 0 0 1 -22.529 2.037zm-75.865-36.317c.162.191 8.883 10.327 25.141 18.946 15.022 7.964 39.77 16.235 72.374 10.412 54.957-9.815 85.524-53.321 76.063-108.258a2.5 2.5 0 0 1 .776-2.268c8.117-7.431 27.717-29.3 21.037-41.112-1.675-2.957-3.522-3.418-4.764-3.508-7.582-.548-19.408 12.426-23.323 17.471a2.5 2.5 0 0 1 -4.406-.946 141.4 141.4 0 0 0 -16.079-36.731c-15.074-24.274-34.719-38.949-58.413-43.646a375.389 375.389 0 0 1 -31.224 59.3c-26 39.5-52.595 59.51-79.079 59.512-.894 0-1.784-.023-2.678-.069a2.5 2.5 0 0 1 -1.614-.7c-.89-.855-22.342-20.873-60.235-5.912-16.664 6.579-27.083 22.46-27.87 42.482-.838 21.314 9.37 40.34 26.006 48.472 51.22 25.041 84.136-13.053 84.463-13.441a2.584 2.584 0 0 1 3.824 0z" fill="#000000"/><path d="m158.67 1756.172s-121.922 41.328-156.17 183.933l378.383 321.488s146.713-18.051 80.238-201.464c-41.877-115.541-176.033-122.3-217.71-150.841-22.248-15.237-81.729-117.533-84.741-153.116z" fill="#fff"/><path d="m19.4 1890.474s-13.573 22.239-16.9 49.631l378.383 321.488s25.4-4.078 51.867-22.312z" fill="#ff6996"/><path d="m281.888 2177.168a2.5 2.5 0 0 1 -1.909-4.113l30.761-36.455a2.5 2.5 0 1 1 3.821 3.224l-30.761 36.456a2.5 2.5 0 0 1 -1.912.888z" fill="#000000"/><path d="m335.864 2222.436a2.5 2.5 0 0 1 -1.909-4.113l30.761-36.453a2.5 2.5 0 0 1 3.822 3.224l-30.762 36.454a2.5 2.5 0 0 1 -1.912.888z" fill="#000000"/><path d="m380.883 2264.093a2.5 2.5 0 0 1 -1.618-.595l-378.384-321.488a2.5 2.5 0 0 1 -.812-2.489c17.855-74.349 59.768-120.87 91.785-146.8 34.71-28.115 64.751-38.484 66.014-38.912a2.5 2.5 0 0 1 3.293 2.157c2.9 34.3 61.8 136.293 83.662 151.263 11.154 7.64 29.521 13.82 50.788 20.975 57.846 19.463 137.068 46.118 167.861 131.077 23.09 63.709 23.29 114.768.594 151.758-28.109 45.813-80.654 52.765-82.878 53.039a2.39 2.39 0 0 1 -.305.015zm-375.59-324.893 376.343 319.753c7.555-1.236 53.516-10.3 78.2-50.581 21.83-35.624 21.472-85.213-1.063-147.389-29.972-82.693-107.873-108.9-164.754-128.042-21.621-7.274-40.292-13.557-52.019-21.588-22.4-15.345-79.384-113-85.422-151.719-8.376 3.313-33.8 14.435-61.736 37.1-31.142 25.266-71.842 70.437-89.549 142.466z" fill="#000000"/><path d="m432.749 2241.781a2.488 2.488 0 0 1 -1.611-.589l-413.352-348.807a2.5 2.5 0 0 1 3.225-3.822l413.351 348.807a2.5 2.5 0 0 1 -1.613 4.411z" fill="#000000"/><path d="m266.9 2164.243a2.5 2.5 0 0 1 -1.909-4.113l30.761-36.453a2.5 2.5 0 1 1 3.821 3.224l-30.761 36.454a2.5 2.5 0 0 1 -1.912.888z" fill="#000000"/><path d="m364.1 2032.068a2.5 2.5 0 0 1 -1.72-4.315c25.033-23.7 81.577-1.976 83.972-1.04a2.5 2.5 0 0 1 -1.821 4.657c-.557-.218-55.979-21.514-78.713.013a2.492 2.492 0 0 1 -1.718.685z" fill="#000000"/><path d="m381.623 2072.559a2.5 2.5 0 0 1 -1.72-4.315c25.033-23.7 81.576-1.977 83.972-1.04a2.5 2.5 0 0 1 -1.821 4.656c-.557-.217-55.979-21.513-78.713.014a2.492 2.492 0 0 1 -1.718.685z" fill="#000000"/><path d="m393.032 2116.085a2.5 2.5 0 0 1 -1.719-4.315c25.033-23.7 81.576-1.976 83.971-1.04a2.5 2.5 0 0 1 -1.821 4.657c-.556-.217-55.978-21.513-78.713.014a2.494 2.494 0 0 1 -1.718.684z" fill="#000000"/><path d="m93.223 2017.683a2.5 2.5 0 0 1 -1.909-4.113l30.761-36.453a2.5 2.5 0 0 1 3.821 3.225l-30.761 36.458a2.493 2.493 0 0 1 -1.912.883z" fill="#000000"/><path d="m155.034 2072.559a2.5 2.5 0 0 1 -1.909-4.112l30.761-36.454a2.5 2.5 0 0 1 3.822 3.225l-30.762 36.453a2.493 2.493 0 0 1 -1.912.888z" fill="#000000"/><path d="m43.891 1976.034a2.5 2.5 0 0 1 -1.909-4.113l30.761-36.453a2.5 2.5 0 0 1 3.821 3.224l-30.764 36.454a2.493 2.493 0 0 1 -1.909.888z" fill="#000000"/><path d="m16.066 1952.978a2.5 2.5 0 0 1 -1.909-4.112l30.761-36.454a2.5 2.5 0 0 1 3.821 3.225l-30.761 36.453a2.5 2.5 0 0 1 -1.912.888z" fill="#000000"/><path d="m170.415 2082.821a2.5 2.5 0 0 1 -1.91-4.112l30.762-36.454a2.5 2.5 0 0 1 3.821 3.225l-30.761 36.453a2.5 2.5 0 0 1 -1.912.888z" fill="#000000"/><path d="m228.308 2131.674a2.5 2.5 0 0 1 -1.91-4.112l30.762-36.454a2.5 2.5 0 0 1 3.821 3.225l-30.761 36.453a2.5 2.5 0 0 1 -1.912.888z" fill="#000000"/><path d="m363.392 2245.665a2.5 2.5 0 0 1 -1.91-4.112l30.762-36.454a2.5 2.5 0 0 1 3.821 3.225l-30.765 36.453a2.5 2.5 0 0 1 -1.908.888z" fill="#000000"/><path d="m271.752 890.74c13.857 14.027 90.712 44.574 157.477 19.623 34.671-16.153 109.505-4.563 147.141-5.263 59.46-1.119 89.965-35.983 93.557-73.637 3.171-33.245-27.063-59.408-27.063-59.408-3.98-7.32-1.754-43.211-15.1-56.49-45-42.768-112.785-9.578-145.515 1.4s-70.646-8.8-135.243 18.243c-77.243 32.332-112.529 126.144-75.254 155.532z" fill="#92acef"/><path d="m368.665 921.72c-34.53 0-66.319-9.519-98.208-28.842a2.5 2.5 0 1 1 2.591-4.276c51.287 31.076 102.4 36.118 165.724 16.345 24.317-7.592 59.677-5.357 90.872-3.385 18 1.137 34.992 2.212 46.474 1.046 70.931-7.2 88.81-42.786 91.319-71.368 2.878-32.8-25.875-57.022-26.166-57.263a2.519 2.519 0 0 1 -.6-.732c-1.53-2.815-1.526-7.135-1.521-13.114.012-12.306.027-29.161-13.181-42.834-31.643-31.474-87.893-21.511-126.436-3.406-17.744 8.335-41.246 9.032-66.127 9.771-37.689 1.118-80.406 2.385-111.779 31.173a2.5 2.5 0 0 1 -3.381-3.684c32.744-30.046 76.45-31.343 115.011-32.487 24.349-.723 47.346-1.4 64.15-9.3 40.006-18.792 98.613-28.91 132.123 4.423 14.649 15.164 14.632 33.93 14.62 46.348 0 4.34-.008 8.454.746 10.356 3.913 3.376 30.47 27.62 27.524 61.185-2.673 30.461-21.463 68.357-95.794 75.9-11.892 1.208-29.087.121-47.294-1.03-30.763-1.945-65.632-4.149-89.066 3.168-25.539 7.979-49.152 12.005-71.601 12.006z" fill="#000000"/><path d="m646.33 807.425a2.5 2.5 0 0 1 -2.284-1.481c-1.768-3.957-4.274-18.627-4.379-35.879a2.5 2.5 0 0 1 2.485-2.515h.016a2.5 2.5 0 0 1 2.5 2.484c.108 17.724 2.664 31.006 3.944 33.87a2.5 2.5 0 0 1 -2.281 3.521z" fill="#000000"/><path d="m271.6 890.646s-12.179-11.476-14.77-19.771" fill="#92acef"/><path d="m271.594 893.145a2.491 2.491 0 0 1 -1.714-.68c-.517-.487-12.687-12.026-15.442-20.844a2.5 2.5 0 1 1 4.773-1.491c2.365 7.569 13.981 18.586 14.1 18.7a2.5 2.5 0 0 1 -1.716 4.318z" fill="#000000"/><path d="m284.548 211.13a82.77 82.77 0 1 1 38.874-110.406 82.765 82.765 0 0 1 -38.874 110.406z" fill="#ff6996"/><path d="m249.234 183.881c-25.8 0-55.819-8.528-81.487-38.609a2.5 2.5 0 0 1 .926-3.925c.823-.349 20.494-8.573 50.256-11.095 27.465-2.327 68.936.061 110.512 24.659a2.5 2.5 0 0 1 .123 4.225 166.763 166.763 0 0 1 -55.759 22.286 127.858 127.858 0 0 1 -24.571 2.459zm-75.334-39.171c26 28.85 59.215 39.561 98.785 31.836a167.114 167.114 0 0 0 50.6-19.408c-39.152-21.942-77.855-24.089-103.756-21.919a186.508 186.508 0 0 0 -45.629 9.491z" fill="#000000"/><path d="m327.779 157.877a2.5 2.5 0 0 1 -2.3-1.527c-.205-.485-20.993-48.661-62.995-63.93-22.566-8.2-47.305-5.553-73.53 7.877a2.5 2.5 0 1 1 -2.279-4.45c27.524-14.095 53.614-16.826 77.548-8.114 44.063 16.037 64.993 64.612 65.862 66.672a2.5 2.5 0 0 1 -2.3 3.472z" fill="#000000"/><path d="m248.913 221.752a85.258 85.258 0 1 1 36.715-8.367 85.372 85.372 0 0 1 -36.715 8.367zm-.2-165.575a80.287 80.287 0 1 0 34.752 152.7 80.32 80.32 0 0 0 -34.752-152.7z" fill="#000000"/><path d="m1286.046 611.381c-1-29.781 43.368-58.323 88.439-65.111s73.005-36.822 89.206-23.344c38.051 31.655-40.682 74.459-79.931 88.455-6.156 20.622-28.606 43.94-43.09 49.163" fill="#ffaac3"/><path d="m1340.67 663.044a2.5 2.5 0 0 1 -.848-4.852c13.869-5 33.319-27.315 41.622-47.752a2.5 2.5 0 0 1 1.384-1.378c39.5-15.874 84.005-43.141 88.4-65.5 1.165-5.929-.628-11.1-5.482-15.812-10.468-10.16-23.1-4.447-42.221 4.2-12.945 5.856-29.055 13.144-48.584 16.774-24.612 4.575-82.251 15.289-86.4 62.871a2.5 2.5 0 1 1 -4.981-.435c4.485-51.368 64.742-62.569 90.472-67.352 18.934-3.52 34.076-10.37 47.437-16.414 19.473-8.808 34.853-15.766 47.764-3.235 6.079 5.9 8.4 12.751 6.9 20.365-5.407 27.5-58.93 55.964-90.465 68.778-9.106 21.62-29.13 44.173-44.151 49.589a2.494 2.494 0 0 1 -.847.153z" fill="#000000"/></svg></g></svg>