<svg enable-background="new 0 0 1700 1700" height="1700" viewBox="0 0 1700 1700" width="1700" xmlns="http://www.w3.org/2000/svg" xmlns:xlink="http://www.w3.org/1999/xlink"><clipPath id="a"><path d="m1574.986 731.019h-366.955c-12.943 0-23.436-10.493-23.436-23.436v-298.724c0-12.943 10.493-23.436 23.436-23.436h366.955c12.943 0 23.436 10.493 23.436 23.436v298.723c0 12.944-10.493 23.437-23.436 23.437z"/></clipPath><clipPath id="b"><path d="m1025.795 500.157h-366.955c-12.943 0-23.436-10.493-23.436-23.436v-298.724c0-12.943 10.493-23.436 23.436-23.436h366.955c12.943 0 23.436 10.493 23.436 23.436v298.723c0 12.944-10.492 23.437-23.436 23.437z"/></clipPath><path d="m563.637 1578.962-147.006-348.161h36l127.405 348.161z" fill="#25242e"/><path d="m206.089 1578.962 147.005-348.161h-35.999l-127.405 348.161z" fill="#25242e"/><path d="m743.836 1578.962-137.205-348.161h36l117.604 348.161z" fill="#25242e"/><path d="m267.469 860.655h159c22.798 0 50.91 18.385 55.532 66.638s13.991 127.633 19.323 167.801c8.648 65.16 27.149 119.855 106.138 116.48 32.906-1.406 6.213 14.234-26.723 14.234 0 0-252.298-1.532-273-4.596s-69.724-55.915-73.936-94.213c-4.213-38.298-34.333-215.025-16.716-241.833 17.616-26.809 50.382-24.511 50.382-24.511z" fill="#f0e760"/><path d="m267.469 860.655c-21.043 0-49.09 18.385-44.468 66.638s13.991 127.633 19.323 167.8c8.648 65.161 23.138 120.501 105.138 116.48 29.208-1.432 279.242-.321 334.945-.054 6.069.029 10.97 4.957 10.97 11.027 0 6.09-4.937 11.027-11.027 11.027h-354.888c-66.084 0-97.489-51.319-106.138-116.48-5.331-40.167-15.042-141.548-19.664-189.8s26.15-66.638 44.468-66.638z" fill="#f0e760"/><path d="m339.301 1213.278c-76.308.003-90.204-55.755-98.464-117.987-5.525-41.626-14.822-120.8-19.329-167.855-2.743-28.639 6.07-44.981 13.946-53.648 8.451-9.3 20.121-14.633 32.016-14.633.828 0 1.5.671 1.5 1.5s-.672 1.5-1.5 1.5c-11.051 0-21.911 4.976-29.795 13.651-7.469 8.218-15.818 23.797-13.179 51.344 4.504 47.023 13.795 126.146 19.316 167.747 4.714 35.519 10.737 63.315 24.806 83.523 16.091 23.111 41.856 33.46 78.771 31.656 20.868-1.024 151.73-.773 257.835-.382.828.003 1.498.677 1.495 1.505-.003.827-.674 1.495-1.5 1.495-.002 0-.004 0-.006 0-86.834-.32-235.777-.696-257.677.378-2.821.138-5.57.206-8.235.206z" fill="#25242e"/><path d="m1601.677 966.551h-420.338c-15.335 0-27.766-12.431-27.766-27.766v-559.149c0-15.335 12.431-27.766 27.766-27.766h420.338c15.335 0 27.766 12.431 27.766 27.766v559.149c0 15.335-12.431 27.766-27.766 27.766z" fill="#fff"/><path d="m1574.985 731.019c-107.11-34.658-230.714-32.131-366.955 0-12.943 0-23.436-10.493-23.436-23.436v-298.724c0-12.943 10.493-23.436 23.436-23.436h366.955c12.943 0 23.436 10.493 23.436 23.436v298.723c.001 12.944-10.492 23.437-23.436 23.437z" fill="#bbddfa"/><g clip-path="url(#a)" fill="#fff"><path d="m1319.129 543.774c-3.103-41.371 14.738-72.399 59.471-72.399 46.284 0 66.972 31.618 67.229 72.399 10.342-13.963 27.414-2.844 27.408 11.894-.004 10.905-11.648 22.176-29.477 15.773-12.928 41.888-49.399 49.886-83.259 47.142-39.303-3.185-65.677-44.297-41.372-74.809z"/><path d="m1598.422 772.764h-413.827c0-62.714 40.637-98.309 113.553-113.553 51.599-10.787 133.301-13.34 186.721 0 64.063 15.998 113.553 50.839 113.553 113.553z"/></g><path d="m1511.188 792.519h-306.593c-.828 0-1.5-.671-1.5-1.5s.672-1.5 1.5-1.5h306.593c.828 0 1.5.671 1.5 1.5s-.672 1.5-1.5 1.5z" fill="#25242e"/><path d="m1511.188 842.519h-306.593c-.828 0-1.5-.671-1.5-1.5s.672-1.5 1.5-1.5h306.593c.828 0 1.5.671 1.5 1.5s-.672 1.5-1.5 1.5z" fill="#25242e"/><path d="m1511.188 892.519h-306.593c-.828 0-1.5-.671-1.5-1.5s.672-1.5 1.5-1.5h306.593c.828 0 1.5.671 1.5 1.5s-.672 1.5-1.5 1.5z" fill="#25242e"/><path d="m1562.422 803.881c-7.092 0-12.862-5.77-12.862-12.862s5.77-12.862 12.862-12.862 12.862 5.77 12.862 12.862-5.77 12.862-12.862 12.862zm0-22.724c-5.438 0-9.862 4.424-9.862 9.862s4.424 9.862 9.862 9.862 9.862-4.424 9.862-9.862-4.425-9.862-9.862-9.862z" fill="#25242e"/><path d="m1562.422 853.881c-7.092 0-12.862-5.77-12.862-12.862s5.77-12.862 12.862-12.862 12.862 5.77 12.862 12.862-5.77 12.862-12.862 12.862zm0-22.724c-5.438 0-9.862 4.424-9.862 9.862s4.424 9.862 9.862 9.862 9.862-4.424 9.862-9.862-4.425-9.862-9.862-9.862z" fill="#25242e"/><path d="m1562.422 903.881c-7.092 0-12.862-5.77-12.862-12.862s5.77-12.862 12.862-12.862 12.862 5.77 12.862 12.862-5.77 12.862-12.862 12.862zm0-22.724c-5.438 0-9.862 4.424-9.862 9.862s4.424 9.862 9.862 9.862 9.862-4.424 9.862-9.862-4.425-9.862-9.862-9.862z" fill="#25242e"/><path d="m1601.677 968.051h-420.338c-16.137 0-29.266-13.128-29.266-29.266v-559.149c0-16.137 13.129-29.266 29.266-29.266h420.338c16.137 0 29.266 13.129 29.266 29.266v559.149c0 16.137-13.129 29.266-29.266 29.266zm-420.338-614.681c-14.483 0-26.266 11.783-26.266 26.266v559.149c0 14.483 11.783 26.266 26.266 26.266h420.338c14.483 0 26.266-11.783 26.266-26.266v-559.149c0-14.483-11.783-26.266-26.266-26.266z" fill="#25242e"/><path d="m1052.487 735.689h-420.338c-15.335 0-27.766-12.431-27.766-27.766v-559.149c0-15.335 12.431-27.766 27.766-27.766h420.338c15.335 0 27.766 12.431 27.766 27.766v559.149c-0 15.335-12.432 27.766-27.766 27.766z" fill="#fff"/><path d="m1025.795 500.157c-125.884-12.333-248.77-14.297-366.955 0-12.944 0-23.436-10.493-23.436-23.436v-298.724c0-12.943 10.493-23.436 23.436-23.436h366.955c12.943 0 23.436 10.493 23.436 23.436v298.723c0 12.944-10.492 23.437-23.436 23.437z" fill="#bbddfa"/><g clip-path="url(#b)" fill="#fff"><path d="m769.939 312.912c-3.103-41.371 14.738-72.399 59.471-72.399 46.284 0 66.972 31.618 67.229 72.399 10.342-13.962 27.414-2.844 27.408 11.894-.004 10.905-11.648 22.176-29.477 15.773-12.928 41.888-49.399 49.886-83.259 47.142-39.304-3.185-65.678-44.297-41.372-74.809z"/><path d="m1049.231 541.901h-413.827c0-62.714 40.637-98.309 113.553-113.553 51.599-10.787 133.301-13.34 186.721 0 64.063 15.999 113.553 50.84 113.553 113.553z"/></g><path d="m961.997 561.657h-306.593c-.828 0-1.5-.671-1.5-1.5s.672-1.5 1.5-1.5h306.593c.828 0 1.5.671 1.5 1.5s-.671 1.5-1.5 1.5z" fill="#25242e"/><path d="m961.997 611.657h-306.593c-.828 0-1.5-.671-1.5-1.5s.672-1.5 1.5-1.5h306.593c.828 0 1.5.671 1.5 1.5s-.671 1.5-1.5 1.5z" fill="#25242e"/><path d="m961.997 661.657h-306.593c-.828 0-1.5-.671-1.5-1.5s.672-1.5 1.5-1.5h306.593c.828 0 1.5.671 1.5 1.5s-.671 1.5-1.5 1.5z" fill="#25242e"/><path d="m1013.231 573.019c-7.092 0-12.862-5.77-12.862-12.862s5.77-12.862 12.862-12.862 12.862 5.77 12.862 12.862-5.77 12.862-12.862 12.862zm0-22.724c-5.438 0-9.862 4.424-9.862 9.862s4.424 9.862 9.862 9.862 9.862-4.424 9.862-9.862-4.424-9.862-9.862-9.862z" fill="#25242e"/><path d="m1013.231 623.019c-7.092 0-12.862-5.77-12.862-12.862s5.77-12.862 12.862-12.862 12.862 5.77 12.862 12.862-5.77 12.862-12.862 12.862zm0-22.724c-5.438 0-9.862 4.424-9.862 9.862s4.424 9.862 9.862 9.862 9.862-4.424 9.862-9.862-4.424-9.862-9.862-9.862z" fill="#25242e"/><path d="m1013.231 673.019c-7.092 0-12.862-5.77-12.862-12.862s5.77-12.862 12.862-12.862 12.862 5.77 12.862 12.862-5.77 12.862-12.862 12.862zm0-22.724c-5.438 0-9.862 4.424-9.862 9.862s4.424 9.862 9.862 9.862 9.862-4.424 9.862-9.862-4.424-9.862-9.862-9.862z" fill="#25242e"/><path d="m1052.487 737.189h-420.338c-16.137 0-29.266-13.129-29.266-29.266v-559.149c0-16.137 13.129-29.266 29.266-29.266h420.338c16.137 0 29.266 13.129 29.266 29.266v559.149c-.001 16.137-13.129 29.266-29.266 29.266zm-420.338-614.681c-14.483 0-26.266 11.783-26.266 26.266v559.149c0 14.483 11.783 26.266 26.266 26.266h420.338c14.483 0 26.266-11.783 26.266-26.266v-559.149c0-14.483-11.783-26.266-26.266-26.266z" fill="#25242e"/><path d="m1327.082 861.12h-420.338c-15.335 0-27.766-12.431-27.766-27.766v-559.149c0-15.335 12.431-27.766 27.766-27.766h420.338c15.335 0 27.766 12.431 27.766 27.766v559.149c-0 15.335-12.431 27.766-27.766 27.766z" fill="#fff"/><path d="m1323.826 574.798c-142.22 22.338-280.28 5.97-413.827-52.386v-218.983c0-12.943 10.493-23.436 23.436-23.436h366.955c12.943 0 23.436 10.493 23.436 23.436z" fill="#bbddfa"/><path d="m910 522.411v78.076l32.421-9.111s.806-48.586-2.616-70.875c-3.105-20.225-24.049-24.163-29.805 1.91z" fill="#eda189"/><path d="m1323.826 602.152v-27.354c-15.416-21.769-46.502-49.707-120.92-57.294-38.632-3.939-104.59-6.208-148.699.481-41.817 6.342-78.476 20.987-117.942 48.634-5.613 3.932-14.998 10.865-26.265 19.396v16.137c0 12.944 10.493 23.437 23.436 23.437h366.955c12.943-.001 23.435-10.494 23.435-23.437z" fill="#f05467"/><path d="m1178.372 516.114c2.447 14.171-3.281 30.279-12.359 41.352-19.647 23.963-57.935 28.573-81.044 10.621-12.548-9.748-21.699-27.488-11.63-48.65 5.689-10.368 19.748-11.209 22.429-5.289-11.94 9.242-13.226 31.559 1.116 41.25 16.332 11.036 44.461 7.808 55.47-8.542 6.032-8.959 10.421-20.428 7.541-33.378 5.308-5.287 16.863-2.685 18.477 2.636z" fill="#f05467"/><path d="m1118.739 580.509c-12.971 0-25.289-3.934-34.69-11.237-12.736-9.894-22.593-28.35-12.064-50.479 3.893-7.101 11.251-10.037 16.847-9.815 3.977.152 7.081 1.854 8.303 4.551.287.633.101 1.38-.448 1.805-5.629 4.357-8.964 12.107-8.702 20.225.252 7.806 3.802 14.584 9.74 18.597 8.201 5.541 19.807 7.543 31.047 5.36 9.832-1.911 17.765-6.705 22.339-13.498 7.225-10.731 9.688-21.569 7.321-32.214-.112-.502.041-1.026.406-1.388 3.62-3.606 9.174-3.818 13.166-2.814 4.041 1.016 6.958 3.288 7.804 6.078.018.059.032.12.043.18 2.348 13.597-2.628 30.302-12.677 42.558-9.564 11.666-24.214 19.526-40.193 21.565-2.763.352-5.518.526-8.242.526zm-30.498-68.543c-4.602 0-10.458 2.49-13.586 8.193-9.726 20.446-.58 37.565 11.235 46.744 10.75 8.351 25.589 12.035 40.71 10.104 15.227-1.943 29.17-9.412 38.253-20.492 9.495-11.581 14.222-27.288 12.058-40.045-.566-1.688-2.765-3.236-5.64-3.958-2.84-.715-6.966-.702-9.729 1.505 2.237 11.199-.433 22.524-7.943 33.678-5.022 7.458-13.635 12.702-24.255 14.767-12.005 2.332-24.453.158-33.299-5.82-6.745-4.558-10.775-12.207-11.059-20.986-.275-8.544 3.069-16.763 8.797-21.812-1.017-1.103-2.823-1.783-5.067-1.869-.156-.006-.315-.009-.475-.009z" fill="#25242e"/><path d="m965.21 587.558s-.722-64.023-2.004-78.13c-3.173-34.917-35.948-31.58-35.454 5.988.221 16.788 1.349 80.473 1.349 80.473.086 15.428 35.521 3.409 36.109-8.331z" fill="#eda189"/><path d="m1021.299 564.485c-.96-17.83-95.566-1.789-111.3 21.571v16.096c0 12.944 10.493 23.437 23.436 23.437h96.265c-3.936-24.97-7.892-51.665-8.401-61.104z" fill="#eda189"/><path d="m929.1 587.677c-.814 0-1.482-.651-1.499-1.469-.011-.54-1.131-54.17-1.349-70.772-.057-4.351.323-8.43 1.129-12.125.177-.809.976-1.324 1.785-1.146.809.176 1.322.976 1.146 1.785-.758 3.472-1.115 7.323-1.06 11.446.218 16.591 1.337 70.209 1.349 70.749.017.828-.64 1.514-1.468 1.531-.012.001-.022.001-.033.001z" fill="#25242e"/><path d="m954.183 592.762s-1.666-73.067.434-90.259c4.505-36.891 31.617-23.895 34.484-2.568 2.709 20.15 2.854 81.653 2.854 81.653-.898 22.47-35.808 40.795-37.772 11.174z" fill="#eda189"/><path d="m954.048 587.677c-.812 0-1.48-.649-1.499-1.465-.063-2.719-1.509-66.787.579-83.89.555-4.549 1.478-8.561 2.742-11.923.292-.776 1.156-1.168 1.932-.876.775.292 1.168 1.156.876 1.932-1.181 3.14-2.046 6.918-2.573 11.23-2.062 16.889-.573 82.794-.558 83.458.019.828-.637 1.515-1.465 1.534-.011 0-.023 0-.034 0z" fill="#25242e"/><path d="m1023 603.646s-3.18-87.749-6.572-99.4c-6.58-22.601-29.64-20.028-34.344 4.47-2.622 13.659-3.741 77.462-3.741 77.462 1.274 30.809 40.898 41.519 44.657 17.468z" fill="#eda189"/><path d="m1022.999 605.146c-.803 0-1.469-.636-1.498-1.446-.016-.44-1.621-44.398-3.733-73.854-.059-.827.563-1.544 1.389-1.604.825-.059 1.544.562 1.604 1.389 2.116 29.509 3.723 73.519 3.739 73.96.03.828-.617 1.523-1.445 1.553-.019.002-.037.002-.056.002z" fill="#25242e"/><path d="m1018.272 570.853c-1.25 7.204-3.636 18.261-5.131 30.853-21.319.51-33.457 12.771-40.103 23.882h79.061c2.651-13.367 4.029-28.778 3.422-47.789-1.075-33.681-32.062-36.842-37.249-6.946z" fill="#eda189"/><path d="m978.344 587.677c-.009 0-.018 0-.027 0-.828-.015-1.488-.698-1.474-1.526.046-2.61 1.151-64.089 3.768-77.718 1.102-5.737 3.285-10.71 6.313-14.38.527-.639 1.473-.729 2.112-.203.639.527.73 1.473.202 2.112-2.71 3.284-4.674 7.792-5.681 13.037-2.568 13.377-3.703 76.569-3.714 77.206-.015.817-.683 1.472-1.499 1.472z" fill="#25242e"/><path d="m1052.109 627.09c-.097 0-.195-.01-.293-.029-.813-.161-1.341-.95-1.18-1.763 2.841-14.327 3.948-29.849 3.386-47.451-.548-17.176-8.812-25.426-16.759-25.983-9.677-.678-15.767 9.178-17.514 19.245-.324 1.868-.724 3.993-1.165 6.337-1.271 6.75-2.852 15.149-3.954 24.437-.088.741-.707 1.305-1.454 1.323-20.966.502-32.701 12.867-38.853 23.151-.425.71-1.346.943-2.057.517-.711-.425-.943-1.346-.517-2.057 6.412-10.718 18.537-23.563 40.057-24.564 1.104-8.879 2.609-16.876 3.83-23.361.438-2.328.836-4.44 1.158-6.295 1.977-11.396 9.14-22.529 20.679-21.725 9.292.651 18.94 9.833 19.548 28.88.569 17.833-.557 33.577-3.442 48.13-.142.714-.769 1.208-1.47 1.208z" fill="#25242e"/><path d="m1050.969 423.942c-6.98-22.535-7.19-43.462.998-59.842 7.441-14.885 94.099-35.264 133.039 29.093 7.552-17.281 28.311-9.662 31.882 5.932 2.642 11.537-6.94 26.287-27.356 23.84-3.511 47.452-40.153 64.765-76.64 70.079-42.352 6.168-80.231-30.925-61.923-69.102z" fill="#eda189"/><path d="m1206.339 407.363c-.247 0-.498-.062-.729-.19l-13.537-7.548c-.724-.403-.983-1.317-.58-2.041.403-.723 1.317-.983 2.041-.58l13.537 7.548c.724.403.983 1.317.58 2.041-.275.492-.786.77-1.312.77z" fill="#25242e"/><path d="m1196.218 409.685c-.253 0-.51-.064-.745-.2-.719-.412-.967-1.329-.554-2.047l7.611-13.264c.413-.718 1.329-.967 2.048-.554.719.412.967 1.329.554 2.047l-7.611 13.264c-.278.483-.783.754-1.303.754z" fill="#25242e"/><path d="m1115.907 441.099c-1.601-11.396-25.937-7.681-23.342 3.552-1.249 5.073 3.62 11.813 12.303 11.103 8.37-.685 15.238-9.182 11.039-14.655z" fill="#c26e63"/><g fill="#25242e"><path d="m1092.943 446.34c-2.605 0-5.201-.152-7.739-.479-.822-.106-1.402-.858-1.296-1.679.106-.822.857-1.405 1.679-1.296 16.18 2.083 35.791-3.481 42.515-9.849.602-.569 1.551-.543 2.12.058.57.602.544 1.551-.058 2.121-6.176 5.849-21.868 11.124-37.221 11.124z"/><path d="m1064.217 416.457c-.19 0-.382-.036-.569-.113-.766-.314-1.133-1.19-.818-1.957 2.824-6.883 7.031-9.273 10.063-10.067 4.697-1.229 10.242.324 15.215 4.26.65.514.759 1.458.245 2.107-.514.65-1.458.758-2.107.245-4.227-3.346-8.817-4.699-12.593-3.71-3.45.903-6.157 3.696-8.047 8.303-.238.58-.798.932-1.389.932z"/><path d="m1067.985 416.598c1.814 7.244 5.911 12.459 9.151 11.648s4.395-7.342 2.58-14.586c-.725-2.896-1.816-5.468-3.07-7.46-3.509-1.578-9.515 2.878-9.519 3.703-.01 2.039.266 4.329.858 6.695z"/><path d="m1116.546 405.13c-.19 0-.383-.036-.569-.113-.766-.314-1.133-1.19-.818-1.957 2.824-6.883 7.031-9.273 10.064-10.067 4.696-1.229 10.242.324 15.215 4.26.65.514.759 1.458.245 2.107-.514.65-1.458.759-2.107.245-4.227-3.346-8.817-4.699-12.594-3.71-3.45.903-6.157 3.696-8.048 8.303-.238.581-.798.932-1.388.932z"/><path d="m1120.314 405.272c1.814 7.244 5.911 12.459 9.151 11.648s4.395-7.342 2.58-14.586c-.725-2.896-1.816-5.468-3.07-7.46-3.509-1.578-9.515 2.878-9.519 3.703-.01 2.039.266 4.329.858 6.695z"/><path d="m1125.869 356.23c-12.47 17.305-30.579 27.104-48.598 35.536 2.829-8.569 5.729-16.321 6.887-24.621-8.151 19.434-38.305 33.379-47.93 35.746-20.504-34.317 11.032-89.525 60.086-69.975 3.72-.964 7.809-1.348 12.058-2.016 61.402-9.652 75.594 56.16 76.634 62.292-.302 9.259-38.415-9.56-59.137-36.962z"/><path d="m1236.593 687.088h-306.593c-.828 0-1.5-.671-1.5-1.5s.672-1.5 1.5-1.5h306.593c.828 0 1.5.671 1.5 1.5s-.672 1.5-1.5 1.5z"/><path d="m1236.593 737.088h-306.593c-.828 0-1.5-.671-1.5-1.5s.672-1.5 1.5-1.5h306.593c.828 0 1.5.671 1.5 1.5s-.672 1.5-1.5 1.5z"/><path d="m1236.593 787.088h-306.593c-.828 0-1.5-.671-1.5-1.5s.672-1.5 1.5-1.5h306.593c.828 0 1.5.671 1.5 1.5s-.672 1.5-1.5 1.5z"/></g><path d="m1288.447 692.496-26.983-21.646 6.257-7.801 19.485 15.631 25.698-29.564 7.547 6.561z" fill="#24968b"/><path d="m1288.447 742.496-26.983-21.646 6.257-7.801 19.485 15.631 25.698-29.564 7.547 6.561z" fill="#24968b"/><path d="m1288.447 792.496-26.983-21.646 6.257-7.801 19.485 15.631 25.698-29.564 7.547 6.561z" fill="#24968b"/><path d="m1327.082 862.62h-420.338c-16.137 0-29.266-13.129-29.266-29.266v-559.149c0-16.137 13.129-29.266 29.266-29.266h420.338c16.137 0 29.266 13.129 29.266 29.266v559.149c-0 16.137-13.129 29.266-29.266 29.266zm-420.338-614.681c-14.483 0-26.266 11.783-26.266 26.266v559.149c0 14.483 11.783 26.266 26.266 26.266h420.338c14.483 0 26.266-11.783 26.266-26.266v-559.149c0-14.483-11.783-26.266-26.266-26.266z" fill="#25242e"/><path d="m986.094 1211.003c27.018 18.212 55.394 36.796 87.1 58.5l91.717-86.177s-33.913-35.343-74.461-77.568c-45.461-47.34-167.82 62.466-104.356 105.245z" fill="#fff"/><path d="m1073.194 1271.004c-.294 0-.59-.086-.847-.262-19.899-13.623-38.382-25.945-56.256-37.862-10.685-7.124-20.778-13.853-30.835-20.633-.687-.463-.869-1.395-.405-2.082.463-.687 1.396-.869 2.082-.405 10.051 6.775 20.141 13.502 30.823 20.624 17.583 11.723 35.755 23.838 55.291 37.201l89.733-84.313c-4.919-5.126-26.634-27.755-54.684-56.97-.574-.598-.554-1.547.043-2.121.598-.574 1.547-.554 2.121.043 31.986 33.315 55.734 58.064 55.734 58.064.277.289.427.677.417 1.078-.01.4-.18.78-.472 1.054l-91.717 86.177c-.287.269-.656.407-1.028.407z" fill="#25242e"/><path d="m1148.062 1159.088 13.603 10.015s51.785-19.146 60.679-22.533c25.586-9.742 38.618-11.204 52.463 4.584l-50.887 44.635-131.962 115.515c-14.173-15.333-25.966-31.32-32.049-48.88 0 0-9.935-2.031-17.521-3.359-9.2-1.61-5.636-16.707 5.839-12.763 3.382 1.163 7.563 2.618 11.031 3.828 4.374 1.527 9.208 1.154 13.352-1.025l26.069-13.709c8.297-4.363 15.172-11.031 19.779-19.186l16.91-29.926-7.702-5.24c-4.881-3.321-5.481-10.291-1.252-14.527l6.149-6.159c4.194-4.196 10.79-4.737 15.499-1.27z" fill="#f0e760"/><path d="m1155.073 1195.781c-4.456 0-8.889-1.184-12.771-3.537l-7.71-4.675c-.708-.43-.934-1.352-.505-2.061.43-.708 1.352-.935 2.061-.505l7.71 4.675c6.49 3.936 14.747 4.145 21.548.543l53.29-28.213c6.107-3.233 9.159-10.336 7.258-16.889-.231-.795.227-1.628 1.023-1.858.796-.231 1.628.227 1.859 1.022 2.295 7.911-1.378 16.48-8.736 20.376l-53.29 28.213c-3.669 1.942-7.712 2.909-11.737 2.909z" fill="#25242e"/><path d="m1099.354 1282.623c-.386 0-.774-.011-1.163-.034-5.24-.304-10.02-2.629-13.457-6.548-7.09-8.083-6.191-20.508 2.005-27.697 8.197-7.189 20.633-6.461 27.722 1.622 3.438 3.919 5.12 8.96 4.738 14.195-.381 5.227-2.776 10.022-6.743 13.501-3.672 3.222-8.287 4.961-13.102 4.961zm.503-36.23c-3.945 0-7.926 1.387-11.141 4.207-6.952 6.098-7.727 16.624-1.728 23.463 2.904 3.311 6.943 5.275 11.375 5.531 4.441.252 8.742-1.229 12.113-4.186s5.406-7.029 5.729-11.465c.323-4.427-1.098-8.688-4.002-11.999-3.223-3.677-7.759-5.551-12.346-5.551z" fill="#25242e"/><path d="m1287.162 1166.131-50.445 44.248-130.687 114.551c-4.356 3.257-10.48 2.412-13.68-1.887-3.199-4.299-2.262-10.425 2.094-13.683l129.915-113.955 50.007-43.864c4.089-3.587 10.269-3.229 13.802.8 3.534 4.029 3.083 10.203-1.006 13.79z" fill="#fff"/><path d="m1100.117 1328.415c-.547 0-1.098-.04-1.649-.12-2.951-.429-5.551-1.977-7.322-4.356-3.675-4.938-2.617-11.987 2.35-15.743l179.88-157.781c4.704-4.127 11.845-3.706 15.919.938 1.976 2.253 2.943 5.15 2.724 8.159-.219 3-1.593 5.751-3.869 7.747l-.989-1.127.989 1.127-50.445 44.248-130.688 114.552c-.029.026-.059.05-.09.073-2 1.496-4.371 2.283-6.81 2.283zm180.787-177.841c-1.965 0-3.948.691-5.55 2.096l-179.922 157.819c-.029.026-.06.05-.091.074-3.688 2.758-4.49 7.956-1.789 11.586 1.292 1.736 3.191 2.864 5.347 3.178 2.193.317 4.387-.237 6.186-1.564l130.642-114.512 50.445-44.247c1.68-1.474 2.693-3.501 2.854-5.71.161-2.201-.545-4.318-1.987-5.962-1.601-1.827-3.855-2.758-6.135-2.758zm-174.874 174.356h.01z" fill="#25242e"/><path d="m334.824 1084.778c11.745 89.164 90.395 166.062 208.735 107.896 80.779-39.704 178.195-97.948 249.108-139.472 62.498 67.725 192.456 205.342 192.456 205.342s98.043-107.617 123.014-134.365c-48.231-50.235-113.781-118.475-140.644-146.289-91.446-94.682-155.866-139.422-241.578-96.216-77.617 39.125-268.989 135.381-268.989 135.381s-133.996-22.574-122.102 67.723z" fill="#56b1f0"/><path d="m791.413 706.228-129.034 124.841s-108.354-32.587-122.641-36.909c-9.476-2.867-37.98-12.956-70.466-16.105-16.493-1.599-45.1 114.241-14.275 129.358 40.316 18.996 73.725 30.124 150.465 54.799 33.122 10.65 105.586 27.776 164.699-35.291 61.823-65.958 117.876-132.548 117.876-132.548z" fill="#fff"/><path d="m811.737 685.731-22.849 22.107 91.808 95.344 53.02-62.258z" fill="#fac0c3"/><path d="m875.191 748.247c24.85.453 61.215 2.503 83.465 9.668 22.251 7.165 16.376 33.465-10.674 34.35s-51.619-.49-54.934-.695c-18.627-1.157-46.551-43.846-17.857-43.323z" fill="#fac0c3"/><path d="m847.06 706.29s36.486-35.129 50.435-54.045c13.95-18.916-5.279-41.412-33.481-17.093-7.638 6.587-30.42 28.912-52.278 50.579z" fill="#fac0c3"/><path d="m882.169 713.736s23.362-24.051 32.841-35.37c23.462-28.018-4.7-53.265-32.09-25.276-12.24 12.507-35.053 36.609-35.053 36.609-11.334 11.408 25.197 32.235 34.302 24.037z" fill="#fac0c3"/><path d="m854.192 684.531c-.371 0-.743-.137-1.033-.413-.601-.571-.625-1.52-.054-2.121 7.164-7.54 20.424-21.457 28.743-29.958 8.325-8.507 17.564-12.985 26.021-12.615.828.037 1.469.737 1.432 1.564-.036.828-.73 1.46-1.565 1.433-7.589-.325-16.024 3.827-23.745 11.717-8.306 8.487-21.554 22.392-28.712 29.926-.294.311-.69.467-1.087.467z" fill="#25242e"/><path d="m875.25 705.957s20.694-23.519 34.938-34.609c30.565-23.797 42.99 6.452 29.343 24.251-12.895 16.817-26.162 30.71-26.162 30.71-17.261 15.859-58.557 2.879-38.119-20.352z" fill="#fac0c3"/><path d="m877.893 704.506c-.359 0-.719-.128-1.006-.388-.614-.556-.662-1.504-.106-2.119 6.02-6.654 21.235-23.075 32.486-31.834 8.24-6.415 15.72-9.469 22.238-9.052.827.052 1.455.764 1.403 1.591s-.765 1.452-1.591 1.403c-5.681-.356-12.67 2.558-20.207 8.425-11.065 8.614-26.138 24.885-32.104 31.48-.297.327-.704.494-1.113.494z" fill="#25242e"/><path d="m921.603 764.597s62.486-66.87 68.599-77.942c11.859-21.479-6.998-36.623-28.554-22.085-12.019 8.106-59.975 54.193-59.975 54.193-21.824 23.594-.601 60.741 19.93 45.834z" fill="#fac0c3"/><path d="m940.933 745.188c-.362 0-.725-.13-1.013-.395-.611-.56-.652-1.509-.092-2.119 28.739-31.341 46.162-51.494 49.062-56.745 4.853-8.79 4.603-17.237-.653-22.045-5.901-5.398-16.008-4.641-25.749 1.929-11.772 7.939-61.51 56.212-62.011 56.699-.594.577-1.544.564-2.121-.031-.577-.594-.563-1.543.031-2.121 2.054-1.995 50.432-48.946 62.424-57.034 10.932-7.372 22.492-8.022 29.452-1.655 6.331 5.792 6.812 15.643 1.255 25.709-3.859 6.989-29.036 35.03-49.477 57.322-.298.322-.703.486-1.108.486z" fill="#25242e"/><path d="m666.292 974.157c-19.201 0-39.372-3.47-61.289-10.517-74.66-24.006-109.405-35.438-150.645-54.87-9.356-4.588-14.375-18.033-14.536-38.892-.131-16.939 2.932-37.721 8.402-57.015 2.483-8.757 11.359-37.239 21.193-36.302 28.586 2.771 54.102 10.885 66.364 14.784 1.74.554 3.214 1.022 4.392 1.379 13.457 4.071 111.626 33.596 121.796 36.655l128.401-124.229c.569-.55 1.469-.563 2.054-.03l96.624 88.146c.595.543.655 1.458.137 2.074-.561.667-56.785 67.375-117.929 132.608-25.884 27.615-57.2 43.011-93.076 45.759-3.925.299-7.886.45-11.888.45zm-197.365-194.619c-4.077 0-11.423 11.591-17.817 34.144-9.319 32.865-14.068 83.255 4.547 92.385 41.051 19.342 75.732 30.753 150.264 54.717 66.512 21.387 121.401 9.648 163.146-34.888 56.781-60.578 109.317-122.433 116.892-131.387l-94.516-86.223-128.021 123.861c-.39.378-.954.514-1.475.358-1.083-.326-108.518-32.637-122.644-36.91-1.189-.359-2.676-.833-4.432-1.391-12.164-3.868-37.474-11.917-65.744-14.657-.065-.005-.132-.009-.2-.009z" fill="#25242e"/><path d="m678.435 837.398c-.143 0-.289-.021-.433-.064l-16.055-4.829c-.793-.239-1.243-1.075-1.004-1.869.239-.793 1.076-1.243 1.868-1.004l16.055 4.829c.793.239 1.243 1.075 1.004 1.869-.195.649-.79 1.068-1.435 1.068z" fill="#25242e"/><path d="m888.037 794.373-106.781-97.365-61.411 48.631 117.555 107.221z" fill="#fff"/><path d="m837.4 854.36c-.373 0-.734-.139-1.011-.392l-117.555-107.22c-.325-.297-.504-.721-.488-1.161.015-.44.223-.851.568-1.124l61.411-48.632c.577-.457 1.399-.428 1.942.067l106.781 97.366c.601.548.656 1.475.123 2.09l-50.636 58.486c-.265.306-.642.492-1.046.516-.03.003-.059.004-.089.004zm-115.24-108.64 115.114 104.994 48.672-56.217-104.758-95.521z" fill="#25242e"/><path d="m740.462 751.961c-1.188 0-2.391-.282-3.511-.876-1.773-.941-3.073-2.517-3.661-4.436s-.393-3.953.548-5.726c1.943-3.66 6.501-5.056 10.161-3.113s5.056 6.501 3.113 10.161c-1.349 2.541-3.957 3.99-6.65 3.99zm.02-12.027c-1.618 0-3.185.871-3.995 2.397-.566 1.065-.682 2.286-.329 3.439s1.134 2.1 2.199 2.665c2.198 1.167 4.937.328 6.105-1.871 1.167-2.198.328-4.937-1.87-6.104-.673-.356-1.397-.526-2.11-.526z" fill="#25242e"/><path d="m518.979 954.053c21.126-41.269 7.173-134.756-30.934-174.636-10.979-11.489-33.191-12.638-35.745-2.195 33.174 29.966 60.788 104.096 47.919 160.055-3.169 13.778 15.022 22.778 18.76 16.776z" fill="#24968b"/><path d="m927.657 1412.87c9.897 18.647 20.097 37.231 30.559 56.719 11.212 20.885 22.726 42.809 34.49 66.963l115.99-28.051s-8.041-30.55-18.901-71.904c-5.03-19.153-4.762-18.112-10.482-39.937-14.533-55.452-181.953-40.872-151.656 16.21z" fill="#fac0c3"/><path d="m958.216 1469.589c-6.292 3.367-1.848 11.674 4.445 8.307 9.804 18.391 19.83 37.683 30.045 58.656l115.99-28.051s-10.758-40.893-21.074-80.166c7.062-1.855 4.673-10.951-2.389-9.095z" fill="#fff"/><path d="m992.706 1538.052c-.563 0-1.093-.318-1.348-.843-8.663-17.787-18.012-36.053-29.373-57.392-3.391 1.12-6.304-.441-7.588-2.841-1.456-2.721-.855-6.586 3.112-8.709.05-.027.102-.051.155-.072l127.017-50.349c.056-.022.113-.041.172-.056 2.659-.7 5.132-.142 6.786 1.528 1.503 1.518 2.087 3.742 1.524 5.803-.502 1.839-1.835 3.305-3.739 4.166 10.208 38.86 20.724 78.833 20.724 78.833.103.39.044.805-.163 1.15-.207.346-.544.595-.936.689l-115.99 28.051c-.118.029-.236.042-.353.042zm-30.045-61.656c.146 0 .293.021.436.065.381.116.7.378.888.729 11.439 21.459 20.845 39.805 29.541 57.62l113.331-27.408c-2.015-7.661-11.525-43.812-20.685-78.687-.101-.385-.045-.794.155-1.137.201-.344.53-.593.914-.694 1.618-.425 2.693-1.333 3.027-2.556.281-1.03-.01-2.142-.762-2.9-.877-.886-2.228-1.154-3.809-.759l-126.845 50.281c-1.062.586-1.77 1.37-2.048 2.272-.239.775-.155 1.605.237 2.337s1.036 1.263 1.813 1.494c.925.275 1.997.109 3.099-.481.22-.116.463-.176.708-.176z" fill="#25242e"/><path d="m1042.122 1448.087c-.595 0-1.158-.356-1.393-.942-.308-.769.065-1.643.834-1.951l45.5-18.251c.768-.31 1.642.065 1.95.833.309.769-.065 1.643-.834 1.951l-45.5 18.251c-.182.074-.371.109-.557.109z" fill="#25242e"/><path d="m1108.416 1481.973 3.622 16.499s51.556 19.754 60.476 23.073c25.659 9.548 36.42 17.043 36.417 38.041h-67.689l-175.378-.177c-.544-20.873 1.133-40.668 8.139-57.881 0 0-6.129-8.078-10.957-14.079-5.855-7.277 6.78-16.277 12.805-5.745 1.776 3.104 3.96 6.955 5.768 10.152 2.281 4.033 6.161 6.94 10.714 8.034l28.638 6.885c9.114 2.191 18.68 1.711 27.521-1.38l32.446-11.346-2.335-9.018c-1.479-5.715 2.666-11.351 8.639-11.746l8.684-.575c5.92-.392 11.235 3.551 12.49 9.263z" fill="#f0e760"/><path d="m1162.975 1534.141c-1.352 0-2.718-.155-4.077-.478l-58.667-13.93c-8.509-2.021-15.409-8.395-18.009-16.634l-2.713-8.598c-.249-.79.189-1.632.979-1.882.789-.249 1.632.188 1.882.979l2.713 8.598c2.284 7.238 8.354 12.839 15.841 14.618l58.667 13.93c6.722 1.596 13.701-1.731 16.593-7.911.351-.75 1.244-1.072 1.994-.723.75.351 1.074 1.244.723 1.994-2.905 6.21-9.221 10.037-15.926 10.037z" fill="#25242e"/><path d="m1003.457 1547.635c-10.902 0-19.771-8.748-19.771-19.5s8.869-19.5 19.771-19.5 19.771 8.748 19.771 19.5-8.869 19.5-19.771 19.5zm0-36c-9.248 0-16.771 7.402-16.771 16.5s7.524 16.5 16.771 16.5c9.248 0 16.771-7.402 16.771-16.5s-7.523-16.5-16.771-16.5z" fill="#25242e"/><path d="m1208.343 1578.992h-67.101l-173.785-.061c-5.422-.423-9.47-5.097-9.04-10.439.43-5.342 5.174-9.329 10.596-8.906h172.81 66.519c5.439 0 9.849 4.344 9.849 9.703.001 5.359-4.408 9.703-9.848 9.703z" fill="#fff"/><path d="m1208.343 1580.492h-67.101l-173.786-.061c-.039 0-.078-.001-.116-.004-3.05-.239-5.815-1.642-7.786-3.953-1.935-2.269-2.87-5.146-2.632-8.103.494-6.136 5.937-10.741 12.148-10.286h239.273c6.258 0 11.349 5.026 11.349 11.203s-5.091 11.204-11.349 11.204zm-240.825-3.06 173.725.061h67.1c4.604 0 8.349-3.68 8.349-8.203s-3.745-8.203-8.349-8.203h-239.329c-.039 0-.078-.001-.117-.004-4.592-.354-8.621 3.02-8.984 7.53-.174 2.157.51 4.257 1.924 5.915 1.437 1.685 3.453 2.715 5.681 2.904z" fill="#25242e"/><path d="m421.471 1012.431c-17.064 89.464-62.519 200.483 69.344 200.483 91.404 0 273.47.205 355.639-.821 4.115 25.898 66.668 251.728 66.668 251.728l166.192-67.16c-13.487-54.096-35.735-136.524-42.664-163.574-32.662-127.515-67.53-198.258-163.395-203.09-86.811-4.375-300.745-15.346-300.745-15.346s-133.975-91.684-151.039-2.22z" fill="#56b1f0"/><path d="m1032.105 1217.287c-.661 0-1.267-.441-1.447-1.11-17.818-66.026-34.767-106.21-56.672-134.365-24.993-32.123-57.025-48.112-100.806-50.318-85.818-4.326-298.607-15.237-300.747-15.347-.827-.042-1.464-.748-1.421-1.575.042-.828.744-1.464 1.575-1.421 2.139.11 214.927 11.021 300.744 15.347 44.718 2.253 77.454 18.609 103.023 51.472 22.166 28.489 39.272 68.99 57.201 135.426.216.8-.258 1.623-1.057 1.839-.132.035-.264.052-.393.052z" fill="#25242e"/><path d="m983.359 1435.449c-.668 0-1.277-.449-1.451-1.125-10.882-42.143-21.862-83.606-26.702-100.832-6.487-23.087-11.804-43.55-16.495-61.604-28.503-109.693-34.434-132.521-145.562-140.396-85.691-6.072-298.564-15.252-300.704-15.344-.828-.036-1.47-.735-1.434-1.563s.73-1.476 1.563-1.434c2.141.092 215.055 9.274 300.787 15.349 59.475 4.214 87.159 12.828 105.792 32.917 19.382 20.896 28.069 54.328 42.461 109.715 4.688 18.041 10.001 38.489 16.48 61.547 4.845 17.244 15.832 58.733 26.719 100.894.207.802-.275 1.62-1.077 1.827-.126.033-.253.049-.377.049z" fill="#25242e"/><path d="m334.824 1084.778c11.745 89.164 90.395 166.062 208.735 107.896 80.779-39.704 220.902-123.071 291.814-164.595 3.834-23.833 58.907-121.982 25.933-141.238-44.198-25.809-86.303-29.911-135.392-5.167-77.617 39.125-268.989 135.381-268.989 135.381s-133.995-22.574-122.101 67.723z" fill="#56b1f0"/><path d="m476.511 1213.936c-.756 0-1.406-.57-1.49-1.338-.089-.824.506-1.563 1.33-1.653 34.182-3.702 54.942-13.911 66.095-19.395l.451-.222c46.55-22.88 130.329-69.788 249.01-139.42 14.07-8.255 24.725-14.532 33.162-19.502l9.543-5.62c.714-.421 1.633-.182 2.053.532s.182 1.634-.532 2.054l-9.542 5.619c-8.438 4.971-19.094 11.249-33.166 19.505-118.744 69.669-202.589 116.612-249.205 139.524l-.45.222c-11.319 5.566-32.388 15.926-67.095 19.685-.055.006-.11.009-.164.009z" fill="#25242e"/><path d="m496.027 1114.466c-18.285 0-34.883-4.602-49.378-13.83-17.667-11.248-31.856-29.405-41.032-52.511-8.7-21.906-12.78-47.753-11.799-74.747.03-.828.73-1.455 1.553-1.445.828.03 1.475.726 1.445 1.554-.966 26.582 3.042 52.008 11.59 73.531 8.942 22.515 22.724 40.181 39.855 51.087 31.132 19.819 72.498 17.538 119.626-6.596 65.703-33.647 105.779-57.503 170.958-96.771 24.449-14.73 45.25-20.441 65.462-17.968 22.256 2.721 44.958 15.773 69.405 39.902 4.33 4.273 8.835 8.763 13.392 13.344.584.587.582 1.537-.006 2.121-.587.584-1.537.582-2.121-.006-4.55-4.575-9.049-9.058-13.372-13.325-23.957-23.645-46.089-36.421-67.662-39.059-19.511-2.387-39.704 3.194-63.549 17.56-65.235 39.303-105.348 63.18-171.138 96.872-26.384 13.511-51.047 20.286-73.229 20.287z" fill="#25242e"/><path d="m514.386 860.588c9.874 26.265 40.531 107.169 40.531 107.169l-97.992 49.297-112.328 107.123c-20.565-8.277-38.672-8.14-43.037-24.137-5.902-21.626 11.735-47.604 7.558-56.115-.952-1.939-7.491-18.477-16.169-39.55 12.103-23.641 3.717-74.194-6.379-96.407-22.346-49.163-41.998-62.572-41.998-62.572 5.772-4.023 24.7-15.505 37.891-21.416 43.043-19.288 110.368-38.347 136.22-43.501 15.741-3.139 27.454-3.277 33.618-3.258 5.715 3.982 52.267 57.251 62.085 83.367z" fill="#24968b"/><path d="m380.722 635.096 23.843-7.248c-14.961-26.112-36.172-37.008-66.877-24.791z" fill="#f05467"/><path d="m392.335 659.457c-14.7-42.563-45.824-65.811-90.403-46.573-46.125 19.905-39.117 61.05-35.86 101.063-16.311-9.467-28.542 8.956-22.198 23.641 4.694 10.865 21.145 17.09 36.159 3.041 27.848 31.1 71.519 29.957 103.247 11.172 38.846-22.998 46.399-72.391 9.055-92.344z" fill="#fac0c3"/><path d="m277.365 666.283s4.205 16.333 7.011 32.389c3.933 22.508-12.722 26.111-18.304 15.275-8.382-18.528-10.11-36.514-6.965-54.105z" fill="#f05467"/><path d="m256.364 738.283c-.209 0-.421-.044-.623-.137-.753-.345-1.084-1.235-.74-1.988l6.45-14.093c.345-.754 1.235-1.085 1.988-.74s1.084 1.235.74 1.988l-6.45 14.093c-.252.552-.796.877-1.365.877z" fill="#25242e"/><path d="m265.898 734.168c-.203 0-.409-.042-.607-.129l-13.982-6.192c-.757-.335-1.1-1.222-.764-1.979.335-.757 1.221-1.1 1.979-.764l13.982 6.192c.757.335 1.1 1.222.764 1.979-.248.56-.797.893-1.372.893z" fill="#25242e"/><path d="m331.942 678.599c-.733 0-1.374-.538-1.483-1.285-1.37-9.437 2.78-20.63 15.128-22.909.815-.15 1.597.388 1.747 1.203.15.814-.388 1.597-1.203 1.747-7.532 1.39-14.382 7.967-12.704 19.528.119.82-.449 1.581-1.269 1.7-.072.011-.145.016-.216.016z" fill="#25242e"/><path d="m345.039 669.781c2.822 6.914 2.603 13.542-.489 14.804s-7.886-3.32-10.708-10.235c-1.128-2.764-1.77-5.483-1.937-7.831 1.896-3.348 5.415-6.832 6.114-6.394 4.065 2.552 6.098 7.398 7.02 9.656z" fill="#25242e"/><path d="m370.841 660.062c-.733 0-1.374-.538-1.483-1.285-1.264-8.707 2.131-18.97 12.563-22.272.79-.248 1.633.188 1.883.978s-.188 1.633-.977 1.883c-8.754 2.771-11.581 11.53-10.499 18.981.119.82-.449 1.581-1.269 1.7-.073.01-.146.015-.218.015z" fill="#25242e"/><path d="m383.938 651.244c2.822 6.914 2.603 13.542-.489 14.804s-7.886-3.32-10.708-10.235c-1.128-2.764-1.77-5.483-1.937-7.831 1.896-3.348 5.415-6.832 6.114-6.394 4.066 2.552 6.099 7.398 7.02 9.656z" fill="#25242e"/><path d="m329.773 602.545c-60.496-9.348-95.737 37.51-97.673 94.408l73.36-33.731c3.157-8.343 6.921-17.029 9.252-21.331l-.425 18.058 10.147-4.569c4.644-9.782 7.748-20.531 10.057-31.777 4.444 7.882 6.029 16.285 4.374 25.279l21.533-9.695c4.989-12.637 1.582-24.115-10.221-34.433 24.335-6.08 42.947 7.891 50.459 24.287l6.786-2.063c-6.149-30.524-39.419-58.67-77.649-24.433z" fill="#f05467"/><path d="m252.49 689.273c-.572 0-1.119-.329-1.369-.885-.34-.755-.003-1.644.752-1.983l30.738-13.839c.756-.339 1.644-.003 1.984.752s.003 1.644-.752 1.983l-30.738 13.839c-.2.09-.409.133-.615.133z" fill="#25242e"/><path d="m400.638 630.543c-.569 0-1.112-.325-1.365-.876-7.29-15.914-25.187-29.337-48.731-23.457-.804.2-1.618-.288-1.819-1.091s.288-1.618 1.092-1.819c25.216-6.301 44.379 8.076 52.186 25.118.345.753.014 1.643-.739 1.988-.203.093-.415.137-.624.137z" fill="#25242e"/><path d="m382.445 685.674c3.323 4.275 5.462 8.965 4.856 14.993-6.168 3.013-18.934 4.021-25.824 1.597 7.23-3.707 15.71-10.535 20.968-16.59z" fill="#fff"/><path d="m367.111 699.386c-8.268-12.186 8.955-24.469 17.439-16.809-3.225 8.895-13.283 15.58-17.439 16.809z" fill="#f08d92"/><path d="m352.648 707.167c-.669 0-1.279-.452-1.452-1.13-.205-.803.28-1.62 1.083-1.824 12.235-3.12 29.947-16.113 33.593-27.569.251-.789 1.096-1.226 1.884-.974.789.251 1.226 1.095.974 1.884-3.991 12.54-22.473 26.19-35.71 29.566-.125.032-.249.047-.372.047z" fill="#25242e"/><path d="m366.43 703.455c7.635.677 18.389.769 24.884-4.194 0 0 1.308 10.333-9.45 12.291-10.314 1.877-15.434-8.097-15.434-8.097z" fill="#f08d92"/><path d="m371.989 704.89c-3.616 0-7.308-.378-10.837-1.162-.809-.18-1.319-.981-1.139-1.79s.982-1.319 1.79-1.139c11.353 2.521 22.698.337 28.038-3.124.695-.45 1.624-.252 2.074.443.451.695.252 1.624-.443 2.075-4.7 3.046-11.925 4.697-19.483 4.697z" fill="#25242e"/><path d="m294.143 820.431c5.44 16.177 22.056 43.281 45.126 60.547l37.579-40.947 22.896 11.13 6.134-26.029 51.244 7.391c-14.553-25.36-26.221-42.095-43.681-50.189-13.319-5.196-21.955-7.06-30.295-8.303-28.418-5.03-64.894 10.693-76.489 25.39-5.58 7.073-9.238 14.067-12.514 21.01z" fill="#fff"/><path d="m339.268 882.478c-.314 0-.63-.098-.898-.299-21.971-16.443-39.595-43.269-45.649-61.27-.124-.367-.1-.768.065-1.118 3.178-6.734 6.915-13.976 12.693-21.299 12.458-15.791 49.996-30.881 77.928-25.938 8.813 1.313 17.408 3.245 30.579 8.383 17.491 8.105 29.101 24.117 44.437 50.84.286.498.262 1.115-.06 1.589s-.886.724-1.455.642l-49.885-7.195-5.819 24.692c-.104.443-.405.815-.816 1.011s-.89.194-1.299-.006l-21.891-10.641-36.823 40.124c-.295.32-.7.485-1.107.485zm-43.508-61.956c4.925 14.144 20.241 40.699 43.327 58.436l36.656-39.941c.448-.489 1.165-.625 1.761-.335l21.21 10.311 5.704-24.205c.178-.756.904-1.249 1.674-1.141l48.187 6.95c-14.272-24.585-25.366-39.438-41.469-46.902-12.824-5-21.233-6.891-29.885-8.181-26.993-4.774-63.136 9.683-75.09 24.836-5.437 6.891-9.029 13.755-12.075 20.172z" fill="#25242e"/><path d="m376.847 841.531c-.184 0-.372-.034-.554-.107-27.92-11.106-38.499-17.23-53.142-25.707l-2.695-1.559c-.652-.377-.924-1.179-.635-1.875 1.523-3.664 13.891-10.73 27.571-15.751 10.356-3.801 30.121-9.595 46.13-5.699.413.101.764.371.965.745 6.127 11.354 8.569 19.292 11.95 30.28l.872 2.829c.245.792-.198 1.631-.99 1.876-.792.243-1.632-.199-1.876-.99l-.873-2.833c-3.27-10.629-5.65-18.363-11.404-29.144-24.959-5.604-62.623 12.593-68.784 18.788l1.271.735c15.074 8.726 25.033 14.49 52.748 25.516.77.306 1.146 1.178.839 1.948-.232.59-.796.948-1.393.948z" fill="#25242e"/><path d="m393.17 793.792c-.543 0-1.067-.296-1.334-.812-3.964-7.671-15.351-10.288-15.466-10.313-.808-.18-1.318-.981-1.139-1.789s.98-1.319 1.787-1.14c.523.116 12.868 2.936 17.482 11.865.38.736.092 1.641-.644 2.021-.219.114-.454.168-.686.168z" fill="#25242e"/><path d="m321.205 814.36c-.29 0-.583-.084-.842-.259l-8.386-5.698c-.685-.466-.863-1.398-.398-2.084.466-.685 1.398-.862 2.084-.397l8.386 5.698c.685.466.863 1.398.398 2.084-.29.426-.761.656-1.242.656z" fill="#25242e"/><path d="m112.56 1116.712h308.624v256.87h-308.624z" fill="#fff" transform="matrix(.9926 -.1218 .1218 .9926 -149.6531 41.7691)"/><path d="m129.348 1392.918c-.747 0-1.394-.557-1.487-1.317l-31.283-254.958c-.048-.395.062-.793.307-1.106s.604-.517.999-.565l306.327-37.585c.821-.104 1.57.484 1.671 1.306l31.283 254.958c.048.395-.062.793-.307 1.106s-.604.517-.999.565l-306.327 37.585c-.061.008-.123.011-.184.011zm-29.609-255.151 30.917 251.98 303.349-37.22-30.917-251.98z" fill="#25242e"/><path d="m410.298 1321.047-15.124-1.714 6.719 54.764 14.261-5.319c3.439-1.283 5.55-4.757 5.103-8.401l-3.977-32.412c-.446-3.643-3.334-6.505-6.982-6.918z" fill="#f0e760"/><path d="m403.579 1266.283-15.124-1.714 6.719 54.764 14.261-5.319c3.439-1.283 5.55-4.757 5.103-8.401l-3.977-32.412c-.447-3.643-3.335-6.505-6.982-6.918z" fill="#56b1f0"/><path d="m85.05 1136.207h308.624v256.87h-308.624z" fill="#f05467" transform="matrix(.9926 -.1218 .1218 .9926 -152.2321 38.5638)"/><path d="m299.583 1292.851-61.387-161.076 50.553-121.575c17.479-33.783 19.521-115.485-44.391-164.344-30.007 20.394-49.962 42.765-62.827 66.82-17.677 33.054-36.357 70.859-67.546 145.191-13.461 32.082-28.806 78.077-3.063 138.078 35.644 83.079 58.532 130.509 58.532 130.509z" fill="#fff"/><path d="m169.455 1327.953c-.565 0-1.096-.32-1.351-.848-.229-.475-23.31-48.41-58.559-130.57-24.667-57.494-12.296-102.655 3.059-139.25 30.553-72.818 49.123-110.757 67.606-145.317 13.754-25.717 34.461-47.749 63.306-67.353.534-.364 1.241-.344 1.754.049 36.172 27.653 48.942 63.533 53.284 88.763 5.81 33.755-.547 62.105-8.443 77.406l-50.3 120.966 61.174 160.518c.152.399.127.844-.069 1.223s-.544.657-.958.764l-130.128 33.603c-.125.031-.251.046-.375.046zm74.851-480.245c-27.966 19.17-48.074 40.662-61.45 65.675-18.443 34.486-36.977 72.353-67.485 145.063-15.111 36.014-27.292 80.443-3.068 136.906 32.273 75.224 54.329 121.716 57.973 129.34l127.31-32.875-60.79-159.509c-.137-.358-.131-.756.017-1.11l50.553-121.575c.016-.039.034-.077.053-.114 9.658-18.667 12.869-48.332 8.18-75.575-4.218-24.499-16.549-59.255-51.293-86.226z" fill="#25242e"/><path d="m212.569 1396.912c-16.277 2.313-31.341-35.985-47.19-69.545-5.979-12.66 129.045-33.883 129.045-33.883s17.316 22.556 39.613 58.726c0 0-108.535 42.864-121.468 44.702z" fill="#fac0c3"/><path d="m291.893 1357.33s4.958 10.328 9.17 17.043c-25.646-13.515-43.4 14.005-11.089 40.309 36.45 29.673 77.93-7.532 44.063-62.472-14.341-6.389-28.294-2.07-42.144 5.12z" fill="#fac0c3"/><path d="m268.759 1363.124s4.958 10.328 9.17 17.043c-25.646-13.515-43.4 14.005-11.089 40.309 36.45 29.673 77.93-7.532 44.063-62.472-14.34-6.388-28.294-2.07-42.144 5.12z" fill="#fac0c3"/><path d="m309.943 1427.292c-.472 0-.937-.222-1.229-.638-.476-.678-.313-1.613.365-2.089 19.699-13.845 14.092-43.8.547-65.773-.435-.705-.215-1.629.49-2.064.705-.436 1.629-.215 2.064.49 9.168 14.872 13.546 29.621 12.66 42.653-.795 11.705-5.78 21.346-14.036 27.149-.262.183-.563.272-.861.272z" fill="#25242e"/><path d="m239.267 1372.168s4.689 9.768 8.673 16.119c-24.255-12.782-41.046 13.245-10.487 38.122 34.473 28.064 73.703-7.124 41.673-59.083-13.563-6.041-26.76-1.958-39.859 4.842z" fill="#fac0c3"/><path d="m274.796 1434.977c-.551 0-1.081-.305-1.344-.832-.37-.741-.068-1.642.673-2.011 6.701-3.34 11.648-9.579 13.927-17.567 3.761-13.18.137-29.678-10.204-46.454-.435-.705-.215-1.629.49-2.064s1.629-.216 2.064.49c10.789 17.502 14.531 34.852 10.535 48.852-2.514 8.808-8.009 15.708-15.474 19.428-.214.107-.442.158-.667.158z" fill="#25242e"/><path d="m244.858 1376.506c16.378 26.568 13.024 46.409.43 55.425-14.041 10.051-32.381 4.308-42.182-2.697-15.071-10.772-16.215-32.05 9.463-32.324.106-3.044-.037-4.812-.112-10.57z" fill="#fac0c3"/><path d="m207.994 1398.708c-.745 0-1.391-.554-1.486-1.312-.104-.822.478-1.572 1.3-1.676 2.757-.348 5.832-.406 9.141-.171.826.058 1.449.775 1.39 1.602-.058.826-.779 1.456-1.602 1.39-3.113-.22-5.991-.168-8.553.156-.064.007-.128.011-.19.011z" fill="#25242e"/><path d="m239.847 1436.488c-.584 0-1.139-.343-1.382-.915-.324-.763.032-1.643.795-1.967 1.807-.767 3.541-1.741 5.155-2.896 10.766-7.706 16.2-25.786-.833-53.417-.435-.705-.215-1.629.49-2.064s1.629-.215 2.064.49c18.117 29.39 11.892 48.937.026 57.431-1.792 1.283-3.72 2.366-5.729 3.218-.192.081-.391.12-.586.12z" fill="#25242e"/><path d="m305.902 1309.414-145.799 37.65-35.424-70.722 153.464-39.628z" fill="#fff"/><path d="m160.103 1348.564c-.557 0-1.082-.312-1.341-.828l-35.423-70.722c-.203-.405-.212-.88-.024-1.293s.552-.718.99-.831l153.464-39.628c.739-.194 1.504.204 1.776.917l27.759 72.701c.152.399.127.844-.069 1.224-.196.379-.544.657-.958.764l-145.8 37.649c-.124.031-.25.047-.374.047zm-33.251-71.233 34.049 67.978 143.001-36.927-26.682-69.88z" fill="#25242e"/><path d="m143.104 1293.582c-4.144 0-7.515-3.371-7.515-7.515s3.371-7.515 7.515-7.515 7.515 3.371 7.515 7.515-3.371 7.515-7.515 7.515zm0-12.029c-2.489 0-4.515 2.025-4.515 4.515s2.025 4.515 4.515 4.515 4.515-2.025 4.515-4.515-2.026-4.515-4.515-4.515z" fill="#25242e"/><path d="m238.197 1133.275c-.604 0-1.174-.368-1.402-.966l-6.374-16.726c-.295-.774.093-1.641.867-1.936.774-.294 1.641.094 1.936.868l6.374 16.726c.295.774-.093 1.641-.867 1.936-.176.066-.357.098-.534.098z" fill="#25242e"/><path d="m305.051 1034.095c25.943-50.679 3.199-175.124-50.527-195.031-10.231-3.838-30.709 8.367-26.113 18.133 43.146 12.904 70.749 104.162 57.88 160.121-3.169 13.779 15.022 22.779 18.76 16.777z" fill="#24968b"/><path d="m305.05 1035.596c-.23 0-.464-.053-.682-.165-.737-.378-1.029-1.282-.652-2.019 15.635-30.543 13.626-91.075-4.575-137.805-11.274-28.947-27.305-48.528-45.138-55.136-1.081-.405-2.338-.617-3.741-.63-.828-.008-1.493-.686-1.485-1.514.008-.829.7-1.468 1.514-1.486 1.755.017 3.356.292 4.76.819 18.643 6.908 35.296 27.101 46.885 56.858 18.475 47.435 20.43 109.045 4.45 140.261-.265.518-.791.817-1.336.817z" fill="#25242e"/><path d="m535.543 918.095c-.606 0-1.176-.37-1.403-.97-2.55-6.739-5.156-13.594-7.665-20.193-5.418-14.251-10.535-27.712-13.498-35.83-16.093-44.082-54.616-77.831-61.534-82.649-.68-.474-.847-1.409-.374-2.088s1.408-.847 2.088-.374c7.046 4.908 46.276 39.265 62.638 84.083 2.956 8.098 8.07 21.55 13.484 35.792 2.509 6.601 5.116 13.457 7.667 20.198.293.775-.097 1.641-.872 1.934-.175.066-.354.097-.531.097z" fill="#25242e"/><path d="m846.453 1213.593c-.479 0-.935-.229-1.22-.627-.337-.471-.372-1.094-.092-1.6l10.114-18.244c.402-.724 1.314-.985 2.039-.584.724.402.986 1.315.585 2.04l-8.585 15.484 34.074-6.089c.816-.148 1.595.397 1.74 1.213.146.815-.397 1.595-1.213 1.74l-37.179 6.644c-.087.015-.175.023-.263.023z" fill="#25242e"/></svg>