<svg version="1.0" xmlns="http://www.w3.org/2000/svg" viewBox="0 0 1080.000000 1080.000000"
 preserveAspectRatio="xMidYMid meet">
<g transform="translate(0.000000,1080.000000) scale(0.100000,-0.100000)"
fill="#000000" stroke="none">
<path d="M4610 5390 l0 -500 2240 0 2240 0 0 500 0 500 -2240 0 -2240 0 0
-500z m575 312 c71 -38 69 -35 47 -79 -33 -64 -44 -69 -101 -44 -87 37 -161
21 -161 -34 0 -32 25 -50 120 -84 47 -17 98 -43 114 -58 61 -56 73 -145 31
-230 -55 -110 -188 -150 -333 -100 -46 16 -112 57 -112 70 0 14 52 86 67 91 8
3 42 -7 76 -24 68 -33 80 -35 125 -19 20 7 34 21 41 39 15 43 -14 74 -97 100
-141 47 -185 95 -185 199 0 84 43 150 123 186 52 23 192 16 245 -13z m796 1
c170 -76 241 -285 161 -467 -24 -53 -86 -118 -140 -145 -66 -34 -161 -46 -238
-32 -155 28 -249 124 -274 276 -26 159 55 311 196 371 52 22 71 24 154 21 69
-2 108 -9 141 -24z m902 -2 c26 -14 55 -33 64 -43 15 -17 14 -20 -12 -58 -15
-21 -35 -42 -45 -45 -9 -3 -43 7 -74 21 -68 31 -118 29 -172 -8 -51 -35 -69
-79 -69 -173 0 -134 47 -195 156 -203 49 -4 64 0 108 24 l51 29 42 -42 42 -43
-28 -29 c-87 -91 -285 -104 -403 -27 -54 35 -107 107 -125 169 -6 23 -12 81
-12 128 0 77 3 93 32 152 38 76 92 128 166 157 74 29 212 24 279 -9z m487
-306 l0 -335 -80 0 -80 0 0 328 c0 181 3 332 7 335 3 4 39 7 80 7 l73 0 0
-335z m773 6 c70 -181 127 -331 127 -335 0 -3 -33 -6 -74 -6 -85 0 -91 4 -121
89 l-20 56 -120 0 -120 0 -20 -56 c-30 -85 -36 -89 -121 -89 -41 0 -74 3 -74
8 0 13 243 636 253 650 6 8 37 12 86 12 l77 0 127 -329z m515 57 l2 -268 120
0 120 0 0 -65 0 -65 -205 0 -205 0 0 328 c0 181 3 332 7 336 4 4 41 5 83 4
l75 -3 3 -267z"/>
<path d="M5765 5586 c-106 -39 -149 -200 -84 -316 55 -97 208 -108 282 -21 77
92 53 276 -43 326 -44 23 -109 27 -155 11z"/>
<path d="M7925 5533 c-4 -10 -22 -62 -40 -115 l-34 -98 85 0 84 0 -40 112
c-22 61 -42 113 -44 115 -2 2 -7 -4 -11 -14z"/>
<path d="M2180 5731 c-112 -21 -194 -80 -240 -174 -89 -182 -19 -399 155 -479
43 -20 66 -23 160 -23 98 0 116 3 165 26 145 69 220 237 180 403 -25 104 -122
209 -218 236 -54 15 -151 20 -202 11z m165 -170 c66 -37 98 -130 76 -224 -15
-65 -45 -105 -95 -128 -83 -38 -166 -12 -211 66 -52 88 -32 232 39 279 56 36
133 39 191 7z"/>
<path d="M2860 5395 l0 -335 80 0 80 0 2 183 3 182 139 -175 c77 -96 144 -178
150 -182 6 -4 41 -8 79 -8 l67 0 0 335 0 335 -80 0 -80 0 -2 -191 -3 -190
-120 153 c-189 240 -176 228 -251 228 l-64 0 0 -335z"/>
<path d="M3740 5395 l0 -335 225 0 225 0 0 65 0 65 -135 0 -135 0 0 65 0 64
103 3 102 3 0 65 0 65 -102 3 -103 3 0 64 0 65 135 0 135 0 0 70 0 70 -225 0
-225 0 0 -335z"/>
</g>
</svg>
