<?xml version="1.0" standalone="no"?>
<!DOCTYPE svg PUBLIC "-//W3C//DTD SVG 20010904//EN"
 "http://www.w3.org/TR/2001/REC-SVG-20010904/DTD/svg10.dtd">
<svg version="1.0" xmlns="http://www.w3.org/2000/svg"
 width="1532.000000pt" height="1532.000000pt" viewBox="0 0 1532.000000 1532.000000"
 preserveAspectRatio="xMidYMid meet">
<metadata>
Created by potrace 1.14, written by Peter Selinger 2001-2017
</metadata>
<g transform="translate(0.000000,1532.000000) scale(0.100000,-0.100000)"
fill="#000000" stroke="none">
<path d="M636 11912 c-8 -13 -5 -8407 3 -8420 5 -9 1646 -11 7012 -10 l7004 3
3 4218 2 4217 -7009 0 c-3856 0 -7012 -4 -7015 -8z m13782 -4223 l-3 -3964
-6760 0 -6760 0 -3 3967 -2 3968 6757 2 c3717 2 6761 1 6766 -3 4 -3 6 -1789
5 -3970z"/>
<path d="M3730 10298 c-276 -38 -531 -140 -745 -296 -178 -130 -355 -347 -442
-541 -18 -42 -38 -85 -43 -96 -116 -258 -144 -702 -64 -1020 47 -187 139 -382
257 -545 62 -86 233 -250 331 -318 156 -108 375 -202 575 -247 140 -31 546
-37 696 -10 294 52 608 212 809 411 123 123 204 237 291 414 86 172 132 352
151 580 15 186 -3 376 -52 570 -67 262 -227 526 -434 715 -79 72 -126 107
-226 167 -187 113 -389 182 -631 218 -85 12 -380 11 -473 -2z m409 -617 c20
-5 56 -15 81 -21 196 -51 363 -188 456 -375 59 -119 69 -147 94 -285 40 -211
17 -520 -50 -685 -18 -46 -75 -153 -101 -190 -79 -114 -220 -215 -369 -263
-81 -26 -95 -27 -280 -27 -188 0 -198 1 -280 28 -130 44 -205 90 -295 181
-145 146 -209 306 -246 614 -21 175 23 434 104 612 64 140 194 272 336 340 50
24 81 35 201 68 45 13 302 15 349 3z"/>
<path d="M6833 10269 c-10 -10 -13 -327 -13 -1516 0 -1475 0 -1502 19 -1513
12 -6 129 -10 310 -10 280 0 292 1 311 20 21 21 21 26 18 919 -2 495 0 897 4
894 5 -2 35 -39 67 -81 69 -89 321 -409 368 -467 18 -22 104 -130 191 -240 87
-110 259 -328 382 -484 124 -156 243 -308 265 -336 53 -70 126 -147 165 -175
56 -40 121 -50 328 -50 114 0 201 4 213 10 19 11 19 38 19 1510 0 1349 -2
1500 -16 1514 -13 14 -56 16 -310 16 -185 0 -303 -4 -315 -10 -19 -10 -19 -31
-19 -888 0 -545 4 -890 10 -911 12 -41 4 -54 -16 -26 -16 21 -221 281 -394
499 -58 72 -170 214 -250 315 -80 101 -172 218 -206 260 -221 277 -408 514
-455 576 -46 61 -130 145 -164 163 -25 14 -70 17 -265 20 -181 3 -238 1 -247
-9z"/>
<path d="M10930 10270 c-13 -8 -15 -187 -17 -1502 -2 -1295 0 -1496 13 -1515
l14 -23 960 0 c947 0 960 0 980 20 19 19 20 33 20 271 0 153 -4 258 -10 270
-10 18 -28 19 -620 19 l-610 0 0 335 0 335 459 0 c404 0 461 2 475 16 14 13
16 51 16 260 0 150 -4 253 -10 265 -10 18 -26 19 -475 19 l-465 0 0 330 0 330
603 0 c362 0 608 4 617 10 13 8 15 50 15 275 0 252 -1 267 -19 281 -17 12
-166 14 -975 14 -585 0 -962 -4 -971 -10z"/>
<path d="M2774 6810 c-80 -23 -127 -45 -194 -92 -200 -137 -268 -415 -158
-645 61 -128 178 -202 448 -284 176 -53 231 -95 237 -181 5 -68 -18 -115 -72
-145 -33 -19 -55 -23 -128 -23 -99 0 -137 12 -268 87 -129 73 -175 57 -272
-95 -43 -68 -58 -98 -53 -115 13 -49 198 -155 345 -197 136 -40 290 -44 426
-14 198 45 359 199 412 393 19 69 21 242 4 296 -41 132 -117 216 -253 279 -51
24 -156 65 -232 91 -200 67 -256 111 -243 192 14 87 73 124 196 125 82 1 90
-1 186 -47 123 -58 173 -62 215 -18 30 31 120 193 120 217 0 42 -168 137 -306
172 -122 30 -312 32 -410 4z"/>
<path d="M4801 6815 c-269 -61 -476 -216 -590 -443 -74 -148 -94 -235 -94
-412 0 -178 21 -271 95 -415 84 -165 204 -282 373 -366 148 -73 228 -91 419
-91 186 0 272 18 412 87 243 119 401 325 459 598 19 88 19 286 1 374 -68 319
-293 562 -606 654 -98 28 -369 37 -469 14z m376 -373 c54 -21 71 -31 119 -72
66 -57 114 -141 143 -255 15 -56 13 -259 -3 -327 -41 -172 -158 -294 -314
-327 -170 -36 -349 12 -444 118 -104 117 -149 317 -114 506 40 212 156 343
334 375 73 14 220 4 279 -18z"/>
<path d="M7140 6815 c-239 -54 -441 -210 -550 -425 -109 -218 -128 -462 -56
-731 36 -136 138 -296 246 -387 89 -75 232 -146 334 -167 107 -21 326 -22 431
0 123 25 248 90 334 173 41 40 71 78 71 89 0 11 -38 59 -87 111 -83 87 -90 92
-129 92 -32 0 -54 -8 -90 -35 -69 -50 -118 -70 -205 -85 -217 -36 -399 75
-476 291 -22 60 -28 96 -31 194 -6 186 31 311 124 414 117 130 337 160 508 70
146 -77 134 -73 177 -59 34 11 53 31 115 114 41 54 74 107 74 117 0 43 -191
165 -324 206 -69 21 -105 25 -241 29 -115 2 -178 -1 -225 -11z"/>
<path d="M8609 6809 c-5 -3 -8 -352 -7 -855 l3 -849 200 0 200 0 3 853 c2 807
1 852 -15 853 -113 4 -377 3 -384 -2z"/>
<path d="M10274 6805 c-7 -5 -49 -104 -94 -220 -45 -115 -92 -237 -105 -270
-13 -33 -74 -190 -135 -350 -61 -159 -115 -299 -120 -310 -30 -73 -184 -475
-191 -498 -16 -56 -12 -57 173 -57 233 0 244 7 309 196 22 65 47 133 55 150
l14 32 287 -1 c158 0 295 -2 304 -4 12 -3 31 -46 59 -131 53 -159 73 -194 120
-221 36 -20 50 -21 212 -19 156 3 173 5 176 21 3 16 -144 412 -211 567 -8 19
-29 73 -47 120 -17 47 -35 94 -40 105 -4 11 -54 139 -110 285 -56 146 -106
276 -112 290 -15 35 -21 50 -73 188 -26 68 -52 125 -59 128 -25 9 -400 9 -412
-1z m329 -790 c41 -121 73 -223 70 -227 -5 -9 -393 -11 -393 -2 0 11 71 219
80 236 6 10 10 25 10 33 0 8 4 23 10 33 5 9 28 73 50 141 23 69 44 129 47 134
3 6 16 -21 29 -59 12 -38 56 -168 97 -289z"/>
<path d="M11953 6802 c-11 -11 -13 -168 -13 -838 0 -550 3 -832 10 -845 10
-18 27 -19 513 -19 276 0 508 4 515 8 9 7 12 48 10 173 l-3 164 -307 3 -308 2
0 675 c0 554 -2 677 -13 681 -8 3 -98 6 -202 7 -145 2 -192 -1 -202 -11z"/>
</g>
</svg>
