<svg xmlns="http://www.w3.org/2000/svg" version="1.1" viewBox="0 0 3000 2500" width="3000" height="2500">
<defs/><!--ITEM: Illustration component 1--><g transform="translate(232.5 267.5) rotate(0.0 1316.25 920.0)  scale(12.758502033121216 12.723086178164694)"><svg width="206.333" height="144.619" viewBox="0.0 0.0 206.333 144.619"><path d="m132.004 142.227-1.328-.676c-5.028-2.56-8.195-7.725-8.195-13.367v-46.464h-38.63v46.464c0 5.642-3.166 10.808-8.195 13.367l-1.328.676c-.937.477-.598 1.891.454 1.891h56.767c1.052.001 1.392-1.414.455-1.891z" fill="#fff"/><g fill="#1d2445"><path d="m131.55 144.618h-56.767c-.708 0-1.294-.462-1.458-1.15-.165-.688.148-1.365.778-1.686l1.327-.677c4.886-2.487 7.922-7.438 7.922-12.922v-46.463c0-.276.224-.5.5-.5h38.63c.276 0 .5.224.5.5v46.464c0 5.482 3.035 10.435 7.922 12.923l1.327.676c.63.32.943.998.778 1.686s-.751 1.149-1.459 1.149zm-47.198-62.398v45.964c0 5.861-3.245 11.154-8.468 13.813l-1.327.677c-.326.166-.281.472-.26.563.021.09.12.383.486.383h56.767c.366 0 .465-.294.486-.384s.066-.396-.259-.562l-1.328-.676c-5.223-2.659-8.468-7.953-8.468-13.813v-45.965z"/><path d="m200.833.5h-195.333c-2.761 0-5 2.239-5 5v104c0 2.761 2.239 5 5 5h195.333c2.761 0 5-2.239 5-5v-104c0-2.761-2.238-5-5-5z"/><path d="m200.833 115h-195.333c-3.033 0-5.5-2.468-5.5-5.5v-104c0-3.032 2.467-5.5 5.5-5.5h195.333c3.033 0 5.5 2.468 5.5 5.5v104c0 3.033-2.467 5.5-5.5 5.5zm-195.333-114c-2.481 0-4.5 2.019-4.5 4.5v104c0 2.481 2.019 4.5 4.5 4.5h195.333c2.481 0 4.5-2.019 4.5-4.5v-104c0-2.481-2.019-4.5-4.5-4.5z"/></g><path d="m205.833 96.933h-205.333v12.567c0 2.761 2.239 5 5 5h195.333c2.761 0 5-2.239 5-5z" fill="#fff"/><path d="m200.833 115h-195.333c-3.033 0-5.5-2.467-5.5-5.5v-12.567c0-.276.224-.5.5-.5h205.333c.276 0 .5.224.5.5v12.567c0 3.034-2.467 5.5-5.5 5.5zm-199.833-17.567v12.067c0 2.481 2.019 4.5 4.5 4.5h195.333c2.481 0 4.5-2.019 4.5-4.5v-12.067z" fill="#1d2445"/><path d="m7.549 7.267h191.235v82.984h-191.235z" fill="#fff"/><path d="m198.784 90.75h-191.235c-.276 0-.5-.224-.5-.5v-82.983c0-.276.224-.5.5-.5h191.235c.276 0 .5.224.5.5v82.983c-0 .277-.224.5-.5.5zm-190.735-1h190.235v-81.983h-190.235z" fill="#1d2445"/><path d="m105.114 109.917h-3.895c-1.1 0-2-.9-2-2v-3.895c0-1.1.9-2 2-2h3.895c1.1 0 2 .9 2 2v3.895c0 1.1-.9 2-2 2z" fill="#fff"/><path d="m105.114 110.416h-3.895c-1.378 0-2.5-1.121-2.5-2.5v-3.895c0-1.379 1.122-2.5 2.5-2.5h3.895c1.378 0 2.5 1.121 2.5 2.5v3.895c0 1.379-1.121 2.5-2.5 2.5zm-3.895-7.894c-.827 0-1.5.673-1.5 1.5v3.895c0 .827.673 1.5 1.5 1.5h3.895c.827 0 1.5-.673 1.5-1.5v-3.895c0-.827-.673-1.5-1.5-1.5z" fill="#1d2445"/></svg></g><!--ITEM: Illustration component 2--><g transform="translate(452.5 1327.5) rotate(0.0 575.0 -327.5) translate(0.0 -0.0) scale(6.737044370760056 -6.744233937397034)"><svg width="170.69799999999998" height="20.387786259541986" viewBox="0.0 0.0 170.69799999999998 20.387786259541986"><path d="m.5.5h169.698v96.12h-169.698z" fill="#fff"/><path d="m170.198 97.12h-169.698c-.276 0-.5-.224-.5-.5v-96.12c0-.277.223-.5.5-.5h169.698c.276 0 .5.224.5.5v96.12c0 .276-.224.5-.5.5zm-169.198-1h168.698v-95.12h-168.698z" fill="#1d2445"/></svg></g><!--ITEM: Illustration component 3--><g transform="translate(452.5 440.0) rotate(0.0 575.0 313.75)  scale(3.434106953021417 3.4467416619062266)"><svg width="334.876" height="182.056" viewBox="0.0 0.0 334.876 182.056"><path d="m330.876 182.056h-326.876c-2.209 0-4-1.791-4-4v-174.056c0-2.209 1.791-4 4-4h326.876c2.209 0 4 1.791 4 4v174.056c0 2.209-1.791 4-4 4z" fill="#1d2445"/><path d="m330.876 182.556h-326.876c-2.481 0-4.5-2.019-4.5-4.5v-174.056c0-2.481 2.019-4.5 4.5-4.5h326.876c2.481 0 4.5 2.019 4.5 4.5v174.056c0 2.482-2.019 4.5-4.5 4.5zm-326.876-182.056c-1.93 0-3.5 1.57-3.5 3.5v174.056c0 1.93 1.57 3.5 3.5 3.5h326.876c1.93 0 3.5-1.57 3.5-3.5v-174.056c0-1.93-1.57-3.5-3.5-3.5z" fill="#1d2445"/><path d="m9.938 6.528h315v169h-315z" fill="#fff"/></svg></g><!--ITEM: Illustration component 4--><g transform="translate(1955.0 607.5) rotate(90.0 440.0 271.25)  scale(8.380952380952381 8.346153846153847)"><svg width="105.0" height="65.0" viewBox="0.0 0.0 105.0 65.0"><path d="m.5.5h104v64h-104z" fill="#fff"/><path d="m104.5 65h-104c-.276 0-.5-.224-.5-.5v-64c0-.276.224-.5.5-.5h104c.276 0 .5.224.5.5v64c0 .276-.223.5-.5.5zm-103.5-1h103v-63h-103z" fill="#1d2445"/></svg></g><!--ITEM: Illustration component 5--><g transform="translate(2165.0 1132.5) rotate(0.0 230.0 63.75)  scale(4.560596446700507 4.404145077720208)"><svg width="100.864" height="28.95" viewBox="0.0 0.0 100.864 28.95"><path d="m9.806 27.852h76.189c7.388 0 13.377-5.989 13.377-13.377 0-7.388-5.989-13.377-13.377-13.377h-76.189c-5.139 0-9.306 4.166-9.306 9.306v8.142c0 5.14 4.166 9.306 9.306 9.306z" fill="#fff"/><g fill="#1d2445"><path d="m85.995 28.352h-76.189c-5.407 0-9.806-4.399-9.806-9.806v-8.142c0-5.407 4.399-9.806 9.805-9.806h76.189c7.652 0 13.877 6.225 13.877 13.877.001 7.652-6.224 13.877-13.876 13.877zm-76.189-26.754c-4.856 0-8.806 3.951-8.806 8.806v8.142c0 4.855 3.95 8.806 8.805 8.806h76.189c7.1 0 12.877-5.776 12.877-12.876 0-7.101-5.776-12.877-12.877-12.877h-76.188z"/><path d="m86.389 28.95c-7.982 0-14.475-6.494-14.475-14.475s6.493-14.475 14.475-14.475 14.475 6.494 14.475 14.475-6.494 14.475-14.475 14.475zm0-26.95c-6.879 0-12.475 5.596-12.475 12.475s5.596 12.475 12.475 12.475 12.475-5.596 12.475-12.475-5.596-12.475-12.475-12.475z"/></g></svg></g><!--ITEM: Illustration component 6--><g transform="translate(452.5 1145.0) rotate(0.0 575.0 327.5) translate(0.0 0.0) scale(6.737044370760056 6.744233937397034)"><svg width="170.69799999999998" height="20.387786259541986" viewBox="0.0 0.0 170.69799999999998 20.387786259541986"><path d="m.5.5h169.698v96.12h-169.698z" fill="#fff"/><path d="m170.198 97.12h-169.698c-.276 0-.5-.224-.5-.5v-96.12c0-.277.223-.5.5-.5h169.698c.276 0 .5.224.5.5v96.12c0 .276-.224.5-.5.5zm-169.198-1h168.698v-95.12h-168.698z" fill="#1d2445"/></svg></g><!--ITEM: Illustration component 7--><g transform="translate(460.0 447.5) rotate(0.0 566.25 322.5) translate(0.0 0.0) scale(6.634524130335446 6.641268533772652)"><svg width="170.698" height="91.84992248062017" viewBox="0.0 0.0 170.698 91.84992248062017"><path d="m.5.5h169.698v96.12h-169.698z" fill="#fff"/><path d="m170.198 97.12h-169.698c-.276 0-.5-.224-.5-.5v-96.12c0-.277.223-.5.5-.5h169.698c.276 0 .5.224.5.5v96.12c0 .276-.224.5-.5.5zm-169.198-1h168.698v-95.12h-168.698z" fill="rgb(255,255,255)"/></svg></g><!--ITEM: Illustration component 8--><g transform="translate(395.0 725.0) rotate(0.0 441.25 778.75)  scale(4.370910783891275 4.386669032510639)"><svg width="201.903" height="355.053" viewBox="0.0 0.0 201.903 355.053"><path d="m58.754 48.607 7.145 23.827 15.648-39.02-7.612-3.053-6.677-2.678s-2.375 5.922-2.822 7.038z" fill="#fff"/><path d="m65.899 72.934c-.008 0-.015 0-.022-.001-.212-.009-.396-.151-.456-.355l-7.146-23.828c-.033-.109-.027-.227.016-.333l5.682-13.886 2.821-7.034c.049-.124.146-.222.268-.274.121-.052.258-.055.383-.004l14.289 5.73c.256.103.38.394.277.65l-15.648 39.022c-.076.189-.261.313-.464.313zm-6.616-24.302 6.685 22.288 14.929-37.229-13.36-5.358-2.637 6.574z" fill="#1d2445"/><path d="m76.494 12.475h9.534v12.12h-9.534z" fill="#99644c"/><path d="m70.677 3.765h6.464v24.239h-6.464z" fill="#000000"/><path d="m67.905 32.743 7.301 3.244v-30.908c0-1.814-1.47-3.284-3.284-3.284h-1.478c-7.038 0-12.424 6.268-11.364 13.227l1.172 7.695c.675 4.427 3.56 8.207 7.653 10.026z" fill="#000000"/><path d="m69.719 23.031h4.773v7.268h-4.773z" fill="#99644c"/><path d="m69.902 24.579h7.475v-7.433h-7.475c-1.651 0-2.989 1.338-2.989 2.989v1.454c0 1.651 1.338 2.99 2.989 2.99z" fill="#99644c"/><path d="m83.171 10.556h-9.763v5.007c-1.561.124-3.053.218-3.273.144-.335-.112 3.188 3.789 5.397 6.21.607.665 1.713.235 1.713-.665v-3.202c0-.544.441-.985.985-.985h4.941z" fill="#000000"/><path d="m79.405 2.451h-.429c-1.814 0-3.284 1.47-3.284 3.284v11.406h15.208v-3.195c0-6.348-5.146-11.495-11.495-11.495z" fill="#99644c"/><path d="m65.575 6.579h11.495v22.168c0 3.628-2.941 6.569-6.569 6.569h-4.926z" fill="#000000"/><path d="m73.118 2.802h13.535v7.718c0 3.628-2.941 6.569-6.569 6.569h-6.966z" fill="#000000"/><path d="m90.607 23.811v-.021l-.459-.413c-.513-.461-.683-1.194-.426-1.834l.767-1.906c.078-.195.118-.403.118-.613v-5.781l-23.959 17.862-.085 7.066 12.998.053v.553h6.654c2.879 0 5.212-2.334 5.212-5.212v-7.927c.001-.728-.319-1.375-.82-1.827z" fill="#fff"/><path d="m86.215 39.277h-6.654c-.276 0-.5-.224-.5-.5v-.055l-12.5-.051c-.134-.001-.261-.055-.354-.149s-.146-.224-.144-.356l.085-7.066c.002-.156.076-.302.201-.395l23.96-17.861c.151-.113.354-.13.523-.047.169.085.275.258.275.447v5.781c0 .273-.052.542-.155.799l-.767 1.906c-.178.443-.059.956.296 1.275l.46.413c.034.03.063.064.087.103.573.56.899 1.324.899 2.116v7.927c.001 3.15-2.561 5.713-5.712 5.713zm-6.154-1h6.154c2.599 0 4.713-2.114 4.713-4.713v-7.927c0-.556-.232-1.073-.655-1.455-.031-.028-.058-.059-.08-.093l-.379-.34c-.667-.6-.89-1.561-.556-2.393l.767-1.905c.055-.138.083-.281.083-.427v-4.784l-22.963 17.118-.076 6.315 12.494.051c.275.001.498.225.498.5z" fill="#1d2445"/><path d="m79.821.5h-14.248c-6.931 0-12.55 5.619-12.55 12.55v22.189c0 1.399.926 2.629 2.271 3.016l33.144 9.527v-30.636h3.423c.693 0 1.255-.562 1.255-1.255v-2.096c0-7.342-5.952-13.295-13.295-13.295z" fill="#fff"/><path d="m88.438 48.282c-.046 0-.093-.007-.138-.02l-33.144-9.527c-1.551-.445-2.633-1.884-2.633-3.496v-22.189c.001-7.196 5.855-13.05 13.051-13.05h14.247c7.606 0 13.795 6.188 13.795 13.796v2.096c0 .968-.787 1.755-1.755 1.755h-2.923v30.136c0 .157-.074.305-.199.399-.088.066-.194.1-.301.1zm-22.864-47.282c-6.645 0-12.05 5.406-12.05 12.051v22.188c0 1.17.785 2.212 1.909 2.535l32.505 9.344v-29.972c0-.276.224-.5.5-.5h3.423c.416 0 .755-.339.755-.755v-2.096c0-7.055-5.741-12.795-12.795-12.795z" fill="#1d2445"/><path d="m26.309 40.337c-.025-.025-.05-.051-.075-.069-.54-.445-1.336-.37-1.782.169l-4.355 4.524c-.176.175-.396.307-.64.376-.747.207-1.525-.232-1.738-.985l-2.864-8.393-.644-9.364c-.137-.917-.795-1.587-1.545-1.661h-.012c-.265.004-.477.222-.473.487l-.666 11.149-.103.058-.088 1.513c-.044.74-.169 1.475-.37 2.19l-1.87 6.601c-.155.548-.39 1.063-.696 1.529-.353.538-.505 1.184-.5 1.827l.073 9.357.053-.025-4.577 30.037 1.477 13.834c.331 3.096 2.999 5.409 6.11 5.297 3.19-.115 5.717-2.734 5.717-5.926v-47.073c1.037-.741 1.911-1.698 2.559-2.827l.013.013 7.072-11.822c.169-.257.137-.596-.076-.816z" fill="#fff"/><g fill="#1d2445"><path d="m10.809 109.292c-3.295 0-6.042-2.471-6.392-5.748l-1.477-13.834c-.005-.042-.004-.086.003-.128l4.542-29.805c-.015-.041-.023-.084-.023-.129l-.072-9.356c-.007-.786.194-1.515.582-2.106.28-.429.493-.896.632-1.39l1.87-6.602c.192-.687.312-1.389.353-2.083l.088-1.513c.006-.108.048-.211.116-.293l.651-10.913c-.009-.504.424-.95.964-.958 1.073.102 1.892.959 2.06 2.087l.644 9.339 2.845 8.331c.143.505.655.795 1.131.665.155-.045.302-.131.421-.249l4.347-4.518c.554-.672 1.736-.805 2.461-.208.013.011.091.082.103.094.388.397.443 1.003.146 1.453l-7.06 11.803c-.021.036-.048.069-.077.1-.628 1.059-1.442 1.969-2.424 2.71v46.821c0 3.478-2.723 6.3-6.199 6.426zm-6.868-19.623 1.471 13.77c.295 2.767 2.615 4.854 5.397 4.854l.197-.004c2.935-.105 5.234-2.489 5.234-5.426v-47.074c0-.161.078-.313.21-.407.995-.71 1.808-1.608 2.416-2.668.023-.041.053-.078.087-.111l7.002-11.706c.052-.079.045-.159-.005-.21-.398-.337-.854-.247-1.113.069l-4.38 4.554c-.247.245-.543.419-.863.511-1.006.281-2.076-.339-2.356-1.331l-2.857-8.367c-.014-.041-.022-.084-.025-.127l-.644-9.364c-.095-.624-.557-1.145-1.095-1.197l-.603 11.166c-.007.109-.048.211-.116.292l-.074 1.279c-.045.767-.176 1.538-.388 2.296l-1.87 6.603c-.167.59-.422 1.15-.759 1.665-.278.426-.423.962-.418 1.55l.07 9.146c.043.081.063.172.049.266z"/><path d="m6.112 98.045 16.667-21.738 10.794-20.009 12.17 18.924-23.389 25.262-5.488 6.33c-2.52 2.907-6.925 3.209-9.819.674-2.751-2.41-3.16-6.541-.935-9.443z"/><path d="m72.43 134.427h-45.684l5.249-33.748 3.953-39.003 52.528 6.304 1.49 24.418c.193 3.16-1.122 6.225-3.545 8.263l-6.744 5.672c-1.805 1.518-3.015 3.625-3.417 5.949z"/><path d="m91.425 58.841-39.96-11.053c-11.347-3.138-21.721 7.42-18.383 18.71l1.065 3.602 75.196.744-13-9.608c-1.479-1.094-3.146-1.905-4.918-2.395z"/><path d="m9.749 336.03 11.62 4.035 4.034-11.616c.73-2.101-.382-4.396-2.483-5.125l-4.011-1.393c-2.101-.73-4.396.382-5.125 2.483z"/><path d="m30.514 230.851-14.116 34.361c-.836 1.702-1.398 3.525-1.666 5.402l-9.581 67.123s13.255 2.874 12.74 2.704l25.211-66.01 5.113-38.414z"/><path d="m72.576 133.871 2.987 21.883c.44 3.222.087 6.503-1.027 9.558l-26.567 72.84s-15.225.158-19.705.199l5.75-59.75 7.966-44.544z"/></g><path d="m189.473 48.738 1.186-.876 10.4-4.819c.269-.095.41-.39.315-.659-.001-.004-.003-.008-.005-.012-.354-.729-1.277-1.143-2.253-.938l-9.079 2.669-9.923 2.526c-.804.25-1.658-.192-1.91-.987-.082-.261-.092-.537-.037-.798l1.517-6.586c.224-.719-.176-1.481-.895-1.706-.032-.012-.069-.02-.106-.027-.323-.063-.647.108-.78.412l-6.497 13.327.019.004c-.371.727-.634 1.491-.809 2.271l-23.086 11.843-16.266 9.719 1.472 8.083 1.448 4.013c.498 1.381 2.109 1.994 3.4 1.294l14.745-7.993 19.737-15.104.003.021 5.265-3.377-.016.044 18.386-4.25c.282-.043.476-.307.432-.589-.001-.004-.001-.009-.002-.013-.213-.782-1.043-1.36-2.04-1.341l-4.115.408 8.84-5.458c.253-.131.352-.443.221-.696-.002-.004-.004-.008-.006-.012-.428-.636-1.321-.917-2.21-.66l3.987-2.667c.248-.141.334-.457.192-.705-.002-.004-.004-.008-.007-.012-.479-.654-1.46-.897-2.385-.522l-10.307 5.189c.369-.362.753-.709 1.169-1.016z" fill="#fff"/><path d="m136.444 88.283c-1.22 0-2.316-.771-2.73-1.916l-1.447-4.014-1.494-8.162c-.037-.205.057-.412.235-.52l16.266-9.719 22.907-11.755c.179-.719.426-1.402.736-2.037.008-.04.021-.08.039-.117l6.496-13.327c.213-.489.769-.792 1.324-.685.069.015.13.029.183.049.959.299 1.507 1.345 1.201 2.325l-1.506 6.549c-.037.173-.028.361.026.535.166.521.746.827 1.285.661l9.948-2.533 9.062-2.664c.237-.052.439-.073.64-.073.963 0 1.828.5 2.203 1.272.118.319.104.595-.014.84-.116.246-.322.431-.579.521l-1.019.473c.487.138.909.419 1.193.806.173.295.207.569.136.832-.072.263-.242.48-.478.614l-2.679 1.793c.441.162.816.444 1.069.819.292.559.098 1.174-.397 1.432l-6.969 4.304 1.962-.194c.003-.001.006-.001.008-.001 1.275 0 2.289.702 2.564 1.707.056.338-.011.606-.172.826-.16.218-.396.361-.664.403l-18.349 4.241-5.094 3.268c-.027.018-.056.032-.085.044l-19.621 15.015-14.811 8.036c-.421.23-.898.352-1.375.352zm-4.626-13.931 1.411 7.741 1.426 3.934c.377 1.048 1.693 1.562 2.69 1.025l14.745-7.994 19.672-15.062c.049-.037.104-.064.161-.082l5.141-3.297c.107-.068.233-.093.355-.071l18.172-4.2c-.094-.548-.729-.957-1.45-.957l-4.111.406c-.225.016-.449-.117-.523-.338s.013-.463.211-.586l8.84-5.458c-.221-.457-.934-.651-1.595-.462-.235.069-.488-.047-.592-.27-.104-.224-.029-.489.175-.627l3.987-2.667c-.25-.475-1.057-.633-1.732-.359l-10.271 5.173c-.218.11-.487.045-.631-.154-.144-.2-.12-.475.055-.647.442-.437.831-.774 1.223-1.064l1.186-.876c.027-.02.056-.037.087-.052l10.4-4.819c-.171-.526-.912-.815-1.631-.666l-9.041 2.659-9.94 2.531c-.172.055-.376.085-.58.085-.888 0-1.663-.565-1.93-1.406-.106-.34-.124-.704-.05-1.054l1.518-6.594c.151-.49-.103-.975-.557-1.116-.176-.021-.246.032-.279.107l-6.447 13.229c-.008.044-.021.088-.043.129-.336.66-.594 1.386-.768 2.155-.032.145-.127.267-.259.335l-23.084 11.845z" fill="#1d2445"/><path d="m24.486 140.136-2.922 23.675 45.318 67.538 12.882 19.251 3.883-40.305c.345-3.584-.283-7.195-1.82-10.451l-32.047-67.929z" fill="#1d2445"/><path d="m81.208 199.003v36.199l-13.465 72.48s-16.31-.044-15.748-.013l.078-65.835 11.157-37.556z" fill="#1d2445"/><path d="m53.041 307.31h15.595v5.671h-15.595z" fill="#99644c"/><circle cx="58.162" cy="315.394" fill="#e6e6e6" r="3.995"/><path d="m34.387 170.131h21.984v-36.266l-28.693-5.126-8.165 18.64c-4.698 10.729 3.162 22.752 14.874 22.752z" fill="#1d2445"/><path d="m72.214 284.017h-19.823c-1.724 0-3.093-1.449-2.995-3.171l2.036-35.02c.444-7.637 6.629-13.68 14.274-13.946l15.176-.529-2.678 47.008c-.181 3.175-2.809 5.658-5.99 5.658z" fill="#1d2445"/><path d="m28.053 312.626-20.407-3.95c-1.706-.33-2.776-2.037-2.329-3.717l9.814-36.892 28.144 5.448-9.441 35.488c-.674 2.539-3.201 4.123-5.781 3.623z" fill="#1d2445"/><path d="m69.804 44.743-10.733-3.083-7.547 26.271 22.426 6.443 4.188-14.577c1.855-6.459-1.876-13.198-8.334-15.054z" fill="#1d2445"/><path d="m31.996 100.679-7.236 21.704c-.981 2.942.926 6.059 3.992 6.525l41.347 6.281c2.92.443 5.586-1.727 5.744-4.676l1.705-31.83z" fill="#1d2445"/><path d="m27.254 131.789h45.646v1h-45.646z" fill="#fff" transform="matrix(.9886 .1506 -.1506 .9886 20.4961 -6.0333)"/><path d="m19.547 311.183c-.239 0-.451-.173-.492-.418-.045-.272.139-.53.411-.575l1.761-.293c3.661-.61 6.621-3.191 7.726-6.735l9.698-31.137c.71-2.281 1.15-4.644 1.309-7.021l.777-11.665c.652-9.787 2.495-19.487 5.476-28.832l19.079-59.815c.729-2.286 1.224-4.654 1.471-7.04l1.623-15.686c.028-.274.271-.483.549-.445.274.028.474.273.445.549l-1.623 15.686c-.254 2.453-.763 4.889-1.512 7.241l-19.079 59.815c-2.957 9.268-4.784 18.888-5.431 28.594l-.777 11.665c-.163 2.456-.618 4.896-1.352 7.252l-9.698 31.137c-1.218 3.907-4.48 6.752-8.517 7.425l-1.761.293c-.027.003-.055.005-.083.005z" fill="#fff"/><path d="m137.014 70.851-28.33-3.023-22.586-6.09.041 19.613 37.977 5.093 12.779 1.551z" fill="#1d2445"/><path d="m136.216 74.517c-.021 0-.043-.001-.064-.004l-25.734-3.285c-3.743-.479-7.355-1.875-10.446-4.04l-5.683-3.979c-1.45-1.016-3.02-1.857-4.667-2.503l-9.922-3.89c-.257-.102-.384-.392-.283-.648s.388-.385.648-.283l9.922 3.89c1.721.675 3.361 1.555 4.876 2.616l5.683 3.979c2.958 2.071 6.416 3.409 9.999 3.866l25.734 3.285c.273.035.468.285.433.56-.033.252-.248.436-.496.436z" fill="#fff"/><path d="m28.494 312.691-10.6 27.75c.51.17-12.74-2.7-12.74-2.7l4.1-28.76 18.8 3.65c.15.03.3.05.44.06z" fill="#fff"/><path d="m17.905 340.948c-.203 0-4.528-.914-12.856-2.718-.257-.055-.427-.299-.39-.559l4.101-28.761c.02-.136.094-.258.205-.337.111-.08.249-.108.386-.084l18.8 3.649c.134.028.26.045.379.053.158.011.302.097.388.229.085.134.102.3.045.448l-10.557 27.635c-.001.008-.002.016-.003.023-.04.244-.253.422-.498.422zm-12.191-3.597c4.314.934 10.281 2.215 11.858 2.529l10.233-26.789-18.131-3.52z" fill="#1d2445"/><path d="m32.224 347.72s-3.615-3.107-4.828-4.126c-.63-.529-1.731-3.88-2.466-6.313l.069-.089-1.955-7.133c-.321-1.17-1.289-2.051-2.484-2.261l-13.831-2.424-.42 2.478-2.199 3.855c-1.43 2.508-2.396 5.252-2.853 8.103l-.373 2.927 15.385 1.979-.339.429 14.899 8.698 4.171.461.306-2.293c.269-2.021-1.081-3.902-3.082-4.291z" fill="#fff"/><path d="m35.001 354.804c-.019 0-.037-.001-.056-.003l-4.172-.461c-.069-.008-.137-.03-.197-.065l-14.898-8.698c-.125-.073-.213-.196-.239-.339-.008-.042-.011-.084-.008-.125l-14.611-1.879c-.274-.035-.468-.285-.433-.56l.373-2.928c.471-2.937 1.451-5.72 2.915-8.287l2.154-3.778.405-2.391c.022-.131.096-.248.205-.324.108-.077.243-.105.374-.084l13.831 2.424c1.381.242 2.511 1.271 2.881 2.622l1.955 7.133c.026.096.022.196-.008.288 1.544 5.08 2.14 5.773 2.244 5.861 1.097.921 4.151 3.545 4.735 4.047 2.184.495 3.647 2.585 3.35 4.819l-.306 2.294c-.033.251-.246.434-.494.434zm-4.012-1.446 3.581.396.24-1.81c.234-1.756-.943-3.396-2.682-3.732-.085-.017-.164-.056-.23-.112 0 0-3.61-3.104-4.823-4.123-.236-.198-.864-.725-2.623-6.551-.031-.104-.028-.212.007-.311l-1.897-6.923c-.268-.979-1.088-1.726-2.089-1.901l-13.335-2.337-.336 1.982c-.01.058-.03.113-.059.164l-2.198 3.855c-1.405 2.462-2.345 5.132-2.794 7.934l-.309 2.416 14.891 1.915c.179.023.331.141.399.308.064.157.044.337-.054.476z" fill="#1d2445"/><ellipse cx="19.46" cy="337.304" fill="#fff" rx="1.788" ry="3.85" transform="matrix(-.9859 -.1672 .1672 -.9859 -17.7416 673.114)"/><path d="m18.96 341.611c-.001 0-.001 0 0 0-.076 0-.152-.006-.228-.019-.674-.114-1.19-.713-1.456-1.685-.23-.842-.256-1.902-.072-2.987.41-2.416 1.72-4.124 2.983-3.905.674.114 1.19.713 1.456 1.685.23.842.256 1.902.072 2.987-.384 2.273-1.544 3.924-2.755 3.924zm1.057-7.61c-.569 0-1.489 1.101-1.826 3.087-.158.93-.14 1.861.051 2.556.149.55.402.919.659.962l.06.005c.509 0 1.432-1.101 1.77-3.092.158-.93.14-1.861-.051-2.556-.149-.55-.402-.919-.659-.962-.002 0-.003 0-.004 0z" fill="#1d2445"/><path d="m21.222 347.153 13.178 7.345h-20.091l-13.372-8.297c-.682-.423-.313-1.477.483-1.383z" fill="#fff"/><path d="m34.419 354.999c-.005 0-.013 0-.02 0h-20.09c-.093 0-.185-.026-.264-.075l-13.372-8.297c-.487-.302-.701-.853-.544-1.402.155-.545.635-.911 1.192-.911.02 0 .138.007.157.01l19.802 2.334c.064.007.128.027.185.06l13.106 7.306c.202.064.348.254.348.477 0 .274-.223.498-.5.498zm-19.967-1h18.024l-11.411-6.36-19.703-2.323c-.254-.011-.259.139-.271.184-.023.081-.023.196.109.278z" fill="#1d2445"/><path d="m.5 345.487.539-3.178.131-.077c.59-.346 1.276-.49 1.955-.41l8.118.958c2.585.305 5.082 1.13 7.339 2.426l10.294 5.909 7.122.259-.539 3.178-7.122-.26-10.744-6.043c-2.228-1.253-4.683-2.051-7.221-2.346l-7.728-.9c-.573-.067-1.153.026-1.677.267z" fill="#1d2445"/><path d="m35.458 355.053c-.006 0-.012 0-.019 0l-7.121-.26c-.079-.003-.157-.025-.227-.064l-10.744-6.043c-2.183-1.227-4.55-1.996-7.034-2.285l-7.728-.899c-.479-.059-.973.022-1.41.224l-.466.216c-.168.077-.366.056-.514-.057-.147-.113-.221-.298-.189-.48l.538-3.178c.024-.146.112-.272.239-.348l.131-.077c.682-.399 1.479-.57 2.268-.475l8.118.958c2.667.313 5.201 1.151 7.53 2.488l10.186 5.848 6.999.255c.144.006.278.072.369.185.091.111.129.257.105.399l-.539 3.178c-.039.24-.248.415-.492.415zm-6.981-1.255 6.562.239.37-2.184-6.552-.238c-.081-.003-.16-.026-.23-.066l-10.293-5.909c-2.212-1.27-4.617-2.064-7.149-2.363l-8.118-.958c-.544-.062-1.096.044-1.573.305l-.346 2.041c.501-.163 1.033-.217 1.556-.156l7.727.898c2.617.306 5.11 1.115 7.409 2.408z" fill="#1d2445"/><path d="m72.134 284.021-4.39 23.66s-15.3-.04-15.75-.01l.03-23.68c.12.02.24.03.37.03z" fill="#fff"/><path d="m67.745 308.181c-.001 0-8.059-.021-12.65-.021-2.507 0-2.998.007-3.067.011-.151-.008-.273-.043-.374-.136-.1-.095-.158-.227-.158-.364l.029-23.68c0-.146.064-.285.177-.38.111-.095.259-.14.403-.112.094.015.188.022.29.022h19.74c.148 0 .289.066.385.181.095.114.134.265.106.41l-4.39 23.66c-.044.237-.25.409-.491.409zm-12.651-1.021c3.97 0 10.527.017 12.234.021l4.204-22.659h-19.01l-.027 22.644c.421-.004 1.186-.006 2.599-.006z" fill="#1d2445"/><path d="m48.874 324.195h29.939v-2.191c0-.728-.59-1.317-1.317-1.317h-28.622z" fill="#1d2445"/><path d="m77.847 320.976-.266-2.74c-.135-1.203-.457-2.111-.855-2.41l-4.323-3.249c-.389-.292-.755-.786-1.087-1.443l-1.762-6.118-.192-.802c-.074-.31-.166-.561-.264-.782l-.453-1.572-16.727.034-2.491 8.818c-.806 2.207-1.208 4.541-1.187 6.89l.014 1.529c.01 1.073.882 1.938 1.956 1.938h20.391c.199 0 .386-.039.567-.094h6.679z" fill="#fff"/><path d="m70.602 321.57h-20.391c-1.342 0-2.443-1.092-2.456-2.433l-.014-1.529c-.022-2.42.388-4.797 1.217-7.066l2.48-8.782c.062-.215.257-.364.48-.364l16.727-.034h.001c.223 0 .419.147.48.361l.452 1.572c.101.215.197.499.271.804l.191.803 1.756 6.095c.266.506.591.944.907 1.183l4.323 3.248c.705.532.961 1.954 1.051 2.754l.267 2.748c.014.14-.033.279-.128.384s-.229.164-.37.164h-6.606c-.229.062-.433.092-.638.092zm-18.303-19.176-2.39 8.455c-.8 2.191-1.189 4.45-1.168 6.749l.014 1.529c.007.796.66 1.442 1.456 1.442h20.391c.125 0 .26-.023.423-.072.047-.015.096-.021.145-.021h6.127l-.213-2.192c-.151-1.349-.496-1.938-.657-2.059l-4.323-3.248c-.444-.334-.858-.878-1.232-1.617l-1.993-7.029c-.06-.247-.134-.468-.234-.693l-.371-1.275z" fill="#1d2445"/><path d="m67.925 312.546c.323 2.047 1.198 3.729 1.954 3.758s1.107-1.607.783-3.654-1.198-3.729-1.954-3.758c-.755-.029-1.106 1.607-.783 3.654z" fill="#fff"/><path d="m69.899 316.803c-.007 0-.032 0-.038 0-1.223-.046-2.116-2.199-2.43-4.18-.213-1.351-.206-3.068.452-3.839.278-.325.592-.394.806-.394 1.262.048 2.154 2.2 2.468 4.18.213 1.351.206 3.068-.452 3.839-.279.326-.592.394-.806.394zm-.001-1 .001.5zm-1.209-6.412c-.192.076-.575 1.141-.27 3.076.343 2.175 1.189 3.322 1.478 3.336.197-.085.576-1.148.271-3.076-.343-2.177-1.192-3.325-1.479-3.336z" fill="#1d2445"/><path d="m67.98 319.726h8.818c.875 0 1.591.716 1.591 1.591v.193c0 .875-.716 1.591-1.591 1.591h-8.818c-.875 0-1.591-.716-1.591-1.591v-.193c-0-.875.716-1.591 1.591-1.591z" fill="#1d2445"/><path d="m189.782 52.707c-.182 0-.356-.1-.445-.272-.126-.245-.028-.547.218-.673l8.296-4.249c.243-.124.546-.028.673.218.126.245.028.547-.218.673l-8.296 4.249c-.073.036-.151.054-.228.054z" fill="#1d2445"/></svg></g><!--ITEM: Illustration component 9--><g transform="translate(1765.0 440.0) rotate(0.0 123.75 383.75)  scale(8.389830508474576 8.513966232556076)"><svg width="29.5" height="90.146" viewBox="0.0 0.0 29.5 90.146"><path d="m21.292 25.646h-20.792v-20.791h20.792z" fill="#fff"/><path d="m21.292 26.146h-20.792c-.276 0-.5-.224-.5-.5v-20.791c0-.276.224-.5.5-.5h20.792c.276 0 .5.224.5.5v20.792c0 .276-.224.499-.5.499zm-20.292-1h19.792v-19.791h-19.792z" fill="#1d2445"/><path d="m13.721 24.19-7.268-12.719 3.473-1.985 4.188 7.329 12.143-16.815 3.243 2.342z" fill="#1d2445"/><path d="m21.292 57.646h-20.792v-20.791h20.792z" fill="#fff"/><path d="m21.292 58.146h-20.792c-.276 0-.5-.224-.5-.5v-20.791c0-.276.224-.5.5-.5h20.792c.276 0 .5.224.5.5v20.792c0 .276-.224.499-.5.499zm-20.292-1h19.792v-19.791h-19.792z" fill="#1d2445"/><path d="m21.292 89.646h-20.792v-20.791h20.792z" fill="#fff"/><g fill="#1d2445"><path d="m21.292 90.146h-20.792c-.276 0-.5-.224-.5-.5v-20.791c0-.276.224-.5.5-.5h20.792c.276 0 .5.224.5.5v20.792c0 .276-.224.499-.5.499zm-20.292-1h19.792v-19.791h-19.792z"/><path d="m5.071 76.963h17.274v4h-17.274z" transform="matrix(.7071 .7071 -.7071 .7071 59.85 13.4342)"/><path d="m14.455 66.044h4v24.115h-4z" transform="matrix(.7071 .7071 -.7071 .7071 60.0456 11.2403)"/></g></svg></g><!--ITEM: Illustration component 10--><g transform="translate(2382.5 1260.0) rotate(0.0 -382.5 472.5)  scale(-4.838893316634407 4.8337843160323075)"><svg width="158.094" height="195.499" viewBox="0.0 0.0 158.094 195.499"><g fill="#1d2445"><path d="m138.559 122.612-25.979 8.174-65.822 35.379s7.626 15.206 7.418 14.657l70.579-25.961a19.524 19.524 0 0 0 3.291-1.573l19.143-11.456a10.607 10.607 0 0 0 3.632-14.586 10.607 10.607 0 0 0 -12.262-4.634z"/><path d="m54.2 181.347c-.108 0-.225-.082-.424-.372l-.069.023a.5.5 0 0 1 -.032-.175c-.5-.794-1.464-2.7-3.673-7.089-1.849-3.671-3.691-7.345-3.691-7.345a.5.5 0 0 1 .209-.665l65.822-35.379 26.066-8.21a11.107 11.107 0 0 1 9.037 20.125l-19.145 11.456a19.957 19.957 0 0 1 -3.375 1.614l-70.465 25.92a.433.433 0 0 1 -.079.044.453.453 0 0 1 -.181.053zm-6.778-14.973c2.544 5.072 6.106 12.15 6.982 13.83l70.178-25.813a19.028 19.028 0 0 0 3.207-1.532l19.144-11.459a10.108 10.108 0 0 0 -8.224-18.315l-25.979 8.174z"/><path d="m82.047 171.073h32.21l37.974-25.251a12.014 12.014 0 0 0 4.093-15.377 15.621 15.621 0 0 0 -20.706-7.109l-53.571 25.6z"/><path d="m114.257 171.573h-32.21a.5.5 0 0 1 -.5-.5v-22.142a.5.5 0 0 1 .285-.451l53.568-25.595a16.2 16.2 0 0 1 21.368 7.336 12.529 12.529 0 0 1 -4.263 16.017l-37.974 25.251a.5.5 0 0 1 -.274.084zm-31.71-1h31.559l37.849-25.167a11.53 11.53 0 0 0 3.922-14.738 15.194 15.194 0 0 0 -20.043-6.881l-53.287 25.459z"/><path d="m44.092 130.703h72.527v23.97h-72.527z"/><path d="m116.619 155.173h-72.527a.5.5 0 0 1 -.5-.5v-23.973a.5.5 0 0 1 .5-.5h72.527a.5.5 0 0 1 .5.5v23.971a.5.5 0 0 1 -.5.502zm-72.027-1h71.527v-22.973h-71.527z"/><path d="m76.047 171.073h-32.21l-37.974-25.251a12.013 12.013 0 0 1 -4.093-15.377 15.621 15.621 0 0 1 20.706-7.109l53.571 25.6z"/><path d="m76.047 171.573h-32.21a.5.5 0 0 1 -.276-.084l-37.975-25.251a12.529 12.529 0 0 1 -4.263-16.017 16.2 16.2 0 0 1 21.369-7.336l53.571 25.595a.5.5 0 0 1 .284.451v22.142a.5.5 0 0 1 -.5.5zm-32.059-1h31.559v-21.327l-53.286-25.459a15.193 15.193 0 0 0 -20.044 6.881 11.529 11.529 0 0 0 3.923 14.738z"/><path d="m79.765 48.633h-15.609v-40.203a7.93 7.93 0 0 1 7.93-7.93h4.9a2.776 2.776 0 0 1 2.776 2.776v45.357z"/><path d="m79.765 49.133h-15.609a.5.5 0 0 1 -.5-.5v-40.203a8.439 8.439 0 0 1 8.429-8.43h4.905a3.28 3.28 0 0 1 3.276 3.276v45.357a.5.5 0 0 1 -.501.5zm-15.109-1h14.609v-44.857a2.279 2.279 0 0 0 -2.275-2.276h-4.905a7.438 7.438 0 0 0 -7.429 7.43z"/><path d="m25.453 194.861a7.823 7.823 0 0 1 -7.385-2.576l-6.558-7.6a4.552 4.552 0 0 1 2.257-7.22l26.966-7.965 7.054 15.166-9.65 7.778z"/><path d="m24 195.5a8.35 8.35 0 0 1 -6.312-2.886l-6.557-7.6a5.05 5.05 0 0 1 2.493-8.025l26.967-7.957a.5.5 0 0 1 .595.268l7.053 15.166a.5.5 0 0 1 -.139.6l-9.65 7.777a.51.51 0 0 1 -.221.1l-12.684 2.413a8.245 8.245 0 0 1 -1.545.144zm16.461-25.391-26.553 7.835a4.051 4.051 0 0 0 -2.009 6.427l6.547 7.59a7.34 7.34 0 0 0 6.913 2.411l12.561-2.389 9.248-7.453z"/></g><path d="m41.225 171.1 5.113 10.623 10.619-5.111a3.86 3.86 0 0 0 1.8-5.152l-1.757-3.66a3.86 3.86 0 0 0 -5.152-1.8z" fill="#fff"/><path d="m46.338 182.226a.525.525 0 0 1 -.165-.028.5.5 0 0 1 -.285-.255l-5.114-10.623a.5.5 0 0 1 .234-.667l10.619-5.112a4.361 4.361 0 0 1 5.82 2.038l1.765 3.667a4.36 4.36 0 0 1 -2.038 5.819l-10.619 5.111a.5.5 0 0 1 -.217.05zm-4.445-10.89 4.679 9.723 10.168-4.9a3.36 3.36 0 0 0 1.571-4.484l-1.766-3.667a3.357 3.357 0 0 0 -4.484-1.571z" fill="#1d2445"/><path d="m55.184 180.836-2.155-4.655a3.912 3.912 0 0 0 -4.677-2.1l-1.449.436-.488-1.049 1.175-.7a3.911 3.911 0 0 0 1.543-5l-1.185-2.568-4.737 2.2-26.632 7.859a4.552 4.552 0 0 0 -2.257 7.22l6.558 7.6a7.823 7.823 0 0 0 7.385 2.576l12.684-2.413 8.207-6.615z" fill="#fff"/><path d="m26.813 193.29a8.35 8.35 0 0 1 -6.313-2.89l-6.557-7.6a5.05 5.05 0 0 1 2.493-8.025l26.632-7.859 4.669-2.168a.5.5 0 0 1 .664.245l1.185 2.561a4.4 4.4 0 0 1 -1.74 5.639l-.788.471.114.247 1.035-.311a4.434 4.434 0 0 1 5.275 2.371l2.155 4.655a.5.5 0 0 1 .015.382.492.492 0 0 1 -.259.282l-5.972 2.764-8.159 6.576a.51.51 0 0 1 -.221.1l-12.684 2.413a8.245 8.245 0 0 1 -1.544.147zm20.892-27.423-4.284 1.983-26.7 7.884a4.051 4.051 0 0 0 -2.009 6.426l6.547 7.591a7.342 7.342 0 0 0 6.913 2.411l12.561-2.389 8.109-6.536a.533.533 0 0 1 .1-.065l5.574-2.58-1.944-4.2a3.431 3.431 0 0 0 -4.08-1.834l-1.449.436a.5.5 0 0 1 -.6-.267l-.488-1.049a.5.5 0 0 1 .2-.641l1.175-.7a3.405 3.405 0 0 0 1.346-4.36z" fill="#1d2445"/><path d="m132.374 194.861a7.823 7.823 0 0 0 7.385-2.576l6.558-7.6a4.552 4.552 0 0 0 -2.257-7.22l-26.966-7.965-7.054 15.17 9.65 7.778z" fill="#1d2445"/><path d="m133.826 195.5a8.245 8.245 0 0 1 -1.545-.145l-12.681-2.416a.515.515 0 0 1 -.221-.1l-9.65-7.777a.5.5 0 0 1 -.139-.6l7.054-15.166a.5.5 0 0 1 .595-.268l26.966 7.957a5.051 5.051 0 0 1 2.5 8.012l-6.569 7.617a8.351 8.351 0 0 1 -6.31 2.886zm-13.919-3.517 12.56 2.389a7.348 7.348 0 0 0 6.914-2.411l6.558-7.6a4.052 4.052 0 0 0 -2.021-6.414l-26.552-7.835-6.708 14.421z" fill="#1d2445"/><path d="m19.268 122.612 25.979 8.174 65.822 35.379s-7.626 15.206-7.418 14.657l-70.579-25.961a19.524 19.524 0 0 1 -3.291-1.573l-19.143-11.456a10.607 10.607 0 0 1 -3.632-14.586 10.608 10.608 0 0 1 12.262-4.634z" fill="#1d2445"/><path d="m103.627 181.347a.462.462 0 0 1 -.181-.053.424.424 0 0 1 -.078-.044l-70.468-25.92a19.994 19.994 0 0 1 -3.375-1.614l-19.144-11.456a11.107 11.107 0 0 1 9.037-20.125l25.982 8.174 65.909 35.415a.5.5 0 0 1 .21.665s-1.842 3.674-3.691 7.345c-2.21 4.386-3.171 6.295-3.674 7.089a.48.48 0 0 1 -.032.175l-.067-.024c-.203.291-.32.373-.428.373zm-87.556-58.729a10.111 10.111 0 0 0 -5.171 18.782l19.143 11.456a19.028 19.028 0 0 0 3.207 1.532l70.172 25.812c.876-1.68 4.439-8.758 6.982-13.83l-65.394-35.144-25.892-8.138a10.188 10.188 0 0 0 -3.047-.47z" fill="#1d2445"/><path d="m116.6 171.1-5.113 10.623-10.619-5.111a3.86 3.86 0 0 1 -1.8-5.152l1.765-3.667a3.86 3.86 0 0 1 5.152-1.8z" fill="#fff"/><path d="m111.489 182.226a.5.5 0 0 1 -.217-.05l-10.619-5.111a4.358 4.358 0 0 1 -2.037-5.819l1.764-3.667a4.363 4.363 0 0 1 5.82-2.038l10.619 5.112a.5.5 0 0 1 .234.667l-5.113 10.623a.5.5 0 0 1 -.286.255.515.515 0 0 1 -.165.028zm-7.174-16.115a3.362 3.362 0 0 0 -3.033 1.9l-1.765 3.667a3.359 3.359 0 0 0 1.57 4.484l10.168 4.9 4.68-9.723-10.168-4.894a3.347 3.347 0 0 0 -1.452-.334z" fill="#1d2445"/><path d="m141.248 175.254-26.629-7.854-4.739-2.2-1.185 2.561a3.911 3.911 0 0 0 1.543 5l1.175.7-.488 1.049-1.449-.436a3.912 3.912 0 0 0 -4.677 2.1l-2.155 4.655 6.026 2.789 8.208 6.616 12.684 2.413a7.823 7.823 0 0 0 7.385-2.576l6.558-7.6a4.552 4.552 0 0 0 -2.257-7.217z" fill="#fff"/><path d="m131.014 193.29a8.245 8.245 0 0 1 -1.545-.145l-12.684-2.413a.515.515 0 0 1 -.221-.1l-8.16-6.578-5.97-2.762a.492.492 0 0 1 -.259-.282.5.5 0 0 1 .015-.382l2.156-4.655a4.435 4.435 0 0 1 5.274-2.371l1.034.311.115-.247-.787-.471a4.4 4.4 0 0 1 -1.74-5.639l1.185-2.561a.5.5 0 0 1 .281-.26.51.51 0 0 1 .382.015l4.739 2.194 26.561 7.833a5.051 5.051 0 0 1 2.505 8.012l-6.569 7.617a8.351 8.351 0 0 1 -6.312 2.884zm-13.914-3.517 12.56 2.389a7.349 7.349 0 0 0 6.914-2.411l6.558-7.6a4.052 4.052 0 0 0 -2.021-6.414l-26.628-7.859-4.354-2.009-.975 2.108a3.406 3.406 0 0 0 1.346 4.361l1.174.7a.5.5 0 0 1 .2.64l-.488 1.049a.5.5 0 0 1 -.6.267l-1.449-.436a3.426 3.426 0 0 0 -4.079 1.834l-1.945 4.2 5.572 2.578a.533.533 0 0 1 .1.065z" fill="#1d2445"/><path d="m116.012 60.958.027-5.546a11.236 11.236 0 0 0 -11.3-11.29l-11.225.059-.027-.059h-26.066l-.089.2-11.222.059a11.233 11.233 0 0 0 -10.9 8.8h-.023l-20.3 53.484 5.948 5.38.158.013a10 10 0 0 0 10.146-6.279l12.228-30.873v3.483a19.392 19.392 0 0 0 .106 2l.06 24.736a19.993 19.993 0 0 1 -1.249 7.006l-7.124 19.2 68.477.622-6.2-19.8a20 20 0 0 1 -.914-5.978v-8.575l1.391 8.174a10 10 0 0 0 8.626 8.245l.157.02 5.643-12.439z" fill="#1d2445"/><path d="m113.637 132.451-68.477-.623a.5.5 0 0 1 -.464-.673l7.124-19.2a19.422 19.422 0 0 0 1.218-6.832l-.06-24.735a19.047 19.047 0 0 1 -.106-2v-.864l-11.272 28.438a10.425 10.425 0 0 1 -10.654 6.593l-.155-.013a.5.5 0 0 1 -.3-.127l-5.948-5.38a.5.5 0 0 1 -.131-.548l20.303-53.487a.607.607 0 0 1 .034-.073 11.664 11.664 0 0 1 11.359-9.051l10.914-.057a.5.5 0 0 1 .4-.2h26.07a.5.5 0 0 1 .235.059l11.015-.059a11.737 11.737 0 0 1 11.8 11.792l-.027 5.508 6.322 40.6a.488.488 0 0 1 -.039.284l-5.644 12.436a.5.5 0 0 1 -.516.289l-.157-.02a10.439 10.439 0 0 1 -9.058-8.657l-.4-2.342v2.661a19.448 19.448 0 0 0 .892 5.828l6.2 19.8a.5.5 0 0 1 -.477.65zm-67.761-1.616 67.078.61-6-19.145a20.493 20.493 0 0 1 -.937-6.127v-8.573a.5.5 0 0 1 .458-.5.507.507 0 0 1 .535.414l1.392 8.174a9.442 9.442 0 0 0 7.988 7.8l5.429-11.962-6.3-40.494a.516.516 0 0 1 -.006-.079l.027-5.546a10.736 10.736 0 0 0 -10.74-10.786h-.057l-11.226.06a.494.494 0 0 1 -.237-.06h-25.55a.5.5 0 0 1 -.4.2l-11.222.059a10.671 10.671 0 0 0 -10.42 8.41.485.485 0 0 1 -.093.2l-20.125 53.033 5.569 5.037a9.448 9.448 0 0 0 9.63-5.967l12.231-30.872a.5.5 0 0 1 .965.185v3.483a18.761 18.761 0 0 0 .1 1.946l.062 24.786a20.424 20.424 0 0 1 -1.281 7.182z" fill="#1d2445"/><path d="m76.691 8.694a2.5 2.5 0 0 1 -2.165-3.746 7.089 7.089 0 0 1 4.822-3.167 8.016 8.016 0 0 1 6.435 1.282 2.5 2.5 0 1 1 -3 4 3.086 3.086 0 0 0 -2.428-.385 2.521 2.521 0 0 0 -1.5.762 2.5 2.5 0 0 1 -2.164 1.254z" fill="#fff"/><path d="m76.69 9.194a3 3 0 0 1 -2.6-4.5 7.585 7.585 0 0 1 5.155-3.408 8.521 8.521 0 0 1 6.835 1.371 3 3 0 1 1 -3.6 4.8 2.634 2.634 0 0 0 -2.027-.3 2.324 2.324 0 0 0 -1.175.541 2.994 2.994 0 0 1 -2.588 1.496zm4.473-7.1a8.552 8.552 0 0 0 -1.715.177 6.594 6.594 0 0 0 -4.489 2.929 2 2 0 0 0 .741 2.728 2.054 2.054 0 0 0 2.729-.737 2.923 2.923 0 0 1 1.828-1 3.577 3.577 0 0 1 2.828.473 2 2 0 1 0 2.4-3.2 7.174 7.174 0 0 0 -4.322-1.37z" fill="#1d2445"/><path d="m76.494 36.22 23.291-8.329v-7.72a14.46 14.46 0 0 0 -14.461-14.461h-4.1a14.46 14.46 0 0 0 -14.465 14.461v6.314a9.736 9.736 0 0 0 9.735 9.735z" fill="#1d2445"/><path d="m76.494 36.72a10.248 10.248 0 0 1 -10.235-10.235v-6.314a14.978 14.978 0 0 1 14.961-14.961h4.1a14.979 14.979 0 0 1 14.961 14.961v7.72a.5.5 0 0 1 -.332.471l-23.287 8.329a.507.507 0 0 1 -.168.029zm4.726-30.51a13.976 13.976 0 0 0 -13.961 13.961v6.314a9.248 9.248 0 0 0 9.149 9.235l22.877-8.182v-7.367a13.977 13.977 0 0 0 -13.961-13.961z" fill="#1d2445"/><path d="m74.6 26.539a2.487 2.487 0 0 0 -2.46-2.239h-.147a2.494 2.494 0 0 0 -2.486 2.486v6.886a2.494 2.494 0 0 0 2.486 2.486h.147a2.566 2.566 0 0 0 .278-.028v8.026l14 14.2a2 2 0 0 0 3.425-1.4v-8.89l2.406-.024a1.705 1.705 0 0 0 1.447-.831l2.666-4.462a14.6 14.6 0 0 0 2.067-7.49v-8.72z" fill="#fff"/><path d="m87.829 59.459a2.462 2.462 0 0 1 -1.765-.752l-14-14.2a.492.492 0 0 1 -.145-.35v-7.5a2.99 2.99 0 0 1 -2.91-2.985v-6.89a2.989 2.989 0 0 1 2.984-2.982h.147a2.969 2.969 0 0 1 2.88 2.243h23.412a.5.5 0 0 1 .5.5v8.72a15.114 15.114 0 0 1 -2.138 7.747l-2.666 4.462a2.217 2.217 0 0 1 -1.872 1.074l-1.91.019v8.391a2.462 2.462 0 0 1 -1.552 2.314 2.54 2.54 0 0 1 -.965.189zm-14.912-15.512 13.859 14.059a1.5 1.5 0 0 0 2.57-1.054v-8.886a.5.5 0 0 1 .495-.5l2.406-.024a1.213 1.213 0 0 0 1.023-.587l2.666-4.462a14.118 14.118 0 0 0 2-7.234v-8.22h-23.336a.5.5 0 0 1 -.5-.45 1.975 1.975 0 0 0 -1.96-1.789h-.147a1.988 1.988 0 0 0 -1.986 1.986v6.886a1.988 1.988 0 0 0 1.986 1.986h.147a.968.968 0 0 0 .132-.014.6.6 0 0 1 .435.113.533.533 0 0 1 .21.372z" fill="#1d2445"/><path d="m95.748 127.683a1.859 1.859 0 0 0 -1.837-1.443l-7.881.12-8.487-3.56-1.405-1.1a.516.516 0 0 1 -.168-.589.55.55 0 0 1 .519-.357h.011c1.421.049 5.967.291 6.73.341a1.374 1.374 0 0 0 1.47-1.265v-.13a1.411 1.411 0 0 0 -.978-1.346s-3.585-.838-5.871-1.324a8.629 8.629 0 0 1 -2.319-.822 7.509 7.509 0 0 0 -3.87-.81l-3.7.324c-1.783.161-3.186.292-4.754 1.684l-31.917-14.056a4.752 4.752 0 0 0 -5.115.563l-.823.668a9.566 9.566 0 0 0 -1.4 13.456l1.174 1.447a4.748 4.748 0 0 0 2.9 1.69l23.591 3.983h-.006l.43.068 5.093.86.049-.045 10.082 1.6v.01a7.753 7.753 0 0 1 .773.141l.06.016 7.34 1.941a3.543 3.543 0 0 0 2.54-.271l2.249-1.146 3.908 1.1a6.241 6.241 0 0 0 2.74.173l8.5-1.351a.472.472 0 0 0 .389-.535v-.011z" fill="#fff"/><path d="m76.356 130.371a4.075 4.075 0 0 1 -1.055-.138l-7.339-1.941a6.988 6.988 0 0 0 -.766-.143.481.481 0 0 1 -.12-.031l-9.824-1.557a.442.442 0 0 1 -.2.02l-5.518-.926a.421.421 0 0 1 -.072-.018l-23.518-3.97a5.249 5.249 0 0 1 -3.2-1.868l-1.174-1.446a10.067 10.067 0 0 1 1.475-14.16l.823-.668a5.258 5.258 0 0 1 5.653-.621l31.611 13.913a7.727 7.727 0 0 1 4.8-1.6l3.7-.324a8.046 8.046 0 0 1 4.141.863 8.153 8.153 0 0 0 2.189.777c2.3.488 5.886 1.327 5.886 1.327a1.92 1.92 0 0 1 1.352 1.84v.134a1.888 1.888 0 0 1 -2.006 1.765c-.792-.052-5.337-.293-6.712-.34l1.324 1.112 8.321 3.492 7.777-.117h.029a2.369 2.369 0 0 1 2.3 1.831l.006.029v.029a.977.977 0 0 1 -.8 1.121l-8.5 1.352a6.837 6.837 0 0 1 -2.959-.187l-3.716-1.048-2.064 1.051a3.993 3.993 0 0 1 -1.844.447zm-8.925-3.2c.238.033.473.079.713.135l7.414 1.96a3.031 3.031 0 0 0 2.182-.231l2.252-1.147a.5.5 0 0 1 .362-.036l3.909 1.1a5.789 5.789 0 0 0 2.525.161l8.467-1.346a1.366 1.366 0 0 0 -1.321-1.028h-.017l-7.88.119a.459.459 0 0 1 -.2-.039l-8.486-3.563a.47.47 0 0 1 -.115-.066l-1.405-1.1a1.015 1.015 0 0 1 -.327-1.164 1.044 1.044 0 0 1 .986-.677c1.409.048 5.975.29 6.774.342a.873.873 0 0 0 .938-.807v-.084a.911.911 0 0 0 -.632-.87c-.007 0-3.553-.829-5.821-1.311a9.116 9.116 0 0 1 -2.448-.868 6.964 6.964 0 0 0 -3.607-.754l-3.684.323c-1.749.157-3.013.271-4.465 1.56a.506.506 0 0 1 -.534.084l-31.92-14.05a4.26 4.26 0 0 0 -4.6.492l-.823.668a9.065 9.065 0 0 0 -1.328 12.753l1.174 1.446a4.243 4.243 0 0 0 2.592 1.513l23.594 3.977a.623.623 0 0 1 .062.015l.358.057 4.945.835a.486.486 0 0 1 .2-.021l10.082 1.6a.449.449 0 0 1 .084.022z" fill="#1d2445"/><path d="m79.419 173.066a.5.5 0 0 1 -.154-.976l38.45-12.457a.5.5 0 1 1 .308.951l-38.449 12.457a.5.5 0 0 1 -.155.025z" fill="#fff"/><path d="m52.505 163.694a.5.5 0 0 1 -.267-.923l32.307-20.355a39 39 0 0 1 7.725-3.748l32.694-11.608a.5.5 0 1 1 .335.941l-32.694 11.609a38.024 38.024 0 0 0 -7.527 3.652l-32.307 20.355a.5.5 0 0 1 -.266.077z" fill="#fff"/><path d="m106.92 97.066a.5.5 0 0 1 -.484-.625l2.616-10.091a8.6 8.6 0 0 0 -.615-5.9c-1.252-2.584-2.456-5.612-3.246-7.7a2.47 2.47 0 0 1 .1-1.987 2.508 2.508 0 0 1 1.525-1.288l2.963-.889a.5.5 0 0 1 .287.957l-2.962.889a1.5 1.5 0 0 0 -.974 1.965c.782 2.065 1.974 5.063 3.21 7.614a9.6 9.6 0 0 1 .683 6.589l-2.623 10.091a.5.5 0 0 1 -.48.375z" fill="#fff"/><path d="m81.9 133.39h-42.091a3.424 3.424 0 0 1 -3.424-3.424h48.942a3.424 3.424 0 0 1 -3.427 3.424z" fill="#fff"/><path d="m81.9 133.89h-42.091a3.928 3.928 0 0 1 -3.924-3.924.5.5 0 0 1 .5-.5h48.942a.5.5 0 0 1 .5.5 3.928 3.928 0 0 1 -3.927 3.924zm-44.975-3.424a2.928 2.928 0 0 0 2.881 2.424h42.094a2.928 2.928 0 0 0 2.881-2.424z" fill="#1d2445"/><path d="m120.234 133.39h-65.062a1.612 1.612 0 0 1 -1.558-2.283l12.562-39.57a3.4 3.4 0 0 1 3.008-2.283h65.062a1.612 1.612 0 0 1 1.558 2.283l-12.563 39.57a3.4 3.4 0 0 1 -3.007 2.283z" fill="#fff"/><path d="m120.234 133.89h-65.062a2.129 2.129 0 0 1 -1.779-.835 2.326 2.326 0 0 1 -.256-2.1l12.563-39.569a3.884 3.884 0 0 1 3.484-2.632h65.062a2.127 2.127 0 0 1 1.778.835 2.325 2.325 0 0 1 .257 2.1l-12.563 39.57a3.882 3.882 0 0 1 -3.484 2.631zm-51.05-44.136a2.917 2.917 0 0 0 -2.531 1.935l-12.563 39.57a1.325 1.325 0 0 0 .11 1.205 1.156 1.156 0 0 0 .972.426h65.062a2.917 2.917 0 0 0 2.531-1.934l12.563-39.57a1.333 1.333 0 0 0 -.111-1.207 1.158 1.158 0 0 0 -.971-.425z" fill="#1d2445"/><path d="m93.909 116.84h-1.9c-2.522 0-3.916-2.045-3.116-4.566l.6-1.9a6.806 6.806 0 0 1 6.015-4.566h1.9c2.521 0 3.916 2.045 3.116 4.566l-.6 1.9a6.807 6.807 0 0 1 -6.015 4.566z" fill="#1d2445"/><path d="m93.909 117.339h-1.9a3.769 3.769 0 0 1 -3.153-1.465 4.161 4.161 0 0 1 -.44-3.752l.6-1.9a7.347 7.347 0 0 1 6.492-4.915h1.9a3.77 3.77 0 0 1 3.152 1.465 4.16 4.16 0 0 1 .44 3.753l-.6 1.9a7.347 7.347 0 0 1 -6.491 4.914zm1.6-11.034a6.282 6.282 0 0 0 -5.539 4.218l-.6 1.9a3.142 3.142 0 0 0 .3 2.86 2.8 2.8 0 0 0 2.345 1.054h1.9a6.282 6.282 0 0 0 5.538-4.217l.6-1.9a3.137 3.137 0 0 0 -.294-2.859 2.8 2.8 0 0 0 -2.345-1.056z" fill="#fff"/><path d="m117.838 114.931c0 .007 0 .016.011.021a2.9 2.9 0 0 0 3.385.961l10.355-4.416a1.122 1.122 0 0 0 .666-.838l.238-1.355a1.871 1.871 0 0 0 -1.519-2.168l-.53-.093a1.118 1.118 0 0 0 -.763.138l-11.5 6.761a.738.738 0 0 0 -.343.989z" fill="#fff"/><path d="m120.134 116.591a3.174 3.174 0 0 1 -2.7-1.364.654.654 0 0 1 -.051-.093 1.238 1.238 0 0 1 .58-1.642l11.466-6.742a1.627 1.627 0 0 1 1.105-.2l.529.093a2.373 2.373 0 0 1 1.924 2.747l-.237 1.354a1.622 1.622 0 0 1 -.962 1.212l-10.355 4.415a4.028 4.028 0 0 1 -1.299.22zm-1.853-1.892a2.4 2.4 0 0 0 2.793.74l10.319-4.4a.622.622 0 0 0 .37-.465l.237-1.355a1.374 1.374 0 0 0 -1.113-1.589l-.529-.093a.623.623 0 0 0 -.423.077l-11.5 6.76a.277.277 0 0 0 -.156.156.234.234 0 0 0 .002.17z" fill="#1d2445"/><path d="m118.92 119.32a.04.04 0 0 0 .012.021 2.9 2.9 0 0 0 3.385.961l10.355-4.416a1.123 1.123 0 0 0 .665-.838l.239-1.354a1.873 1.873 0 0 0 -1.519-2.169l-.529-.093a1.127 1.127 0 0 0 -.764.138l-11.5 6.761a.738.738 0 0 0 -.344.989z" fill="#fff"/><path d="m121.217 120.981a3.175 3.175 0 0 1 -2.7-1.365.692.692 0 0 1 -.052-.1 1.238 1.238 0 0 1 .581-1.639l11.468-6.742a1.623 1.623 0 0 1 1.1-.2l.53.094a2.37 2.37 0 0 1 1.924 2.747l-.238 1.354a1.619 1.619 0 0 1 -.962 1.211l-10.355 4.416a4.017 4.017 0 0 1 -1.296.224zm-1.853-1.892a2.4 2.4 0 0 0 2.792.739l10.32-4.4a.623.623 0 0 0 .369-.465l.238-1.354a1.37 1.37 0 0 0 -1.113-1.589l-.53-.094a.653.653 0 0 0 -.423.077l-11.5 6.761a.28.28 0 0 0 -.157.155.244.244 0 0 0 .004.17z" fill="#1d2445"/><path d="m120.9 123.711a.043.043 0 0 0 .013.019 2.725 2.725 0 0 0 3.265.537l9.206-5.23a1.055 1.055 0 0 0 .533-.855l.078-1.291a1.762 1.762 0 0 0 -1.651-1.865l-.5-.03a1.053 1.053 0 0 0 -.7.211l-10.034 7.543a.694.694 0 0 0 -.21.961z" fill="#fff"/><path d="m122.822 125.071a2.95 2.95 0 0 1 -2.3-1.021.6.6 0 0 1 -.051-.07 1.2 1.2 0 0 1 .369-1.653l9.994-7.52a1.562 1.562 0 0 1 1.029-.311l.5.032a2.259 2.259 0 0 1 2.119 2.393l-.078 1.291a1.551 1.551 0 0 1 -.784 1.259l-9.207 5.231a3.743 3.743 0 0 1 -1.591.369zm-1.512-1.641a2.231 2.231 0 0 0 2.651.385l9.172-5.213a.558.558 0 0 0 .281-.449l.078-1.292a1.262 1.262 0 0 0 -1.182-1.335l-.5-.032a.532.532 0 0 0 -.367.111l-10.028 7.545a.233.233 0 0 0 -.12.143.2.2 0 0 0 .015.137z" fill="#1d2445"/><path d="m122.128 126.917a.042.042 0 0 0 .011.017 2.514 2.514 0 0 0 2.993.6l7.331-3.661a.975.975 0 0 0 .517-.771l.113-1.188a1.622 1.622 0 0 0 -1.464-1.768l-.463-.044a.973.973 0 0 0 -.651.172l-8.16 5.768a.641.641 0 0 0 -.227.875z" fill="#fff"/><path d="m123.971 128.27a2.774 2.774 0 0 1 -2.226-1.029.6.6 0 0 1 -.047-.069 1.14 1.14 0 0 1 .4-1.565l8.125-5.745a1.491 1.491 0 0 1 .985-.262l.465.044a2.121 2.121 0 0 1 1.913 2.313l-.112 1.188a1.468 1.468 0 0 1 -.784 1.167l-7.339 3.666a3.505 3.505 0 0 1 -1.38.292zm-1.42-1.621a2.021 2.021 0 0 0 2.383.423l7.305-3.651a.468.468 0 0 0 .244-.371l.112-1.186a1.122 1.122 0 0 0 -1.013-1.224l-.463-.044a.466.466 0 0 0 -.317.084l-8.159 5.767c-.077.046-.093.083-.1.108a.14.14 0 0 0 .008.094z" fill="#1d2445"/><ellipse cx="86.071" cy="27.761" fill="#1d2445" rx="13.714" ry="6.389"/><path d="m86.071 34.65c-7.971 0-14.215-3.026-14.215-6.889s6.244-6.889 14.215-6.889 14.214 3.026 14.214 6.889-6.244 6.889-14.214 6.889zm0-12.778c-7.163 0-13.215 2.7-13.215 5.889s6.052 5.889 13.215 5.889 13.214-2.7 13.214-5.889-6.052-5.889-13.214-5.889z" fill="#1d2445"/><path d="m72.357 15.45h6.129v11.476l-6.129.899z" fill="#1d2445"/><path d="m72.357 28.326a.5.5 0 0 1 -.5-.5v-12.376a.5.5 0 0 1 .5-.5h6.129a.5.5 0 0 1 .5.5v11.476a.5.5 0 0 1 -.427.5l-6.129.9a.611.611 0 0 1 -.073 0zm.5-12.376v11.3l5.129-.752v-10.548z" fill="#1d2445"/><path d="m79.193 36.6a.5.5 0 0 1 -.5-.5 2.329 2.329 0 0 1 2.326-2.326h5.134a.5.5 0 0 1 .5.5v1.546a.5.5 0 1 1 -1 0v-1.042h-4.634a1.327 1.327 0 0 0 -1.326 1.322.5.5 0 0 1 -.5.5z" fill="#1d2445"/><path d="m89.589 42.291a.5.5 0 0 1 -.064-1l1.035-.135a1.294 1.294 0 0 0 1.24-1.256l.118-5.16v-4.594a.5.5 0 0 1 1 0v4.6l-.118 5.174a2.282 2.282 0 0 1 -2.141 2.236l-1 .131a.473.473 0 0 1 -.07.004z" fill="#1d2445"/><path d="m90.544 48.566h-3.483a5.458 5.458 0 0 1 -3.261-1.066l-5.3-3.9a.5.5 0 0 1 .593-.805l5.3 3.9a4.472 4.472 0 0 0 2.667.875h3.483a.5.5 0 1 1 0 1z" fill="#1d2445"/><path d="m90.169 47.191a.5.5 0 0 1 -.274-.082l-1.73-1.132a1.085 1.085 0 0 1 .545-1.992l3.686-.168a.483.483 0 0 1 .523.476.5.5 0 0 1 -.477.522l-3.686.168a.086.086 0 0 0 -.044.157l1.731 1.133a.5.5 0 0 1 -.274.918z" fill="#1d2445"/></svg></g><!--ITEM: Illustration component 11--><g transform="translate(855.0 532.5) rotate(0.0 158.75 158.75)  scale(7.354644429001621 7.354644429001621)"><svg width="43.17" height="43.17" viewBox="0.0 0.0 43.17 43.17"><g fill="#fff" stroke="#1d2445" stroke-linecap="round" stroke-linejoin="round" stroke-miterlimit="10"><circle cx="21.585" cy="21.585" r="21.085"/><circle cx="21.585" cy="14.37" r="6.381"/><path d="m21.585 22.117c-5.287 0-9.572 4.286-9.572 9.572v5.542h19.144v-5.542c0-5.286-4.286-9.572-9.572-9.572z"/></g></svg></g><!--ITEM: Illustration component 12--><g transform="translate(2075.0 537.5) rotate(89.99999999999997 320.0 248.75) translate(17.5 17.5) scale(7.819850200994587 7.818024671957256)"><svg width="75.12931640625" height="55.96042713567838" viewBox="2.2378945312500003 2.2384170854271352 75.12931640625 55.96042713567838"><path d="m.5.5h80.843v62.635h-80.843z" fill="#fff"/><g fill="#1d2445"><path d="m81.343 63.634h-80.843c-.276 0-.5-.224-.5-.5v-62.634c0-.277.224-.5.5-.5h80.843c.276 0 .5.224.5.5v62.635c0 .276-.224.499-.5.499zm-80.343-1h79.843v-61.634h-79.843z"/><path d="m9.968 9.24h61.907v45.155h-61.907z"/><path d="m71.874 54.895h-61.906c-.276 0-.5-.224-.5-.5v-45.156c0-.276.224-.5.5-.5h61.906c.276 0 .5.224.5.5v45.156c0 .277-.223.5-.5.5zm-61.406-1h60.906v-44.156h-60.906z"/></g></svg></g></svg>