<svg xmlns="http://www.w3.org/2000/svg" version="1.1" viewBox="0 0 3000 2250" width="3000" height="2250">
<defs/><!--ITEM: Illustration background 1--><g transform="translate(106.875 155.625) rotate(0.0 1390.3125 810.0)  scale(4.339167004775131 4.332709280556299)"><svg width="640.82" height="373.9" viewBox="0.0 0.0 640.82 373.9"><path d="m.5.5h199.44v372.9h-199.44z" fill="#fff"/><path d="m200.44 373.9h-200.44v-373.9h200.44zm-199.44-1h198.44v-371.9h-198.44z" fill="#1d2445"/><path d="m220.94.5h198.94v372.9h-198.94z" fill="#fff"/><path d="m420.38 373.9h-199.94v-373.9h199.94zm-198.94-1h197.94v-371.9h-197.94z" fill="#1d2445"/><path d="m440.88.5h199.44v372.9h-199.44z" fill="#fff"/><path d="m640.82 373.9h-200.44v-373.9h200.44zm-199.44-1h198.44v-371.9h-198.44z" fill="#1d2445"/><path d="m137.899 199.797v-21.531h-62.009v195.129h92.152v-173.598z" fill="#fff"/><path d="m168.542 373.895h-93.152v-196.129h63.009v21.531h30.143zm-92.152-1h91.152v-172.598h-30.143v-21.531h-61.009z" fill="#1d2445"/><path d="m332.41 340.4v33h-111.47v-121.97h9.5v-55.98h10.99v-39.99h14l11-79.98 9.99 79.98h15v39.99h11v55.98h15.99v88.97z" fill="#fff"/><path d="m332.91 373.9h-112.47v-122.97h9.5v-55.98h10.99v-39.99h14.064l11.46-83.323 10.407 83.323h15.059v39.99h11v55.98h15.99v88.97h14zm-111.47-1h110.47v-32h-14v-88.97h-15.99v-55.98h-11v-39.99h-14.941l-9.572-76.637-10.54 76.637h-13.937v39.99h-10.99v55.98h-9.5z" fill="#1d2445"/><path d="m524.35 244.43v128.97h-83.47v-128.97h.5v-46.98l34.1-13.96 34.88 13.96v46.98z" fill="#fff"/><path d="m524.849 373.9h-84.47v-129.97h.5v-46.816l34.599-14.164 35.382 14.161v46.818h13.989zm-83.469-1h82.47v-127.97h-13.99v-47.141l-34.378-13.759-33.603 13.756v47.144h-.5v127.97z" fill="#1d2445"/><path d="m392.85.5 27.03 17.9v59.95l-116.27-77.01.56-.84z" fill="#fff"/><path d="m420.38 79.281-117.464-77.801.986-1.48h89.098l.126.083 27.254 18.048zm-116.076-78.081 115.076 76.219v-58.75l-26.681-17.669h-88.262z" fill="#1d2445"/><path d="m640.32 164.4v59.96l-199.44-132.1v-59.95z" fill="#fff"/><path d="m640.82 225.291-200.44-132.762v-61.15l200.44 132.752zm-199.44-133.3 198.44 131.438v-58.76l-198.44-131.428z" fill="#1d2445"/><path d="m267.62.5 152.26 100.64v23.96l-188.5-124.6z" fill="#fff"/><path d="m420.38 126.03-.775-.513-189.888-125.517h38.054l.125.083 152.484 100.788zm-187.337-125.03 186.337 123.17v-22.761l-151.911-100.409z" fill="#1d2445"/><path d="m640.32 246.85v23.96l-199.44-131.83v-23.96z" fill="#fff"/><path d="m640.82 271.74-.775-.513-199.665-131.978v-25.159l.775.513 199.665 131.978zm-199.44-133.029 198.44 131.169v-22.761l-198.44-131.169z" fill="#1d2445"/><path d="m168.04 241.79 31.9 21.1v35.97l-31.9-21.11-92.15-60.97-75.39-49.88v-35.96l75.39 49.88z" fill="#fff"/><path d="m200.44 299.79-200.44-132.621v-37.159l200.44 132.612zm-199.44-133.159 198.44 131.299v-34.771l-198.44-131.289z" fill="#1d2445"/><path d="m366.96 373.4h-54.36l-91.66-60.65v-35.96l111.47 73.75z" fill="#fff"/><path d="m368.622 373.9h-56.172l-92.009-60.881v-37.159zm-55.872-1h52.547l-143.857-95.18v34.761z" fill="#1d2445"/><path d="m168.04 299.99 31.9 21.05v23.97l-31.9-21.06-92.15-60.81-75.39-49.76v-23.96l75.39 49.76z" fill="#fff"/><path d="m200.44 345.939-200.44-132.29v-25.158l200.44 132.28zm-199.44-132.828 198.44 130.97v-22.772l-198.44-130.96z" fill="#1d2445"/><path d="m279.27 373.4h-36.31l-22.02-14.53v-23.97z" fill="#fff"/><path d="m280.935 373.9h-38.125l-22.37-14.761v-25.168zm-37.825-1h34.495l-56.165-37.071v22.772z" fill="#1d2445"/></svg></g><!--ITEM: Illustration component 2--><g transform="translate(1078.125 613.125) rotate(0.0 414.375 289.6875)  scale(4.016565454871494 4.006216333953353)"><svg width="206.333" height="144.619" viewBox="0.0 0.0 206.333 144.619"><path d="m132.004 142.227-1.328-.676c-5.028-2.56-8.195-7.725-8.195-13.367v-46.464h-38.63v46.464c0 5.642-3.166 10.808-8.195 13.367l-1.328.676c-.937.477-.598 1.891.454 1.891h56.767c1.052.001 1.392-1.414.455-1.891z" fill="#fff"/><g fill="#1d2445"><path d="m131.55 144.618h-56.767c-.708 0-1.294-.462-1.458-1.15-.165-.688.148-1.365.778-1.686l1.327-.677c4.886-2.487 7.922-7.438 7.922-12.922v-46.463c0-.276.224-.5.5-.5h38.63c.276 0 .5.224.5.5v46.464c0 5.482 3.035 10.435 7.922 12.923l1.327.676c.63.32.943.998.778 1.686s-.751 1.149-1.459 1.149zm-47.198-62.398v45.964c0 5.861-3.245 11.154-8.468 13.813l-1.327.677c-.326.166-.281.472-.26.563.021.09.12.383.486.383h56.767c.366 0 .465-.294.486-.384s.066-.396-.259-.562l-1.328-.676c-5.223-2.659-8.468-7.953-8.468-13.813v-45.965z"/><path d="m200.833.5h-195.333c-2.761 0-5 2.239-5 5v104c0 2.761 2.239 5 5 5h195.333c2.761 0 5-2.239 5-5v-104c0-2.761-2.238-5-5-5z"/><path d="m200.833 115h-195.333c-3.033 0-5.5-2.468-5.5-5.5v-104c0-3.032 2.467-5.5 5.5-5.5h195.333c3.033 0 5.5 2.468 5.5 5.5v104c0 3.033-2.467 5.5-5.5 5.5zm-195.333-114c-2.481 0-4.5 2.019-4.5 4.5v104c0 2.481 2.019 4.5 4.5 4.5h195.333c2.481 0 4.5-2.019 4.5-4.5v-104c0-2.481-2.019-4.5-4.5-4.5z"/></g><path d="m205.833 96.933h-205.333v12.567c0 2.761 2.239 5 5 5h195.333c2.761 0 5-2.239 5-5z" fill="#fff"/><path d="m200.833 115h-195.333c-3.033 0-5.5-2.467-5.5-5.5v-12.567c0-.276.224-.5.5-.5h205.333c.276 0 .5.224.5.5v12.567c0 3.034-2.467 5.5-5.5 5.5zm-199.833-17.567v12.067c0 2.481 2.019 4.5 4.5 4.5h195.333c2.481 0 4.5-2.019 4.5-4.5v-12.067z" fill="#1d2445"/><path d="m7.549 7.267h191.235v82.984h-191.235z" fill="#fff"/><path d="m198.784 90.75h-191.235c-.276 0-.5-.224-.5-.5v-82.983c0-.276.224-.5.5-.5h191.235c.276 0 .5.224.5.5v82.983c-0 .277-.224.5-.5.5zm-190.735-1h190.235v-81.983h-190.235z" fill="#1d2445"/><path d="m105.114 109.917h-3.895c-1.1 0-2-.9-2-2v-3.895c0-1.1.9-2 2-2h3.895c1.1 0 2 .9 2 2v3.895c0 1.1-.9 2-2 2z" fill="#fff"/><path d="m105.114 110.416h-3.895c-1.378 0-2.5-1.121-2.5-2.5v-3.895c0-1.379 1.122-2.5 2.5-2.5h3.895c1.378 0 2.5 1.121 2.5 2.5v3.895c0 1.379-1.121 2.5-2.5 2.5zm-3.895-7.894c-.827 0-1.5.673-1.5 1.5v3.895c0 .827.673 1.5 1.5 1.5h3.895c.827 0 1.5-.673 1.5-1.5v-3.895c0-.827-.673-1.5-1.5-1.5z" fill="#1d2445"/></svg></g><!--ITEM: Illustration component 3--><g transform="translate(2433.75 1175.625) rotate(0.0 -660.0 499.6875) translate(-0.0 0.0) scale(-6.933647098373744 6.928604607630391)"><svg width="146.83830681818182" height="144.239" viewBox="0.0 0.0 146.83830681818182 144.239"><path d="m3.002 143.739c-.216 0-.435-.028-.653-.088-1.333-.359-2.122-1.731-1.762-3.064l37.178-137.696c.359-1.334 1.733-2.127 3.065-1.762 1.333.359 2.122 1.731 1.762 3.064l-37.178 137.697c-.301 1.115-1.31 1.849-2.412 1.849z" fill="#fff"/><path d="m3.002 144.239c-.264 0-.528-.035-.785-.105-.772-.208-1.418-.706-1.817-1.4s-.504-1.503-.295-2.276l37.177-137.697c.422-1.565 2.108-2.543 3.681-2.114.771.208 1.417.706 1.817 1.4s.504 1.503.295 2.276l-37.178 137.697c-.352 1.306-1.543 2.219-2.895 2.219zm37.171-142.699c-.898 0-1.69.608-1.925 1.48l-37.178 137.697c-.14.517-.069 1.056.197 1.519s.696.794 1.212.934c1.054.287 2.171-.368 2.452-1.409l37.179-137.698c.14-.517.069-1.056-.197-1.519s-.697-.793-1.213-.933c-.174-.048-.351-.071-.527-.071z" fill="#1d2445"/><path d="m187.374 143.739c-1.102 0-2.111-.734-2.412-1.85l-37.179-137.696c-.36-1.333.429-2.705 1.762-3.064 1.332-.364 2.706.428 3.065 1.762l37.178 137.696c.36 1.333-.429 2.705-1.762 3.064-.217.06-.437.088-.652.088z" fill="#fff"/><g fill="#1d2445"><path d="m187.374 144.239c-1.352 0-2.542-.913-2.895-2.22l-37.179-137.696c-.208-.773-.104-1.582.295-2.276s1.045-1.192 1.819-1.4c.256-.07.522-.106.787-.106 1.351 0 2.539.913 2.892 2.221l37.178 137.696c.208.773.104 1.582-.295 2.276s-1.045 1.192-1.819 1.4c-.255.07-.519.105-.783.105zm-37.172-142.699c-.176 0-.353.024-.525.071-.518.14-.948.471-1.214.934s-.336 1.002-.197 1.519l37.178 137.696c.28 1.041 1.404 1.696 2.451 1.409.518-.14.948-.471 1.214-.934s.336-1.002.197-1.519l-37.178-137.695c-.235-.872-1.027-1.481-1.926-1.481z"/><path d="m14.745 0h160.667v6.667h-160.667z"/></g></svg></g><!--ITEM: Illustration component 4--><g transform="translate(562.5 1175.625) rotate(0.0 660.0 499.6875) translate(0.0 0.0) scale(6.933647098373744 6.928604607630391)"><svg width="146.83830681818182" height="144.239" viewBox="0.0 0.0 146.83830681818182 144.239"><path d="m3.002 143.739c-.216 0-.435-.028-.653-.088-1.333-.359-2.122-1.731-1.762-3.064l37.178-137.696c.359-1.334 1.733-2.127 3.065-1.762 1.333.359 2.122 1.731 1.762 3.064l-37.178 137.697c-.301 1.115-1.31 1.849-2.412 1.849z" fill="#fff"/><path d="m3.002 144.239c-.264 0-.528-.035-.785-.105-.772-.208-1.418-.706-1.817-1.4s-.504-1.503-.295-2.276l37.177-137.697c.422-1.565 2.108-2.543 3.681-2.114.771.208 1.417.706 1.817 1.4s.504 1.503.295 2.276l-37.178 137.697c-.352 1.306-1.543 2.219-2.895 2.219zm37.171-142.699c-.898 0-1.69.608-1.925 1.48l-37.178 137.697c-.14.517-.069 1.056.197 1.519s.696.794 1.212.934c1.054.287 2.171-.368 2.452-1.409l37.179-137.698c.14-.517.069-1.056-.197-1.519s-.697-.793-1.213-.933c-.174-.048-.351-.071-.527-.071z" fill="#1d2445"/><path d="m187.374 143.739c-1.102 0-2.111-.734-2.412-1.85l-37.179-137.696c-.36-1.333.429-2.705 1.762-3.064 1.332-.364 2.706.428 3.065 1.762l37.178 137.696c.36 1.333-.429 2.705-1.762 3.064-.217.06-.437.088-.652.088z" fill="#fff"/><g fill="#1d2445"><path d="m187.374 144.239c-1.352 0-2.542-.913-2.895-2.22l-37.179-137.696c-.208-.773-.104-1.582.295-2.276s1.045-1.192 1.819-1.4c.256-.07.522-.106.787-.106 1.351 0 2.539.913 2.892 2.221l37.178 137.696c.208.773.104 1.582-.295 2.276s-1.045 1.192-1.819 1.4c-.255.07-.519.105-.783.105zm-37.172-142.699c-.176 0-.353.024-.525.071-.518.14-.948.471-1.214.934s-.336 1.002-.197 1.519l37.178 137.696c.28 1.041 1.404 1.696 2.451 1.409.518-.14.948-.471 1.214-.934s.336-1.002.197-1.519l-37.178-137.695c-.235-.872-1.027-1.481-1.926-1.481z"/><path d="m14.745 0h160.667v6.667h-160.667z"/></g></svg></g><!--ITEM: Illustration component 5--><g transform="translate(1901.25 180.0) rotate(0.0 333.75 1009.6875)  scale(5.689470005625544 5.689934996322939)"><svg width="117.322" height="354.903" viewBox="0.0 0.0 117.322 354.903"><path d="m79.132 278.382-7.708 35.463-2.624 12.081-1.432 6.6-.425 1.952-1.373 6.311-.675 3.114-1.026 4.735-.061.271-6.722-1.365c-1.591-.32-3.278-.662-4.834-.971-.88-.18-1.714-.344-2.471-.5-1.941-.388-3.343-.661-3.523-.686l.027-.61.076-1.728.591-13.588.665-15.24-2.217-44.78a34.571 34.571 0 0 1 .335-6.8l5.719-38.37 25.894 5.189 2.159 42.1a22.519 22.519 0 0 1 -.375 6.822z" fill="#fff"/><path d="m63.807 349.408a.482.482 0 0 1 -.1-.01l-7.414-1.5c-1.381-.279-2.808-.567-4.141-.832l-2.471-.5c-2.072-.415-3.347-.661-3.5-.682a.5.5 0 0 1 -.428-.517l1.363-31.167-2.216-44.734a34.98 34.98 0 0 1 .34-6.9l5.719-38.368a.5.5 0 0 1 .593-.417l25.894 5.189a.5.5 0 0 1 .4.464l2.158 42.1a22.876 22.876 0 0 1 -.385 6.959l-15.319 70.524a.5.5 0 0 1 -.493.391zm-17.031-4.432c.662.125 1.914.372 3.1.611l2.471.5c1.331.263 2.76.552 4.142.832l6.934 1.406 15.217-70.045a21.934 21.934 0 0 0 .365-6.675l-2.14-41.73-25-5.009-5.637 37.844a34.128 34.128 0 0 0 -.33 6.707l2.217 44.783z" fill="#1d2445"/><path d="m25.316 351.45-4.4-2.62a4.663 4.663 0 0 1 -2.244-3.284 3.313 3.313 0 0 1 2.818-3.878l8.342-1.216a15.611 15.611 0 0 0 11.919-8.407l2.751-5.472 3.66 2.059a2.1 2.1 0 0 1 1.057 2.387l-.8 2.472 5.018 1.97a8.537 8.537 0 0 0 9.286-1.583l3.524-3.555a1.234 1.234 0 0 1 1.976.784l3.079 16-1.434 3.765z" fill="#fff"/><path d="m25.315 351.95a.513.513 0 0 1 -.256-.07l-4.4-2.621a5.148 5.148 0 0 1 -2.483-3.644 3.817 3.817 0 0 1 3.241-4.442l8.342-1.216a15.109 15.109 0 0 0 11.545-8.137l2.75-5.472a.5.5 0 0 1 .692-.211l3.66 2.06a2.6 2.6 0 0 1 1.287 2.977l-.653 2.026 4.579 1.8a8.083 8.083 0 0 0 8.748-1.469l3.524-3.555a1.52 1.52 0 0 1 1.551-.356 1.849 1.849 0 0 1 1.272 1.4l3.079 16a.5.5 0 0 1 -.025.273l-1.433 3.765a.5.5 0 0 1 -.46.322l-44.553.582zm19.4-24.685-2.516 5a16.092 16.092 0 0 1 -12.293 8.678l-8.342 1.216a2.806 2.806 0 0 0 -2.395 3.313 4.139 4.139 0 0 0 2 2.924l4.277 2.548 44.071-.575 1.263-3.315-3.049-15.854a.842.842 0 0 0 -.581-.631.548.548 0 0 0 -.548.1l-3.524 3.555a9.084 9.084 0 0 1 -9.824 1.7l-5.018-1.969a.5.5 0 0 1 -.293-.62l.8-2.472a1.614 1.614 0 0 0 -.826-1.8z" fill="#1d2445"/><path d="m71.683 348.155-.523 1.583a6.848 6.848 0 0 1 -6.7 4.665h-33.473a4.15 4.15 0 0 1 -1.9-.481l-6.047-3.153a.539.539 0 0 1 .249-1.017h25.357a1.627 1.627 0 0 0 1.232-.531 8.16 8.16 0 0 1 6.188-2.668h14.375a1.294 1.294 0 0 1 1.242 1.602z" fill="#1d2445"/><path d="m64.46 354.9h-33.473a4.667 4.667 0 0 1 -2.136-.537l-6.051-3.15a1.039 1.039 0 0 1 .48-1.961h25.365a1.123 1.123 0 0 0 .859-.363 8.608 8.608 0 0 1 6.561-2.836h14.377a1.81 1.81 0 0 1 1.454.766 1.647 1.647 0 0 1 .261 1.493l-.522 1.582a7.37 7.37 0 0 1 -7.175 5.006zm-41.176-4.651 6.029 3.227a3.651 3.651 0 0 0 1.674.424h33.473a6.383 6.383 0 0 0 6.225-4.322l.523-1.578a.665.665 0 0 0 -.122-.593.807.807 0 0 0 -.645-.352h-14.376a7.623 7.623 0 0 0 -5.813 2.5 2.142 2.142 0 0 1 -1.607.7z" fill="#fff"/><path d="m68.165 328.583-24.555-.083 1.566-60.369a34.749 34.749 0 0 1 .366-4.2l5.912-39.669 25.9 5.19 2.156 42.095a22.224 22.224 0 0 1 -.375 6.828z" fill="#1d2445"/><path d="m68.166 329.083-24.558-.083a.5.5 0 0 1 -.356-.152.5.5 0 0 1 -.142-.361l1.567-60.369a35.133 35.133 0 0 1 .371-4.26l5.913-39.67a.5.5 0 0 1 .593-.417l25.894 5.191a.5.5 0 0 1 .4.464l2.152 42.097a22.66 22.66 0 0 1 -.386 6.962l-10.964 50.2a.5.5 0 0 1 -.484.398zm-24.043-1.083 23.641.078 10.877-49.811a21.741 21.741 0 0 0 .366-6.676l-2.137-41.723-25-5.011-5.836 39.15a34.144 34.144 0 0 0 -.359 4.138z" fill="#1d2445"/><path d="m104.591 278.382-3.929 35.463-1.338 12.081-.729 6.6-.217 1.952-.7 6.311-.344 3.114-.521 4.735-.032.271-6.867-1.365c-1.626-.32-3.349-.662-4.938-.971-.9-.18-1.75-.344-2.524-.5-1.982-.388-3.413-.661-3.6-.686l-.038-.61-.108-1.728-.857-13.588-.959-15.24-5.522-48.2-.226-41.755 26.447 5.189 6.645 42.1a22.509 22.509 0 0 1 .357 6.827z" fill="#fff"/><path d="m96.781 349.408a.473.473 0 0 1 -.1-.01l-7.707-1.53c-1.369-.271-2.778-.549-4.095-.805l-2.525-.5c-2.117-.414-3.419-.66-3.569-.682a.5.5 0 0 1 -.43-.463l-1.955-31.162-5.52-48.177-.229-41.809a.5.5 0 0 1 .6-.493l26.447 5.189a.5.5 0 0 1 .4.412l6.644 42.1a22.855 22.855 0 0 1 .356 6.96l-7.811 70.531a.5.5 0 0 1 -.5.441zm-17.45-4.442c.659.123 1.973.376 3.218.621l2.525.5c1.315.256 2.726.534 4.1.805l7.176 1.425 7.747-69.985a21.945 21.945 0 0 0 -.346-6.675l-6.597-41.777-25.5-5 .223 41.143 5.519 48.149z" fill="#1d2445"/><path d="m56.649 351.45-4.4-2.62a4.663 4.663 0 0 1 -2.244-3.284 3.313 3.313 0 0 1 2.818-3.878l8.342-1.216a15.611 15.611 0 0 0 11.919-8.407l2.751-5.472 3.66 2.059a2.1 2.1 0 0 1 1.057 2.387l-.8 2.472 5.018 1.97a8.537 8.537 0 0 0 9.286-1.583l3.524-3.555a1.234 1.234 0 0 1 1.976.784l3.079 16-1.434 3.765z" fill="#fff"/><path d="m56.649 351.95a.513.513 0 0 1 -.256-.07l-4.4-2.621a5.15 5.15 0 0 1 -2.483-3.643 3.818 3.818 0 0 1 3.241-4.443l8.342-1.216a15.109 15.109 0 0 0 11.545-8.137l2.75-5.472a.5.5 0 0 1 .692-.211l3.66 2.06a2.6 2.6 0 0 1 1.287 2.977l-.655 2.023 4.58 1.8a8.09 8.09 0 0 0 8.748-1.469l3.523-3.555a1.524 1.524 0 0 1 1.55-.357 1.852 1.852 0 0 1 1.274 1.4l3.078 16a.5.5 0 0 1 -.025.273l-1.433 3.765a.5.5 0 0 1 -.46.322l-44.552.582zm19.4-24.685-2.516 5a16.092 16.092 0 0 1 -12.293 8.678l-8.34 1.22a2.807 2.807 0 0 0 -2.4 3.313 4.143 4.143 0 0 0 2.005 2.924l4.278 2.548 44.07-.575 1.263-3.315-3.051-15.858a.841.841 0 0 0 -.582-.631.548.548 0 0 0 -.548.1l-3.523 3.555a9.084 9.084 0 0 1 -9.824 1.7l-5.019-1.969a.5.5 0 0 1 -.293-.62l.8-2.472a1.614 1.614 0 0 0 -.826-1.8z" fill="#1d2445"/><path d="m103.016 348.155-.523 1.583a6.848 6.848 0 0 1 -6.7 4.665h-33.473a4.15 4.15 0 0 1 -1.905-.481l-6.047-3.153a.539.539 0 0 1 .249-1.017h25.362a1.627 1.627 0 0 0 1.232-.531 8.16 8.16 0 0 1 6.188-2.668h14.375a1.294 1.294 0 0 1 1.242 1.602z" fill="#1d2445"/><path d="m95.793 354.9h-33.473a4.687 4.687 0 0 1 -2.136-.536l-6.047-3.154a1.039 1.039 0 0 1 .48-1.961h25.362a1.123 1.123 0 0 0 .858-.363 8.613 8.613 0 0 1 6.562-2.836h14.375a1.887 1.887 0 0 1 1.456.766 1.647 1.647 0 0 1 .261 1.493l-.523 1.583a7.371 7.371 0 0 1 -7.175 5.008zm-41.176-4.651 6.029 3.227a3.657 3.657 0 0 0 1.674.424h33.473a6.383 6.383 0 0 0 6.225-4.322l.524-1.583a.665.665 0 0 0 -.122-.593.807.807 0 0 0 -.645-.352h-14.375a7.626 7.626 0 0 0 -5.814 2.5 2.141 2.141 0 0 1 -1.606.7z" fill="#fff"/><path d="m98.974 328.583-24.564-.083-5.037-62.479 1.774-41.758 26.448 5.19 6.641 42.095a22.2 22.2 0 0 1 .353 6.828z" fill="#1d2445"/><path d="m98.973 329.083-24.565-.083a.5.5 0 0 1 -.5-.46l-5.037-62.48 1.772-41.82a.5.5 0 0 1 .191-.371.486.486 0 0 1 .406-.1l26.447 5.191a.5.5 0 0 1 .4.412l6.641 42.094a22.632 22.632 0 0 1 .356 6.964l-5.615 50.2a.5.5 0 0 1 -.496.453zm-24.102-1.083 23.655.077 5.566-49.759a21.678 21.678 0 0 0 -.346-6.676l-6.591-41.769-25.533-5.011-1.749 41.178z" fill="#1d2445"/><path d="m99.325 122.5c2.415-9.987-1.318-20.371-3.215-30.469l-1.6-7.719.619.06-3.429-19.719c-3.1-15.28-16.356-26.279-31.73-27.716a7.874 7.874 0 0 0 -3.514.462l-.419.158c-16.713-1.061-21.9 22.96-20.72 43.968l7.146 47.846a33.668 33.668 0 0 0 1.426 5.873l1.956 5.748-2.473.008-2 47.454-7 43h65.5l-.5-79z" fill="#fff"/><path d="m99.872 231.958h-65.5a.5.5 0 0 1 -.493-.58l7-43 1.993-47.4a.5.5 0 0 1 .5-.478l1.781-.009-1.732-5.09a34.3 34.3 0 0 1 -1.446-5.96l-7.148-47.841c-.791-14.06 1.3-31.947 9.537-40.122a14.693 14.693 0 0 1 11.6-4.425l.319-.121a8.412 8.412 0 0 1 3.736-.492c15.885 1.485 29.116 13.047 32.174 28.115l3.428 19.728a.5.5 0 0 1 -.484.586l1.463 7.056c.43 2.284.961 4.619 1.475 6.876 1.782 7.832 3.624 15.929 1.751 23.753l.047 29.9.5 79a.5.5 0 0 1 -.5.5zm-64.912-1h64.409l-.5-78.5-.044-29.958a.515.515 0 0 1 .014-.118c1.842-7.615.02-15.617-1.741-23.356-.515-2.266-1.048-4.611-1.479-6.9l-1.6-7.71a.5.5 0 0 1 .118-.435.522.522 0 0 1 .386-.166l-3.311-19.076c-2.97-14.626-15.835-25.86-31.285-27.3a7.436 7.436 0 0 0 -3.289.432l-.421.158a.486.486 0 0 1 -.207.031 13.735 13.735 0 0 0 -10.942 4.131c-8 7.941-10.022 25.513-9.248 39.31l7.142 47.8a33.145 33.145 0 0 0 1.4 5.786l1.956 5.748a.5.5 0 0 1 -.472.661l-2 .01-1.979 46.977z" fill="#1d2445"/><path d="m92.129 200.538-29.554.076.958-35.714h28.596z" fill="#fff"/><path d="m62.575 201.114a.5.5 0 0 1 -.5-.514l.958-35.714a.5.5 0 0 1 .5-.486h28.6a.5.5 0 0 1 .5.5v35.638a.5.5 0 0 1 -.5.5l-29.554.076zm1.444-35.714-.93 34.713 28.54-.074v-34.639z" fill="#1d2445"/><path d="m12.971 34.016 12.244 18.428a3.857 3.857 0 0 0 6.236.075l14.523-19.443z" fill="#c78982"/><path d="m16.021 15.346.411-.292a3.857 3.857 0 0 1 5.378.912l7.754 10.923-14.564 10.341-2.172-3.06a13.5 13.5 0 0 1 3.193-18.824z" fill="#c78982"/><path d="m16.584 30.618h11.197v14.234h-11.197z" fill="#c78982" transform="matrix(.81539058 -.57891122 .57891122 .81539058 -17.75 19.808)"/><path d="m42.927 18.478-.027.022-5.529-8.219a10.489 10.489 0 0 0 -14.553-2.851l-4.4 2.958a17.922 17.922 0 0 0 -4.864 24.874l3.074 4.569-.813 4.532a1.873 1.873 0 0 0 2.851 1.909l1.606-1.025 3.767 5.6 10.683-7.188 13.947 20.723a1.124 1.124 0 0 0 2.035-.414l5.1-26.349z" fill="#fff"/><path d="m49.588 65.38a1.594 1.594 0 0 1 -1.334-.719l-13.665-20.309-10.268 6.908a.506.506 0 0 1 -.375.076.5.5 0 0 1 -.319-.211l-3.494-5.194-1.2.763a2.373 2.373 0 0 1 -3.611-2.42l.776-4.332-2.96-4.4a18.445 18.445 0 0 1 5-25.568l4.4-2.958a11 11 0 0 1 15.251 2.984l5.444 8.092a.456.456 0 0 1 .109.11l12.88 19.138a.511.511 0 0 1 .076.375l-5.098 26.348a1.6 1.6 0 0 1 -1.27 1.282 1.7 1.7 0 0 1 -.342.035zm-14.864-22.222a.5.5 0 0 1 .415.221l13.945 20.721a.623.623 0 0 0 1.129-.229l5.063-26.146-12.676-18.825a.517.517 0 0 1 -.116-.122l-5.529-8.218a10 10 0 0 0 -13.855-2.715l-4.4 2.955a17.441 17.441 0 0 0 -4.727 24.18l3.073 4.568a.508.508 0 0 1 .077.368l-.813 4.532a1.373 1.373 0 0 0 2.089 1.4l1.608-1.026a.5.5 0 0 1 .683.142l3.488 5.185 10.267-6.909a.5.5 0 0 1 .279-.082z" fill="#1d2445"/><path d="m15.133 37.978a.5.5 0 0 1 -.28-.915l2.128-1.431a1.626 1.626 0 0 1 1.217-.248l1.483.29a.5.5 0 0 1 .395.586.5.5 0 0 1 -.586.4l-1.481-.289a.614.614 0 0 0 -.469.095l-2.128 1.432a.5.5 0 0 1 -.279.08z" fill="#1d2445"/><path d="m29.005 32.862 2.216 3.3a9.164 9.164 0 0 1 .1 10.079 5.2 5.2 0 0 0 -7.218-1.412l-2.832 1.906 4.529 6.611a4 4 0 0 0 6.591.013l4.873-7.054a6 6 0 0 0 .018-6.792l-7.444-10.913a3.071 3.071 0 0 0 -.833 4.262z" fill="#fff"/><path d="m29.1 55.586a4.5 4.5 0 0 1 -3.7-1.957l-4.54-6.616a.5.5 0 0 1 .133-.7l2.832-1.906a5.7 5.7 0 0 1 7.44.938 8.655 8.655 0 0 0 -.459-8.911l-2.216-3.3a3.571 3.571 0 0 1 .968-4.956.5.5 0 0 1 .693.133l7.449 10.921a6.539 6.539 0 0 1 -.021 7.357l-4.873 7.054a4.5 4.5 0 0 1 -3.706 1.943zm-7.13-8.722 4.246 6.2a3.454 3.454 0 0 0 2.884 1.522 3.455 3.455 0 0 0 2.88-1.512l4.872-7.053a5.534 5.534 0 0 0 .018-6.226l-7.139-10.464a2.573 2.573 0 0 0 -.311 3.252l2.217 3.3a9.658 9.658 0 0 1 .106 10.629.5.5 0 0 1 -.415.229.555.555 0 0 1 -.42-.221 4.7 4.7 0 0 0 -6.524-1.276z" fill="#1d2445"/><path d="m27.834 49.46-1.807 1.933a1.094 1.094 0 0 1 -1.708-.136l-1.74-2.587 2.05-1.38a2.4 2.4 0 0 1 3.327.65 1.226 1.226 0 0 1 -.122 1.52z" fill="#fff"/><path d="m25.229 52.241c-.043 0-.087 0-.13-.005a1.587 1.587 0 0 1 -1.2-.7l-1.74-2.587a.5.5 0 0 1 .136-.693l2.049-1.381a2.9 2.9 0 0 1 4.022.786 1.718 1.718 0 0 1 -.166 2.139l-1.807 1.934a1.587 1.587 0 0 1 -1.164.507zm-1.957-3.435 1.462 2.172a.6.6 0 0 0 .928.073l1.807-1.932a.724.724 0 0 0 .072-.9 1.9 1.9 0 0 0 -2.633-.514z" fill="#1d2445"/><path d="m54.232 23.707-.608-.933-10.608-15.765a14.731 14.731 0 0 0 -20.445-4l-5.82 3.916a1.994 1.994 0 0 0 -.861 1.9l-9.454 6.363-4.4 2.96a3.478 3.478 0 0 0 -.944 4.828l2.4 3.57a7.183 7.183 0 0 0 9.969 1.95l.443-.3a8.218 8.218 0 0 0 3.306-4.543l.467-1.629a3.025 3.025 0 0 1 5.214-1.119l4.149 4.895 1.206 1.792a10.168 10.168 0 0 0 14.112 2.76l5.9-3.97 4.192 6.155a6.431 6.431 0 0 0 1.782-8.83z" fill="#fff"/><path d="m52.451 33.039a.5.5 0 0 1 -.413-.219l-3.913-5.744-5.487 3.693a10.683 10.683 0 0 1 -14.807-2.9l-1.2-1.793-4.114-4.849a2.524 2.524 0 0 0 -4.351.934l-.468 1.629a8.711 8.711 0 0 1 -3.508 4.819l-.441.3a7.693 7.693 0 0 1 -10.669-2.083l-2.4-3.57a3.983 3.983 0 0 1 1.08-5.523l13.615-9.162a2.476 2.476 0 0 1 1.1-2.06l5.817-3.911a15.25 15.25 0 0 1 21.139 4.13l11.219 16.7a6.965 6.965 0 0 1 -1.919 9.519.5.5 0 0 1 -.28.09zm-4.192-7.156a.5.5 0 0 1 .413.219l3.9 5.726a5.963 5.963 0 0 0 1.241-7.848l-.607-.933-10.606-15.759a14.248 14.248 0 0 0 -19.75-3.863l-5.82 3.916a1.488 1.488 0 0 0 -.643 1.425.5.5 0 0 1 -.217.476l-13.854 9.321a2.981 2.981 0 0 0 -.808 4.137l2.4 3.57a6.689 6.689 0 0 0 9.275 1.814l.442-.3a7.717 7.717 0 0 0 3.1-4.266l.468-1.629a3.524 3.524 0 0 1 6.075-1.3l4.148 4.894 1.238 1.837a9.677 9.677 0 0 0 13.418 2.624l5.9-3.971a.505.505 0 0 1 .287-.09z" fill="#1d2445"/><path d="m36.187 31.657-2.6 2.077-4.1-5.647a4.218 4.218 0 0 1 .782-5.777l.188-.151a3.382 3.382 0 0 1 5.293 1.5l1.513 4.211a3.383 3.383 0 0 1 -1.076 3.787z" fill="#fff"/><g fill="#1d2445"><path d="m33.585 34.234a.517.517 0 0 1 -.068 0 .5.5 0 0 1 -.336-.2l-4.1-5.647a4.712 4.712 0 0 1 .875-6.462l.186-.15a3.883 3.883 0 0 1 6.078 1.719l1.511 4.206a3.883 3.883 0 0 1 -1.231 4.348l-2.6 2.077a.5.5 0 0 1 -.315.109zm-1.032-12.317a2.854 2.854 0 0 0 -1.788.632l-.186.15a3.714 3.714 0 0 0 -.691 5.094l3.793 5.224 2.194-1.751a2.885 2.885 0 0 0 .915-3.229l-1.514-4.211a2.849 2.849 0 0 0 -1.928-1.8 2.9 2.9 0 0 0 -.795-.109z"/><path d="m39.529 95.35h47.759v66.5h-47.759z" transform="matrix(.75309279 -.65791432 .65791432 .75309279 -68.953 73.471)"/><path d="m67.3 169.852h-.034a.5.5 0 0 1 -.343-.17l-43.751-50.082a.5.5 0 0 1 .048-.706l35.966-31.421a.5.5 0 0 1 .706.047l43.752 50.08a.5.5 0 0 1 -.047.706l-35.967 31.423a.5.5 0 0 1 -.33.123zm-43.046-50.533 43.094 49.328 35.214-30.764-43.094-49.328z"/><path d="m34.012 100.114h17.879v8.329h-17.879z" transform="matrix(.75309279 -.65791432 .65791432 .75309279 -58.002 54.006)"/></g><path d="m38.959 113.8h-.033a.507.507 0 0 1 -.344-.17l-5.48-6.273a.5.5 0 0 1 .048-.706l13.464-11.767a.5.5 0 0 1 .706.048l5.481 6.273a.5.5 0 0 1 -.048.706l-13.465 11.763a.5.5 0 0 1 -.329.126zm-4.775-6.725 4.823 5.519 12.712-11.1-4.819-5.528z" fill="#fff"/><path d="m65.841 152.128 27.959-24.989-4.45-3.189-11.182-7.863-15.089 19.248a10.99 10.99 0 0 0 -2.916-.865l-3.737-.744a7.647 7.647 0 0 0 -3.324.185l-6.09.894a1.846 1.846 0 0 0 -1.3.862 1.37 1.37 0 0 0 -.306.567l-1.076 4.153a.745.745 0 0 0 .534.907l.28.072a2.6 2.6 0 0 0 3.07-1.55l.417-1.037 1.843-.263c.215.069.522.172.553.182a.572.572 0 0 1 .368.393.524.524 0 0 1 -.115.437l-6.7 2.6-.029.008-2.977 1.157a1.533 1.533 0 0 0 -1.054 1.837c.293 1.19 1.091 2.123 2.129 1.927l2.261-.551-1.26.494c-.284.1-.7.555-.581.885v.015c.293 1.191 1.487 2.874 2.525 2.678l.212-.053-.189.073c-.284.1-.7.555-.582.885l.006.015c.28 1.136 1.46 2.673 2.47 2.643a.574.574 0 0 0 -.224.519v.014c.2 1.095.708 2.3 1.752 2.15l11.261-1.724.007-.056a5.21 5.21 0 0 0 1.546-.325l.619-.244a8.9 8.9 0 0 0 1.8-.969h.026l.093-.083a8.971 8.971 0 0 0 1.45-1.295z" fill="#fff"/><path d="m48.863 157.336c-1.009 0-1.748-.909-2.053-2.542 0-.014-.006-.027-.008-.038a.657.657 0 0 1 -.021-.274 4.656 4.656 0 0 1 -2.221-2.866.925.925 0 0 1 .079-.745 4.757 4.757 0 0 1 -2.05-2.854.807.807 0 0 1 -.024-.443c-1.165.095-2.155-.806-2.527-2.323a2.075 2.075 0 0 1 .111-1.307 2.135 2.135 0 0 1 1.251-1.116l2.927-1.137a.38.38 0 0 1 .081-.032l.019-.008a1.247 1.247 0 0 1 -.583-1.39l1.076-4.152a1.875 1.875 0 0 1 .414-.772 2.286 2.286 0 0 1 1.6-1.028l6.092-.893a7.983 7.983 0 0 1 3.48-.183l3.751.747a13.035 13.035 0 0 1 2.67.734l14.843-18.936a.5.5 0 0 1 .682-.1l15.638 11.054a.5.5 0 0 1 .042.779l-27.938 24.971a9.49 9.49 0 0 1 -1.509 1.345l-.05.05a.518.518 0 0 1 -.145.089 9.342 9.342 0 0 1 -1.833.974l-.619.244a5.43 5.43 0 0 1 -1.49.342.4.4 0 0 1 -.171.069l-11.253 1.721a1.807 1.807 0 0 1 -.261.02zm-1.077-2.744c.114.562.425 1.85 1.19 1.735l11.07-1.693a.437.437 0 0 1 .228-.088 4.575 4.575 0 0 0 1.4-.291l.62-.245a8.443 8.443 0 0 0 1.7-.915l.053-.032.017-.015a8.835 8.835 0 0 0 1.408-1.254.359.359 0 0 1 .039-.039l27.489-24.574-3.942-2.825-10.791-7.588-14.8 18.876a.5.5 0 0 1 -.622.137 10.481 10.481 0 0 0 -2.787-.82l-3.736-.745a7.114 7.114 0 0 0 -3.093.176l-6.151.907a1.351 1.351 0 0 0 -.949.632 1.062 1.062 0 0 0 -.246.428l-1.077 4.152a.244.244 0 0 0 .175.3l.279.073a2.109 2.109 0 0 0 2.482-1.252l.417-1.038a.5.5 0 0 1 .393-.308l1.844-.264a.5.5 0 0 1 .224.02l.55.181a1.083 1.083 0 0 1 .7.744 1.022 1.022 0 0 1 -.2.862.492.492 0 0 1 -.22.167l-6.7 2.6-.026.01-2.977 1.156a1.027 1.027 0 0 0 -.741 1.238c.218.89.789 1.7 1.554 1.567l2.236-.545a.5.5 0 0 1 .3.951l-1.264.49a.6.6 0 0 0 -.284.3c.273 1.066 1.31 2.435 1.96 2.317l.181-.047a.5.5 0 0 1 .6.333.5.5 0 0 1 -.3.618l-.189.073a.612.612 0 0 0 -.285.3c.271 1.058 1.325 2.272 1.967 2.272h.031a.5.5 0 0 1 .353.855.6.6 0 0 0 -.08.108zm-.016-.079.009.043a.207.207 0 0 0 -.009-.043zm1.215-15.28-.309.769 2.13-.827-.056-.042-.322-.106z" fill="#1d2445"/><path d="m67.411 68.564 22.95 34.336-28.148 25.437 14.692 16.256 35.835-32.388a12.412 12.412 0 0 0 2.824-14.653 9.282 9.282 0 0 0 -.868-1.627l-24.406-36.509" fill="#fff"/><path d="m76.905 145.093h-.025a.5.5 0 0 1 -.346-.164l-14.691-16.257a.5.5 0 0 1 .036-.706l27.827-25.152-22.706-33.972a.5.5 0 0 1 .832-.556l22.95 34.331a.5.5 0 0 1 -.081.649l-27.781 25.107 14.021 15.514 35.464-32.053a11.963 11.963 0 0 0 2.71-14.062 8.9 8.9 0 0 0 -.835-1.569l-24.406-36.509a.5.5 0 1 1 .832-.556l24.406 36.508a9.73 9.73 0 0 1 .914 1.716 12.953 12.953 0 0 1 -2.951 15.214l-35.835 32.389a.5.5 0 0 1 -.335.128z" fill="#1d2445"/><path d="m72.644 303.692a.5.5 0 0 1 -.5-.439l-5.667-46.334-.332-19.719a.5.5 0 0 1 .492-.509.479.479 0 0 1 .508.491l.333 19.666 5.663 46.283a.5.5 0 0 1 -.435.556.43.43 0 0 1 -.062.005z" fill="#fff"/><path d="m90.361 103.4a.5.5 0 0 1 -.142-.979l4.615-1.376a12.077 12.077 0 0 1 6.955.007.5.5 0 1 1 -.287.957 11.125 11.125 0 0 0 -6.383-.009l-4.619 1.375a.548.548 0 0 1 -.139.025z" fill="#1d2445"/><path d="m71.11 74.581a.5.5 0 0 1 -.415-.221l-4.431-6.613a.5.5 0 0 0 -.915.278v3.607a.5.5 0 0 1 -1 0v-3.607a1.5 1.5 0 0 1 2.751-.835l4.43 6.613a.5.5 0 0 1 -.415.778z" fill="#002652"/><path d="m44.892 146.891a.5.5 0 0 1 -.148-.977l6.493-2.023a.5.5 0 0 1 .3.955l-6.493 2.023a.512.512 0 0 1 -.152.022z" fill="#1d2445"/><path d="m45.425 151.256a.5.5 0 0 1 -.141-.98l6.174-1.81a.5.5 0 1 1 .281.959l-6.174 1.81a.49.49 0 0 1 -.14.021z" fill="#1d2445"/><path d="m47.447 154.555a.5.5 0 0 1 -.135-.981l6.068-1.7a.5.5 0 1 1 .269.963l-6.067 1.7a.522.522 0 0 1 -.135.018z" fill="#1d2445"/></svg></g><!--ITEM: Illustration component 6--><g transform="translate(1387.5 688.125) rotate(0.0 105.0 105.0)  scale(0.6400487656202377 0.6400487656202377)"><svg width="328.1" height="328.1" viewBox="0.0 0.0 328.1 328.1"><g fill="rgb(29,36,69)"><path d="m164.3 328.1c-.1 0-.2 0-.3 0-25.9-.3-37.8-36.4-42.9-51.8-10.9-33-16.1-71.1-16.1-116.6 0-45.4 5.1-80.8 16.1-111.5 2.9-8.1 7.5-19.9 14.1-29.7 8.4-12.5 18.2-18.7 28.9-18.5 26 .5 37.8 36.4 42.8 51.8 10.9 33 16.1 71.1 16.1 116.6 0 45.4-5.1 80.8-16.1 111.5-4.2 11.9-17.2 48.2-42.6 48.2zm-.6-318c-12.1 0-23.2 14-33.1 41.6-10.6 29.5-15.5 63.9-15.5 108.1 0 44.4 5.1 81.5 15.6 113.5 4 12.2 14.7 44.7 33.5 44.9h.2c12.2 0 23.4-14 33.3-41.6 10.6-29.5 15.5-63.9 15.5-108.1 0-44.4-5.1-81.5-15.6-113.5-4-12.2-14.7-44.5-33.5-44.9-.2 0-.3 0-.4 0z"/><path d="m245.7 294.8c-14.9 0-29.9-4.6-40.1-8.7-32.2-12.8-62.8-35.4-96.3-71.2-33.6-35.9-106.7-124.2-61.1-169 10.3-10.1 23.2-15 38.4-14.8 21.3.5 47 11.3 76.2 32.4 27.1 19.5 48.4 41.2 56.2 49.7 17.5 18.8 41.9 47.3 58.2 76.7 22.7 40.9 23.7 72 2.9 92.3-9.7 9.4-22 12.6-34.4 12.6zm-160.6-253.6c-12 0-21.8 3.9-30 11.9-40.4 39.7 36.8 128.7 61.4 155 32.4 34.7 61.8 56.5 92.7 68.7 13.3 5.3 46.1 15.6 63.8-1.8 39.3-38.6-29.8-121.3-61.4-155-7.4-8-74.1-77.8-125.3-78.9-.4.1-.8.1-1.2.1z"/><path d="m85.6 292.5c-15.3 0-28-4.9-37.6-14.7-15.4-15.7-16.8-41.4-4.3-76.4 12.2-34.1 34.9-67.3 65.7-96 29.9-27.8 63.1-48.5 96.2-60 14.7-5.1 26.6-7.7 37.2-8.1 15.7-.6 28.2 3.7 37.1 12.8 15.4 15.7 16.8 41.4 4.3 76.4-12.2 34.1-34.9 67.3-65.7 96-17.1 15.9-47.9 39.7-78.7 54.8-20.4 10.2-38.6 15.2-54.2 15.2zm160.2-245.2c-12.5 0-25.9 3.9-36.8 7.6-31.8 11-63.9 31-92.7 57.9-29.7 27.6-51.5 59.4-63.1 92-7.6 21.4-13.5 50.2 2 66.1 16.3 16.6 43.3 15.7 80.4-2.4 29.8-14.6 59.7-37.7 76.3-53.1 29.7-27.6 51.5-59.4 63.1-92 11.1-31.1 10.4-53.4-2-66.1-7.3-7.4-17-10-27.2-10z"/><path d="m196.3 224.5c-10.3 0-21.1-.5-32.6-1.3-43-3.4-81.2-10.3-113.6-20.5l-.6-.2c-17.3-5.5-49.5-15.7-49.5-39.2 0-12.8 8.7-31.3 49.9-46.5 31.5-11.6 67.8-15.3 114.5-11.7 43 3.4 81.2 10.3 113.6 20.5l1.3.4c17 5.4 48.6 15.4 48.8 38.9.2 23.2-27 38.1-49.9 46.5-23.8 8.8-50.3 13.1-81.9 13.1zm-31.8-11.4c45.2 3.5 80.2 0 110.2-11.1 16.3-6 43.6-18.8 43.4-37.1-.2-16.3-27.3-24.9-41.8-29.5l-1.3-.4c-31.6-10-69.1-16.8-111.3-20.1-45.2-3.5-80.2 0-110.2 11.1-39.1 14.4-43.4 30.8-43.4 37.1 0 16.1 27.6 24.9 42.5 29.6l.6.2c31.6 10.2 69 17 111.3 20.2z"/></g><path d="m187.9 166.2c-.2 12.8-11.1 22.6-23.8 21.7-13.1-.9-23.6-13.7-23.8-25.9-.3-12.7 11.3-23.1 23.8-21.7 12.2 1.3 24.1 12.7 23.8 25.9z" fill="rgb(29,36,69)"/></svg></g><!--ITEM: Illustration component 7--><g transform="translate(510.0 575.625) rotate(0.0 483.75 800.625)  scale(5.879493178572513 5.902311900092889)"><svg width="164.555" height="271.292" viewBox="0.0 0.0 164.555 271.292"><path d="m123.933 147.598-14.224-3.421-.323-.139c-.709-.305-1.383-.685-2.01-1.134l-5.795-4.16c-1.432-1.029-4.006-.774-5.078-2.849l-6.279-8.797-.757 5.155.577 6.363-.073.403c-.44 2.715.635 6.178.635 6.178l.773 1.271 8.529 10.638c.191.256 1.751.94 2.043.809.032-.016.063-.032.094-.051.623-.369.83-1.174.461-1.797l-2.885-5.856c-.115-.235-.164-.496-.144-.756.062-.809.768-1.414 1.577-1.352l10.374.178 10.934 1.183c.963.027 1.769-.525 1.981-1.278l.002-.013c.044-.274-.14-.531-.412-.575z" fill="#fff"/><path d="m101.85 158.43c-.543 0-2.034-.614-2.342-1.026l-8.518-10.624-.811-1.323c-.021-.035-.038-.072-.051-.111-.045-.146-1.105-3.607-.651-6.406l.063-.346-.571-6.296c-.004-.039-.002-.078.003-.117l.757-5.155c.03-.202.18-.366.378-.414.197-.046.405.029.524.196l6.279 8.798c.616 1.182 1.724 1.513 2.896 1.864.724.216 1.471.44 2.067.868l5.795 4.161c.594.426 1.238.789 1.915 1.081l.324.14 14.143 3.394c.227.035.458.179.614.396.155.217.218.481.174.745-.286 1.034-1.271 1.71-2.41 1.71-.019 0-.103-.002-.12-.004l-10.935-1.184-10.329-.175-.105-.505v.5c-.502 0-.925.394-.963.895-.014.173.019.345.094.498l2.885 5.856c.229.382.298.869.179 1.338-.12.47-.416.863-.832 1.109-.043.026-.087.049-.132.071-.105.046-.204.066-.32.066zm0-1v.5zm-10.783-12.439.739 1.216 8.492 10.585c.177.161 1.152.588 1.498.634.2-.131.317-.297.367-.49.054-.211.022-.429-.088-.615l-2.903-5.891c-.155-.314-.223-.666-.194-1.017.081-1.069 1.037-1.915 2.112-1.811l10.345.176 10.979 1.187c.694-.002 1.297-.387 1.446-.917l-14.27-3.384-.404-.167c-.742-.319-1.45-.719-2.103-1.187l-5.796-4.161c-.46-.331-1.097-.521-1.77-.723-1.26-.377-2.687-.805-3.461-2.303l-5.521-7.728-.568 3.869.572 6.305c.004.045.002.09-.006.134l-.073.403c-.383 2.378.474 5.433.607 5.885z" fill="#1d2445"/><path d="m79.181 111.497-1.661-1.675-13.782-45.767-23.909 10.995 21.314 42.834c.51 1.025 1.194 1.903 1.989 2.634.063.134.12.269.19.401l5.47 7.683c2.365 3.322 6.57 6.813 9.412 9.737l9.306 8.661 13.651-10.02z" fill="#fff"/><path d="m87.51 147.501c-.123 0-.245-.045-.341-.134l-9.305-8.662c-.905-.93-1.918-1.891-2.99-2.907-2.38-2.257-4.84-4.59-6.489-6.906l-5.47-7.683c-.089-.158-.138-.264-.186-.369l-.011-.023c-.84-.787-1.521-1.698-2.023-2.71l-21.313-42.835c-.061-.121-.069-.261-.024-.389.045-.127.14-.231.263-.288l23.908-10.995c.132-.062.284-.062.414-.001.132.059.232.173.273.312l13.746 45.647 1.574 1.587 22.003 25.509c.091.105.134.244.118.383s-.089.264-.201.347l-13.651 10.021c-.088.064-.192.096-.295.096zm-47.003-72.213 21.083 42.373c.464.931 1.097 1.769 1.88 2.488.049.044.088.098.115.156l.055.12c.039.086.078.173.124.258l5.436 7.628c1.594 2.238 4.018 4.537 6.362 6.76 1.08 1.024 2.101 1.992 3.002 2.919l8.984 8.362 12.882-9.455-21.627-25.074-1.638-1.649c-.058-.058-.1-.129-.123-.208l-13.617-45.217z" fill="#1d2445"/><path d="m82.723 144.589 14.716-12.365 4.886 5.879-14.717 12.365z" fill="#fff"/><path d="m87.608 150.968c-.015 0-.029-.001-.045-.002-.132-.012-.255-.076-.34-.179l-4.886-5.878c-.176-.211-.147-.525.063-.702l14.717-12.365c.102-.086.228-.126.366-.115.132.012.255.076.34.179l4.886 5.878c.176.211.147.525-.063.702l-14.716 12.364c-.09.077-.204.118-.322.118zm-4.183-6.316 4.247 5.109 13.951-11.722-4.247-5.109z" fill="#1d2445"/><path d="m116.104 265.47-.287-.825c-.482-1.387-1.636-2.433-3.063-2.778l-15.496-3.746c-2.937-.71-5.532-2.426-7.335-4.851l-3.562-4.791c-.815-1.096-2.1-1.741-3.465-1.741h-14.098v3.004l-1.822 4.984c-1.186 3.245-1.777 6.677-1.746 10.131l.023 2.527h21.936l.001.001h27.551c.993.001 1.689-.978 1.363-1.915z" fill="#fff"/><path d="m114.742 267.886-49.488-.001c-.274 0-.497-.221-.5-.495l-.023-2.527c-.032-3.529.565-6.997 1.776-10.308l1.792-4.901v-2.916c0-.276.224-.5.5-.5h14.097c1.517 0 2.962.727 3.866 1.943l3.563 4.79c1.729 2.326 4.233 3.982 7.051 4.663l15.496 3.747c1.6.387 2.878 1.546 3.419 3.101l.286.825c.209.601.117 1.243-.251 1.763-.37.518-.947.816-1.584.816zm-48.993-1.001 48.993.001c.309 0 .589-.145.768-.396s.223-.563.121-.854l-.286-.825c-.428-1.231-1.44-2.15-2.708-2.456l-15.496-3.747c-3.045-.736-5.751-2.525-7.619-5.039l-3.563-4.79c-.717-.965-1.861-1.54-3.063-1.54h-13.597v2.505c0 .059-.011.116-.03.172l-1.822 4.984c-1.17 3.197-1.747 6.546-1.716 9.954z" fill="#1d2445"/><path d="m65.23 266.985h50.683v3.807h-50.683z" fill="#1d2445"/><path d="m115.913 271.292h-50.683c-.276 0-.5-.224-.5-.5v-3.807c0-.276.224-.5.5-.5h50.684c.276 0 .5.224.5.5v3.807c-.001.276-.225.5-.501.5zm-50.183-1h49.684v-2.807h-49.684z" fill="#1d2445"/><path d="m68.676 250.33 36.985 5.293 20.851-88.78c1.231-5.281-2.252-10.505-7.601-11.398l-26.995-4.507-13.53 25.654c-3.27 6.199-5.168 13.029-5.565 20.026z" fill="#1d2445"/><path d="m105.661 256.123c-.023 0-.047-.002-.071-.005l-36.984-5.292c-.261-.037-.447-.271-.427-.533l4.143-53.712c.404-7.109 2.296-13.916 5.621-20.222l13.53-25.654c.101-.191.312-.3.524-.26l26.995 4.508c2.725.455 5.069 1.971 6.603 4.269 1.532 2.299 2.031 5.046 1.404 7.735l-20.852 88.78c-.053.229-.256.386-.486.386zm-36.45-6.221 36.068 5.161 20.746-88.334c.563-2.417.115-4.887-1.263-6.952-1.378-2.066-3.485-3.429-5.935-3.838l-26.64-4.448-13.361 25.335c-3.258 6.178-5.111 12.846-5.509 19.821z" fill="#1d2445"/><path d="m15.405 81.186 11.765.014.063-69.093c-6.498-.008-11.772 5.253-11.78 11.751z" fill="#1d2445"/><path d="m27.171 81.701-11.767-.014c-.275 0-.499-.224-.499-.5l.048-57.327c.008-6.755 5.511-12.251 12.266-12.251.133 0 .268.053.361.146s.153.221.153.354l-.063 69.093c0 .133-.053.26-.146.354-.093.092-.22.145-.353.145zm-11.266-1.014 10.766.013.063-68.082c-5.987.262-10.773 5.204-10.78 11.241z" fill="#1d2445"/><path d="m64.964 25.362-3.735-2.051c-.403-.428-.597-1.027-.496-1.628l.396-2.364c.04-.242.034-.489-.018-.728l-1.447-6.588-4.157-.005-27.093 5.953 3.39 15.427c.705 3.209 2.786 5.758 5.485 7.173l.042.202-3.299 20.788 17.502 11.891 5.324-30.958 5.311-1.144c2.075-.447 3.391-2.495 2.936-4.568l-1.506-6.856 1.672-1.394c1.034-.864.876-2.5-.307-3.15z" fill="#fff"/><g fill="#1d2445"><path d="m51.533 73.932c-.099 0-.197-.029-.281-.086l-17.502-11.891c-.16-.109-.243-.301-.213-.492l3.271-20.603c-2.808-1.562-4.803-4.234-5.492-7.374l-3.39-15.428c-.06-.27.111-.537.381-.596l27.093-5.953c.035-.008.071-.012.107-.012h.001l4.157.005c.234 0 .438.164.487.393l1.447 6.588c.066.303.074.612.022.919l-.396 2.362c-.068.408.051.832.318 1.148l3.659 2.01c.701.385 1.165 1.09 1.242 1.886s-.244 1.576-.857 2.087l-1.438 1.2 1.44 6.559c.249 1.134.04 2.296-.587 3.272s-1.598 1.648-2.731 1.892l-4.981 1.073-5.266 30.625c-.029.167-.142.309-.298.375-.06.028-.126.041-.193.041zm-16.958-12.626 16.597 11.276 5.191-30.192c.035-.201.188-.361.388-.404l5.312-1.145c.872-.188 1.618-.705 2.101-1.455.483-.751.644-1.645.452-2.517l-1.506-6.855c-.04-.183.024-.372.168-.491l1.671-1.394c.365-.305.549-.75.503-1.224s-.312-.875-.729-1.105l-3.733-2.05c-.046-.025-.088-.058-.124-.096-.515-.547-.749-1.315-.625-2.054l.396-2.364c.03-.18.026-.36-.013-.538l-1.361-6.196-3.701-.004-26.552 5.834 3.282 14.939c.646 2.943 2.553 5.435 5.229 6.837.132.069.227.195.257.341l.042.202c.013.059.014.12.005.18z"/><path d="m53.356 43.619c-.234 0-.444-.167-.49-.406-.052-.271.126-.533.396-.585l4.326-.832c.265-.049.533.125.586.397.052.271-.126.533-.396.585l-4.326.832c-.032.007-.063.009-.096.009z"/><path d="m55.736 22.212c-.093 0-.187-.025-.27-.079-.232-.148-.301-.458-.151-.69l.833-1.301c.233-.366.611-.629 1.035-.722l3.312-.728c.275-.057.537.112.596.381.06.27-.111.537-.381.596l-3.312.728c-.167.037-.315.14-.408.284l-.833 1.302c-.095.148-.257.229-.421.229z"/><path d="m64.334 34.126c-.012 0-.024 0-.036-.001l-1.802-.126c-.656-.045-1.274-.364-1.695-.873l-.61-.741c-.11-.133-.144-.314-.088-.478s.191-.287.359-.327l3.248-.76c.278-.061.538.105.602.373.063.269-.104.538-.373.601l-2.465.576.099.12c.246.298.608.484.994.511l1.802.126c.275.019.482.258.464.533-.02.265-.239.466-.499.466z"/><path d="m45.064.861-.56.123c-2.368.52-3.865 2.861-3.345 5.229l.401 1.824c1.585 7.214 8.718 11.778 15.933 10.193l6.788-1.491-.916-4.17c-1.821-8.287-10.014-13.529-18.301-11.708z"/><path d="m54.611 19.044c-6.458 0-12.151-4.584-13.539-10.9l-.401-1.824c-.578-2.633 1.094-5.246 3.727-5.824l.56-.123c1.125-.248 2.275-.373 3.418-.373 7.381 0 13.891 5.241 15.478 12.461l.916 4.17c.06.27-.111.537-.381.596l-6.788 1.491c-.985.216-1.991.326-2.99.326zm-6.235-18.044c-1.07 0-2.148.118-3.204.35l-.56.123c-2.095.46-3.425 2.538-2.965 4.633l.401 1.824c1.287 5.86 6.57 10.114 12.562 10.115h.001c.927 0 1.86-.102 2.774-.303l6.3-1.384-.809-3.682c-1.486-6.766-7.585-11.676-14.5-11.676z"/><path d="m46.674 20.385-22.307 4.901-1.092-4.971c-1.745-7.941 3.278-15.792 11.219-17.537l4.697-1.032c1.785-.392 3.55.737 3.942 2.522z"/><path d="m24.367 25.786c-.095 0-.188-.027-.27-.079-.111-.072-.19-.185-.219-.314l-1.092-4.971c-.873-3.971-.146-8.044 2.044-11.469 2.191-3.425 5.585-5.791 9.556-6.664l4.696-1.032c2.021-.442 4.099.901 4.538 2.903l3.541 16.116c.06.27-.111.537-.381.596l-22.307 4.901c-.034.009-.07.013-.106.013zm15.537-23.617c-.202 0-.406.022-.606.066l-4.696 1.032c-3.71.815-6.881 3.026-8.928 6.226s-2.726 7.005-1.91 10.715l.984 4.482 21.33-4.687-3.433-15.627c-.282-1.279-1.434-2.207-2.741-2.207z"/><path d="m45.174 39.09-5.148 1.131c-4.327.951-8.606-1.786-9.557-6.114l-1.488-6.773c-.484-2.205-2.664-3.599-4.869-3.115l-.995.218-.905-4.121 27.592-6.062z"/><path d="m38.297 40.91c-3.967 0-7.464-2.815-8.315-6.695l-1.488-6.772c-.415-1.886-2.374-3.152-4.273-2.734l-.995.218c-.272.062-.537-.112-.596-.381l-.905-4.121c-.06-.27.111-.537.381-.596l27.592-6.062c.163-.036.335.012.455.129.121.117.175.286.144.451l-4.63 24.835c-.036.197-.188.354-.384.396l-5.147 1.131c-.608.134-1.225.201-1.839.201zm-13.304-17.286c2.135 0 4.018 1.516 4.477 3.604l1.488 6.772c.752 3.424 3.838 5.91 7.339 5.91.542 0 1.088-.06 1.622-.177l4.824-1.06 4.431-23.768-26.366 5.793.69 3.144.507-.111c.325-.071.658-.107.988-.107z"/></g><path d="m26.334 26.28c-.689 0-1.31-.478-1.463-1.179l-2.745-12.491c-.178-.809.334-1.609 1.143-1.787.809-.181 1.609.334 1.787 1.143l2.744 12.491c.178.809-.334 1.609-1.143 1.787-.109.024-.217.036-.323.036z" fill="#fff"/><path d="m26.334 26.78c-.931 0-1.752-.661-1.952-1.571l-2.744-12.491c-.115-.521-.021-1.056.268-1.506s.733-.762 1.256-.876c1.046-.233 2.151.471 2.383 1.524l2.744 12.491c.115.521.021 1.056-.268 1.506s-.733.762-1.256.876c-.143.03-.287.047-.431.047zm-2.739-15.493c-.072 0-.146.008-.217.024-.263.058-.486.214-.63.439s-.191.492-.134.752l2.744 12.491c.116.525.646.885 1.191.762.261-.058.484-.213.628-.438s.191-.492.134-.752l-2.744-12.491c-.1-.456-.509-.787-.972-.787z" fill="#1d2445"/><path d="m47.516 32.172 3.327-.731-1.847-6.897c-.597-2.229-2.842-3.595-5.096-3.099l-.241.053c-2.317.509-3.446 3.145-2.217 5.173l2.373 3.915c.767 1.266 2.255 1.904 3.701 1.586z" fill="#fff"/><path d="m59.128 57.85-26.549-5.825 3.682-9.788 20.887 4.428z" fill="#fff"/><path d="m59.128 58.35c-.036 0-.071-.004-.107-.012l-26.549-5.825c-.142-.031-.263-.122-.332-.25s-.08-.279-.028-.415l3.683-9.788c.087-.23.331-.364.571-.313l20.886 4.428c.199.042.354.201.389.402l1.957 11.051c.033.067.051.142.051.221 0 .276-.224.5-.5.5-.006.001-.014.001-.021.001zm-25.878-6.69 25.255 5.542-1.791-10.117-20.136-4.27z" fill="#1d2445"/><path d="m120.788 75.678 10.455-2.688c1.308-1.175 3.069-1.647 4.747-1.273l1.661.37 7.144 1.975c.827.234 1.713.138 2.483-.268l2.216-1.156 3.802 1.123c.867.262 1.806.265 2.714.319 1.871.111 7.649.399 7.649.399.251-.04.426-.282.391-.54 0-.003-.001-.008-.001-.011l-.005-.024c-.178-.863-.789-1.6-1.743-1.789l-7.101-1.464-8.24-3.616-1.361-1.112c-.171-.142-.233-.383-.156-.598.082-.222.293-.366.522-.357 1.39.05 5.83.304 6.574.353.736.058 1.386-.513 1.452-1.276.001-.018.003-.034.003-.053.044-.651-.341-1.247-.937-1.45 0 0-3.491-.851-5.719-1.347-.787-.164-1.546-.444-2.255-.833-1.155-.624-2.457-.911-3.766-.832l-3.617.327c-2.059.187-5.112.507-7.259 2.532-1.13 1.067-5.897 2.951-5.897 2.951z" fill="#fff"/><path d="m120.788 76.178c-.139 0-.274-.058-.37-.164-.125-.137-.163-.333-.1-.507l3.756-10.337c.049-.134.152-.242.286-.294 1.301-.515 4.868-2.029 5.736-2.85 2.324-2.191 5.6-2.489 7.558-2.667l3.618-.327c.167-.01.318-.015.471-.015 1.244 0 2.481.313 3.576.904.666.365 1.379.628 2.121.783 2.238.498 5.734 1.351 5.734 1.351.853.288 1.377 1.093 1.318 1.969-.094 1.087-.958 1.876-1.994 1.794-.711-.047-5.154-.301-6.553-.352l1.285 1.141 8.121 3.563 7.049 1.454c1.082.215 1.9 1.05 2.132 2.178.007.033.017.102.017.136.068.457-.294.952-.813 1.034-.033.005-.066.009-.103.005 0 0-5.782-.288-7.654-.399l-.447-.023c-.786-.039-1.6-.08-2.381-.316l-3.606-1.064-2.036 1.063c-.872.459-1.91.572-2.851.306l-7.142-1.974-1.637-.365c-1.509-.335-3.128.1-4.304 1.157-.06.054-.132.092-.21.112l-10.455 2.688c-.039.011-.081.016-.122.016zm4.15-10.456-3.355 9.236 9.421-2.422c1.404-1.21 3.315-1.703 5.096-1.306l1.66.371 7.169 1.98c.702.199 1.468.114 2.117-.229l2.218-1.157c.115-.061.248-.072.373-.036l3.803 1.123c.667.202 1.418.239 2.144.275l.457.024c1.7.101 6.626.348 7.509.392-.193-.754-.684-1.236-1.345-1.367l-7.105-1.466c-.035-.007-.068-.018-.101-.032l-8.24-3.616c-.041-.019-.08-.042-.115-.071l-1.361-1.112c-.336-.281-.458-.744-.309-1.156.152-.412.542-.687.971-.687 1.444.052 5.906.307 6.628.354h.006c.505 0 .875-.36.915-.82.031-.468-.216-.856-.598-.986-.008 0-3.458-.842-5.666-1.333-.832-.174-1.638-.471-2.388-.882-1.063-.574-2.281-.841-3.494-.771l-3.604.326c-1.828.166-4.889.444-6.961 2.398-1.065 1.008-4.828 2.561-5.845 2.97z" fill="#1d2445"/><path d="m149.104 265.47-.287-.825c-.482-1.387-1.636-2.433-3.063-2.778l-15.496-3.746c-2.937-.71-5.532-2.426-7.335-4.851l-3.562-4.791c-.815-1.096-2.1-1.741-3.465-1.741h-14.097v3.004l-1.822 4.984c-1.186 3.245-1.777 6.677-1.746 10.131l.023 2.527h21.936l.001.001h27.551c.992.001 1.688-.978 1.362-1.915z" fill="#fff"/><path d="m147.742 267.886-49.488-.001c-.274 0-.497-.221-.5-.495l-.023-2.527c-.032-3.529.565-6.997 1.776-10.308l1.792-4.901v-2.916c0-.276.224-.5.5-.5h14.097c1.517 0 2.962.727 3.866 1.943l3.563 4.79c1.729 2.326 4.233 3.982 7.051 4.663l15.496 3.747c1.6.387 2.878 1.546 3.419 3.101l.286.825c.209.601.117 1.243-.251 1.763-.37.518-.947.816-1.584.816zm-48.993-1.001 48.993.001c.309 0 .589-.145.768-.396s.223-.563.121-.854l-.286-.825c-.428-1.231-1.44-2.15-2.708-2.456l-15.496-3.747c-3.045-.736-5.751-2.525-7.619-5.039l-3.563-4.79c-.717-.965-1.861-1.54-3.063-1.54h-13.597v2.505c0 .059-.011.116-.03.172l-1.822 4.984c-1.17 3.197-1.747 6.546-1.716 9.954z" fill="#1d2445"/><path d="m98.23 266.985h50.683v3.807h-50.683z" fill="#1d2445"/><path d="m148.913 271.292h-50.683c-.276 0-.5-.224-.5-.5v-3.807c0-.276.224-.5.5-.5h50.684c.276 0 .5.224.5.5v3.807c-.001.276-.225.5-.501.5zm-50.183-1h49.684v-2.807h-49.684z" fill="#1d2445"/><path d="m127.787 62.836-31.398 8.193s-37.837-14.089-38.905-14.584l-11.951-5.532c-1.03-.477-2.116-.839-3.238-1.008-5.302-.797-10.72.948-14.57 4.789-8.836 8.814-13.504 20.973-12.835 33.436l1.054 19.653c.236 4.404-1.172 8.738-3.952 12.162l-1.203 1.592c-5.194 6.876-7.824 15.35-7.436 23.958l.451 10.01 72.784-.858-6.549-19.793-6.564-20.633 2.894-13.627 4.364-4.505c2.583-2.667 3.667-6.394 3.007-9.975l21.888 3.736c2.019.345 4.181.125 5.986-.471 1.128-.373 12.377-2.806 16.255-4.069l12.617-4.109z" fill="#fff"/><path d="m3.805 156.005c-.268 0-.487-.21-.499-.478l-.451-10.01c-.393-8.706 2.284-17.329 7.535-24.283l1.204-1.592c2.717-3.348 4.08-7.545 3.851-11.833l-1.054-19.652c-.675-12.589 4.057-24.914 12.981-33.816 3.313-3.304 7.714-5.124 12.393-5.124.869 0 1.745.065 2.604.194 1.091.164 2.226.517 3.374 1.049l11.951 5.532c.827.383 25.601 9.628 38.721 14.514l31.246-8.154c.136-.036.284-.011.402.067.118.079.197.204.219.344l2.698 18.365c.035.241-.108.473-.34.548l-12.616 4.109c-2.519.82-8.019 2.106-12.034 3.045-2.061.481-3.839.897-4.219 1.023-1.307.432-2.745.66-4.159.66-.708 0-1.403-.058-2.067-.171l-21.205-3.618c.438 3.551-.75 7.137-3.247 9.714l-4.265 4.401-2.836 13.357 6.524 20.507 6.547 19.787c.05.151.025.317-.067.447s-.242.208-.401.21l-72.784.857c-.002.001-.004.001-.006.001zm35.96-105.788c-4.412 0-8.562 1.716-11.686 4.832-8.725 8.701-13.35 20.749-12.69 33.054l1.054 19.652c.244 4.537-1.199 8.977-4.062 12.504l-1.193 1.578c-5.111 6.768-7.716 15.161-7.335 23.635l.43 9.526 71.617-.844-6.334-19.144-6.566-20.639c-.026-.082-.03-.171-.013-.255l2.894-13.627c.02-.092.064-.176.13-.244l4.364-4.505c2.437-2.514 3.512-6.079 2.875-9.537-.029-.161.021-.325.137-.441.115-.117.28-.17.439-.142l21.888 3.736c.609.104 1.248.157 1.899.157 1.31 0 2.639-.211 3.845-.609.423-.14 2.052-.521 4.305-1.047 3.999-.935 9.475-2.216 11.952-3.023l12.216-3.978-2.557-17.396-30.858 8.053c-.099.027-.204.02-.301-.015-1.545-.576-37.867-14.102-38.939-14.599l-11.951-5.532c-1.063-.492-2.105-.817-3.103-.967-.812-.122-1.638-.183-2.457-.183z" fill="#1d2445"/><path d="m117.616 69.493h20.846v7.644h-20.846z" fill="#fff" transform="matrix(.1454 .9894 -.9894 .1454 181.9592 -64.0228)"/><path d="m125.772 84.683c-.243 0-.457-.179-.494-.427l-3.031-20.625c-.019-.131.015-.265.094-.371s.197-.177.329-.196l7.563-1.111c.268-.042.526.148.567.422l3.031 20.625c.019.131-.015.265-.094.371s-.197.177-.329.196l-7.563 1.111c-.024.004-.048.005-.073.005zm-2.462-20.703 2.886 19.636 6.573-.966-2.886-19.636z" fill="#1d2445"/><path d="m100.411 253.348 37.081.132-8.861-95.141c-.57-5.393-5.575-9.184-10.92-8.272l-26.979 4.601-4.363 28.673c-1.054 6.929-.606 14.003 1.314 20.744z" fill="#1d2445"/><path d="m137.492 253.979c-.001 0-.001 0-.002 0l-37.081-.132c-.228-.001-.425-.155-.482-.375l-12.728-49.262c-1.949-6.845-2.396-13.896-1.324-20.944l4.363-28.673c.032-.213.197-.382.41-.418l26.979-4.601c.555-.095 1.119-.143 1.678-.143 5.066 0 9.289 3.807 9.823 8.854l8.861 95.147c.013.14-.034.279-.129.384-.093.105-.227.163-.368.163zm-36.693-1.131 36.145.129-8.81-94.593c-.479-4.531-4.274-7.953-8.828-7.953-.502 0-1.01.043-1.51.129l-26.623 4.54-4.31 28.315c-1.05 6.906-.612 13.814 1.301 20.532z" fill="#1d2445"/><path d="m128.066 161.949c1.633-4.406-.625-10.057-5.113-11.434l-69.721-16.405c-7.072-2.086-46.937-5.549-46.937-5.549l-4.391 14.247c-6.182 20.057 8.828 40.367 29.815 40.345l52.978-.065 36.087-7.197z" fill="#1d2445"/><path d="m31.687 183.652c-10.157 0-19.443-4.688-25.477-12.861-6.032-8.172-7.776-18.425-4.784-28.131l4.392-14.247c.068-.225.271-.371.521-.351 1.63.142 39.996 3.492 47.035 5.567l69.694 16.398c2.143.655 3.9 2.216 4.98 4.402 1.194 2.416 1.377 5.292.487 7.692l-7.307 13.999c-.07.134-.197.229-.346.259l-36.088 7.196-53.074.075c0 .002-.033.002-.033.002zm-25.034-54.558-4.272 13.861c-2.896 9.399-1.208 19.329 4.634 27.242 5.843 7.915 14.835 12.455 24.672 12.455v.5l.032-.5 52.978-.065 35.757-7.14 7.17-13.729c.771-2.09.604-4.67-.472-6.845-.957-1.937-2.5-3.314-4.345-3.881l-69.689-16.396c-6.591-1.942-42.26-5.131-46.465-5.502z" fill="#1d2445"/><path d="m95.339 235.816c-.222 0-.425-.148-.483-.373l-8.97-34.114c-1.348-5.123-1.51-10.576-.47-15.771l.34-1.699-10.403.291c-.268-.005-.506-.21-.514-.486-.008-.275.21-.506.486-.514l11.03-.309c.12-.002.298.061.396.178.099.116.139.271.108.42l-.463 2.315c-1.011 5.047-.853 10.345.456 15.321l8.97 34.114c.07.267-.089.54-.356.61-.042.012-.085.017-.127.017z" fill="#fff"/><path d="m73.741 86.615c-.052 0-.104-.008-.156-.025l-21-6.908c-.711-.234-1.302.084-1.616.459-.316.375-.528 1.011-.176 1.671l1.654 3.101c.13.244.037.546-.206.676-.244.129-.547.038-.677-.206l-1.654-3.101c-.49-.92-.378-1.988.293-2.786.672-.798 1.702-1.091 2.694-.766l21 6.908c.263.086.405.369.318.631-.069.212-.264.346-.474.346z" fill="#1d2445"/></svg></g><!--ITEM: Illustration component 8--><g transform="translate(258.75 1038.75) rotate(0.0 389.0625 570.0)  scale(5.557996014314183 5.560921356864811)"><svg width="140.001" height="205.002" viewBox="0.0 0.0 140.001 205.002"><path d="m136.999 204.502c-1.096 0-2.101-.727-2.408-1.834l-24-86.656c-.369-1.33.411-2.708 1.742-3.076 1.333-.366 2.708.411 3.077 1.742l24 86.656c.369 1.33-.411 2.708-1.742 3.076-.224.061-.448.092-.669.092z" fill="#fff"/><path d="m136.999 205.002c-1.343 0-2.531-.905-2.89-2.2l-24-86.656c-.214-.772-.114-1.581.28-2.279.395-.697 1.038-1.199 1.81-1.412 1.573-.434 3.261.535 3.692 2.09l24 86.656c.214.772.114 1.581-.28 2.279-.395.697-1.038 1.199-1.81 1.412-.265.073-.535.11-.802.11zm-23.998-91.657c-.18 0-.36.024-.536.073-.514.142-.942.477-1.205.941s-.33 1.004-.187 1.519l24 86.656c.287 1.036 1.387 1.693 2.462 1.394.514-.142.942-.477 1.206-.941s.33-1.004.187-1.519l-24-86.656c-.239-.864-1.031-1.467-1.927-1.467z" fill="#1d2445"/><path d="m48.001 110.657h68v4.688h-68z" fill="#1d2445"/><path d="m24.002 204.502c-.221 0-.445-.03-.669-.092-1.331-.368-2.11-1.746-1.742-3.076l23.774-85.843-44.685-111.561c-.513-1.282.109-2.737 1.391-3.25 1.283-.515 2.737.109 3.25 1.391l45.314 113.127-24.226 87.47c-.306 1.107-1.311 1.834-2.407 1.834z" fill="#fff"/><path d="m24.002 205.002c-.267 0-.537-.037-.802-.109-.773-.214-1.416-.716-1.811-1.413s-.494-1.507-.28-2.279l23.729-85.68-44.623-111.405c-.298-.744-.288-1.56.027-2.296s.898-1.307 1.643-1.604c.358-.143.733-.216 1.116-.216 1.233 0 2.326.74 2.785 1.885l45.377 113.284-.045.163-24.226 87.47c-.359 1.294-1.547 2.2-2.89 2.2zm-21.001-204.002c-.255 0-.505.049-.744.144-.496.199-.885.578-1.095 1.07-.21.491-.216 1.035-.018 1.531l44.749 111.717-.045.163-23.774 85.843c-.143.515-.076 1.054.187 1.519s.691.8 1.206.942c1.071.295 2.174-.358 2.461-1.395l24.181-87.307-45.252-112.97c-.306-.763-1.035-1.257-1.856-1.257z" fill="#1d2445"/></svg></g><!--ITEM: Illustration component 9--><g transform="translate(1310.625 665.625) rotate(-16.867233627184277 -61.875 58.125) translate(-0.0 0.0) scale(-1.586945370607848 1.6361717100633357)"><svg width="77.98" height="71.05" viewBox="0.0 0.0 77.98 71.05"><path d="m1.49923 22.99954a1.49977 1.49977 0 0 1 -.4231-2.93848l67.89014-20a1.49961 1.49961 0 1 1 .84765 2.877l-67.89013 20a1.48843 1.48843 0 0 1 -.42456.06148z" fill="rgb(29,36,69)"/><path d="m5.03926 35.02a1.49984 1.49984 0 0 1 -.42334-2.93847l58.90992-17.36031a1.49968 1.49968 0 1 1 .84814 2.87695l-58.90991 17.36035a1.49161 1.49161 0 0 1 -.42481.06148z" fill="rgb(29,36,69)"/><path d="m8.5793 47.02981a1.49985 1.49985 0 0 1 -.4233-2.93848l28.4299-8.37988a1.49968 1.49968 0 1 1 .84814 2.877l-28.42993 8.37984a1.4904 1.4904 0 0 1 -.42481.06152z" fill="rgb(29,36,69)"/><path d="m46.9692 35.71047a1.49976 1.49976 0 0 1 -.4231-2.93847l29.51-8.69043a1.49961 1.49961 0 1 1 .84766 2.877l-29.51 8.69043a1.48876 1.48876 0 0 1 -.42456.06147z" fill="rgb(29,36,69)"/><path d="m12.11934 59.03958a1.49989 1.49989 0 0 1 -.42358-2.93848l17.26-5.08984a1.49975 1.49975 0 1 1 .84863 2.877l-17.26 5.08984a1.492 1.492 0 0 1 -.42505.06148z" fill="rgb(29,36,69)"/><path d="m37.91915 51.4302a1.50026 1.50026 0 0 1 -.42285-2.93945l18.1101-5.33008a1.50048 1.50048 0 0 1 .84717 2.87891l-18.11011 5.33007a1.52042 1.52042 0 0 1 -.42431.06055z" fill="rgb(29,36,69)"/><path d="m15.65938 71.05032a1.49985 1.49985 0 0 1 -.42334-2.93848l59.96-17.66992a1.49968 1.49968 0 1 1 .84815 2.87695l-59.96 17.66992a1.49138 1.49138 0 0 1 -.42481.06153z" fill="rgb(29,36,69)"/></svg></g><!--ITEM: Illustration component 10--><g transform="translate(1653.75 830.625) rotate(17.535089108020085 83.4375 41.25) translate(0.0 0.0) scale(1.429581084554099 1.4486391571553994)"><svg width="116.73000000000002" height="56.95" viewBox="0.0 0.0 116.73000000000002 56.95"><path d="m1.49943 24.66039a1.4998 1.4998 0 0 1 -.43335-2.93555l71.7102-21.66016a1.49967 1.49967 0 1 1 .86768 2.8711l-71.71021 21.66015a1.49218 1.49218 0 0 1 -.43432.06446z" fill="rgb(29,36,69)"/><path d="m6.37955 40.8098a1.4998 1.4998 0 0 1 -.43335-2.93555l108.84986-32.87988a1.49967 1.49967 0 1 1 .86767 2.8711l-108.84985 32.87988a1.49257 1.49257 0 0 1 -.43433.06445z" fill="rgb(29,36,69)"/><path d="m11.24943 56.95043a1.49976 1.49976 0 0 1 -.43311-2.93555l52.06006-15.7207a1.4996 1.4996 0 1 1 .86719 2.87109l-52.06006 15.72073a1.48941 1.48941 0 0 1 -.43408.06443z" fill="rgb(29,36,69)"/></svg></g></svg>